<?xml version="1.0" encoding="UTF-8" standalone="no"?>
<!-- Created with Inkscape (http://www.inkscape.org/) -->

<svg
   xmlns:dc="http://purl.org/dc/elements/1.1/"
   xmlns:cc="http://creativecommons.org/ns#"
   xmlns:rdf="http://www.w3.org/1999/02/22-rdf-syntax-ns#"
   xmlns:svg="http://www.w3.org/2000/svg"
   xmlns="http://www.w3.org/2000/svg"
   xmlns:sodipodi="http://sodipodi.sourceforge.net/DTD/sodipodi-0.dtd"
   xmlns:inkscape="http://www.inkscape.org/namespaces/inkscape"
   width="250mm"
   height="250mm"
   viewBox="0 0 250 250"
   version="1.1"
   id="svg9525"
   inkscape:version="0.92.1 r15371"
   sodipodi:docname="foodbread.svg">
  <defs
     id="defs9519" />
  <sodipodi:namedview
     id="base"
     pagecolor="#ffffff"
     bordercolor="#666666"
     borderopacity="1.0"
     inkscape:pageopacity="0.0"
     inkscape:pageshadow="2"
     inkscape:zoom="0.35"
     inkscape:cx="856.48727"
     inkscape:cy="656.80369"
     inkscape:document-units="mm"
     inkscape:current-layer="g4491"
     showgrid="false"
     inkscape:showpageshadow="false"
     inkscape:window-width="1920"
     inkscape:window-height="1018"
     inkscape:window-x="-8"
     inkscape:window-y="-8"
     inkscape:window-maximized="1" />
  <metadata
     id="metadata9522">
    <rdf:RDF>
      <cc:Work
         rdf:about="">
        <dc:format>image/svg+xml</dc:format>
        <dc:type
           rdf:resource="http://purl.org/dc/dcmitype/StillImage" />
        <dc:title></dc:title>
      </cc:Work>
    </rdf:RDF>
  </metadata>
  <g
     inkscape:label="Layer 1"
     inkscape:groupmode="layer"
     id="layer1"
     transform="translate(0,-47)">
    <g
       id="g10271"
       transform="matrix(3.3916703,0,0,3.3916703,-300.56123,-409.76481)">
      <g
         id="g4491">
        <ellipse
           style="opacity:1;fill:#a05a2c;fill-opacity:1;fill-rule:nonzero;stroke:#784421;stroke-width:1.00381243;stroke-miterlimit:4;stroke-dasharray:none;stroke-dashoffset:0;stroke-opacity:1"
           id="path9527"
           transform="matrix(0.37115151,0.92857232,-0.92127001,0.3889236,0,0)"
           ry="38.219437"
           rx="17.282965"
           cy="-52.857315"
           cx="206.86055" />
        <path
           style="opacity:1;fill:#d38d5f;fill-opacity:1;fill-rule:nonzero;stroke:#784421;stroke-width:0.7484175;stroke-miterlimit:4;stroke-dasharray:none;stroke-dashoffset:0;stroke-opacity:1"
           d="m 114.9063,180.99341 c -0.18714,-0.12668 -0.68099,-0.65411 -1.09746,-1.17206 -1.52121,-1.89194 -3.88381,-4.3686 -5.18858,-5.43909 -3.16433,-2.59616 -6.80564,-4.19929 -11.03867,-4.85993 -0.288648,-0.0451 2.65159,-2.63091 5.06711,-4.45638 l 1.14184,-0.86292 0.7807,0.23702 c 2.85412,0.86652 5.20255,2.49086 7.1696,4.959 2.49982,3.13662 3.91664,7.27845 3.6853,10.77336 -0.0705,1.06536 -0.097,1.10723 -0.51984,0.821 z"
           id="path10255"
           inkscape:connector-curvature="0" />
        <path
           style="opacity:1;fill:#d38d5f;fill-opacity:1;fill-rule:nonzero;stroke:#784421;stroke-width:0.74834889;stroke-miterlimit:4;stroke-dasharray:none;stroke-dashoffset:0;stroke-opacity:1"
           d="m 130.42329,171.36982 c -0.20884,-0.18618 -0.63445,-0.78192 -0.94581,-1.32387 -0.31137,-0.54196 -0.70576,-1.15691 -0.87645,-1.36657 -0.17068,-0.20966 -0.53135,-0.73372 -0.8015,-1.16459 -1.5084,-2.40583 -3.69797,-4.61353 -6.22771,-6.27928 -1.71176,-1.12714 -4.70923,-2.51258 -6.61417,-3.0571 -0.33191,-0.0949 -0.60353,-0.19823 -0.60361,-0.22969 -7e-5,-0.0315 0.53225,-0.30631 1.18295,-0.61079 2.13517,-0.9991 2.72437,-1.24531 6.95952,-2.90818 0.30616,-0.1202 0.52032,-0.15394 0.62776,-0.0989 0.0897,0.046 0.70633,0.34056 1.3703,0.6547 3.86433,1.8283 6.51024,5.13765 7.40553,9.26243 0.26426,1.21747 0.24269,3.66473 -0.0422,4.78471 -0.22883,0.89971 -0.71741,2.22009 -0.92532,2.50066 -0.12245,0.16525 -0.15071,0.15618 -0.50934,-0.16353 z"
           id="path10257"
           inkscape:connector-curvature="0" />
        <path
           style="opacity:1;fill:#d38d5f;fill-opacity:1;fill-rule:nonzero;stroke:#784421;stroke-width:0.83699137;stroke-miterlimit:4;stroke-dasharray:none;stroke-dashoffset:0;stroke-opacity:1"
           d="m 145.95726,163.13455 c -0.0339,-0.0861 -0.23256,-0.60097 -0.44115,-1.14438 -0.2086,-0.54342 -0.74898,-1.60196 -1.20082,-2.35229 -1.97951,-3.28729 -4.74468,-5.70982 -7.99408,-7.0035 -1.54829,-0.61645 -2.88705,-0.92027 -4.2242,-0.95867 -0.51493,-0.0144 -0.961,-0.061 -0.99128,-0.10207 -0.0541,-0.074 3.70988,-0.82392 5.59476,-1.11509 1.06699,-0.16481 3.52682,-0.44244 5.45627,-0.61583 l 1.27377,-0.11449 0.62419,0.67546 c 3.06479,3.31647 4.11052,8.10534 2.56908,11.76489 -0.35119,0.83374 -0.58486,1.17243 -0.66654,0.96603 z"
           id="path10259"
           inkscape:connector-curvature="0" />
      </g>
    </g>
  </g>
</svg>
