<?xml version="1.0" encoding="UTF-8" standalone="no"?>
<!-- Created with Inkscape (http://www.inkscape.org/) -->

<svg
   xmlns:dc="http://purl.org/dc/elements/1.1/"
   xmlns:cc="http://creativecommons.org/ns#"
   xmlns:rdf="http://www.w3.org/1999/02/22-rdf-syntax-ns#"
   xmlns:svg="http://www.w3.org/2000/svg"
   xmlns="http://www.w3.org/2000/svg"
   xmlns:sodipodi="http://sodipodi.sourceforge.net/DTD/sodipodi-0.dtd"
   xmlns:inkscape="http://www.inkscape.org/namespaces/inkscape"
   width="250mm"
   height="250mm"
   viewBox="0 0 250 250"
   version="1.1"
   id="svg9525"
   inkscape:version="0.92.1 r15371"
   sodipodi:docname="foodbread.svg">
  <defs
     id="defs9519" />
  <sodipodi:namedview
     id="base"
     pagecolor="#ffffff"
     bordercolor="#666666"
     borderopacity="1.0"
     inkscape:pageopacity="0.0"
     inkscape:pageshadow="2"
     inkscape:zoom="0.35"
     inkscape:cx="-459.90539"
     inkscape:cy="502.4288"
     inkscape:document-units="mm"
     inkscape:current-layer="layer1"
     showgrid="false"
     inkscape:showpageshadow="false"
     inkscape:window-width="1920"
     inkscape:window-height="1018"
     inkscape:window-x="-8"
     inkscape:window-y="-8"
     inkscape:window-maximized="1" />
  <metadata
     id="metadata9522">
    <rdf:RDF>
      <cc:Work
         rdf:about="">
        <dc:format>image/svg+xml</dc:format>
        <dc:type
           rdf:resource="http://purl.org/dc/dcmitype/StillImage" />
        <dc:title></dc:title>
      </cc:Work>
    </rdf:RDF>
  </metadata>
  <g
     inkscape:label="Layer 1"
     inkscape:groupmode="layer"
     id="layer1"
     transform="translate(0,-47)">
    <g
       id="g10271"
       transform="matrix(3.3916703,0,0,3.3916703,-300.56123,-409.76481)">
      <ellipse
         cx="206.86055"
         cy="-52.857315"
         rx="17.282965"
         ry="38.219437"
         transform="matrix(0.37115151,0.92857232,-0.92127001,0.3889236,0,0)"
         id="path9527"
         style="opacity:1;fill:#a05a2c;fill-opacity:1;fill-rule:nonzero;stroke:#784421;stroke-width:1.00381243;stroke-miterlimit:4;stroke-dasharray:none;stroke-dashoffset:0;stroke-opacity:1" />
      <path
         transform="matrix(0.26458333,0,0,0.26458333,0,47)"
         inkscape:connector-curvature="0"
         id="path10255"
         d="m 434.3478,506.46084 c -0.69525,-0.47244 -2.53008,-2.43946 -4.07739,-4.37115 -5.6518,-7.05584 -14.42961,-16.29241 -19.27727,-20.28475 -11.75651,-9.6822 -25.28512,-15.66099 -41.01221,-18.1248 -1.07242,-0.168 9.85153,-9.8118 18.82595,-16.61979 l 4.24232,-3.21821 2.90054,0.88396 c 10.60396,3.23164 19.32914,9.28951 26.63738,18.49428 9.28764,11.69782 14.55159,27.14455 13.69208,40.17857 -0.26201,3.9732 -0.3605,4.12935 -1.9314,3.06189 z"
         style="opacity:1;fill:#c87137;fill-opacity:1;fill-rule:nonzero;stroke:#784421;stroke-width:2.21480322;stroke-miterlimit:4;stroke-dasharray:none;stroke-dashoffset:0;stroke-opacity:1" />
      <path
         transform="matrix(0.26458333,0,0,0.26458333,0,47)"
         inkscape:connector-curvature="0"
         id="path10257"
         d="m 493.096,470.08881 c -0.77226,-0.6977 -2.34617,-2.9303 -3.49758,-4.96134 -1.15142,-2.03104 -2.6099,-4.33566 -3.24108,-5.12138 -0.63119,-0.78571 -1.96495,-2.74969 -2.96393,-4.3644 -5.57805,-9.01613 -13.67504,-17.28973 -23.02997,-23.53231 -6.33009,-4.22409 -17.41468,-9.4162 -24.4591,-11.45682 -1.2274,-0.35556 -2.23187,-0.74292 -2.23214,-0.8608 -2.7e-4,-0.11789 1.96826,-1.14793 4.37451,-2.28899 7.89583,-3.74426 10.07469,-4.66696 25.73622,-10.89873 1.13217,-0.45049 1.9241,-0.57694 2.32143,-0.37066 0.33168,0.1722 2.61199,1.27631 5.06735,2.45358 14.29024,6.85173 24.07477,19.25391 27.38553,34.71199 0.97721,4.5626 0.89747,13.73399 -0.15589,17.93121 -0.8462,3.37176 -2.65296,8.32006 -3.42181,9.37152 -0.45283,0.61929 -0.5573,0.5853 -1.88354,-0.61287 z"
         style="opacity:1;fill:#c87137;fill-opacity:1;fill-rule:nonzero;stroke:#784421;stroke-width:2.97070861;stroke-miterlimit:4;stroke-dasharray:none;stroke-dashoffset:0;stroke-opacity:1" />
      <path
         inkscape:connector-curvature="0"
         id="path10259"
         d="m 143.75632,162.18561 c -0.0288,-0.0784 -0.19795,-0.54755 -0.37551,-1.04266 -0.17756,-0.49512 -0.63755,-1.45956 -1.02216,-2.1432 -1.68499,-2.99508 -4.03874,-5.20227 -6.80468,-6.38096 -1.31794,-0.56165 -2.45752,-0.83847 -3.59572,-0.87345 -0.43831,-0.0131 -0.81801,-0.0555 -0.8438,-0.093 -0.046,-0.0674 3.15792,-0.75068 4.76236,-1.01597 0.90824,-0.15016 3.00209,-0.40311 4.64447,-0.56108 l 1.08425,-0.10432 0.53132,0.61542 c 2.60881,3.02167 3.49894,7.38486 2.18684,10.71911 -0.29893,0.75963 -0.49784,1.06821 -0.56737,0.88016 z"
         style="opacity:1;fill:#c87137;fill-opacity:1;fill-rule:nonzero;stroke:#784421;stroke-width:0.84775573;stroke-miterlimit:4;stroke-dasharray:none;stroke-dashoffset:0;stroke-opacity:1" />
    </g>
  </g>
</svg>
