<?xml version="1.0" encoding="UTF-8" standalone="no"?>
<!-- Created with Inkscape (http://www.inkscape.org/) -->

<svg
   xmlns:osb="http://www.openswatchbook.org/uri/2009/osb"
   xmlns:dc="http://purl.org/dc/elements/1.1/"
   xmlns:cc="http://creativecommons.org/ns#"
   xmlns:rdf="http://www.w3.org/1999/02/22-rdf-syntax-ns#"
   xmlns:svg="http://www.w3.org/2000/svg"
   xmlns="http://www.w3.org/2000/svg"
   xmlns:xlink="http://www.w3.org/1999/xlink"
   xmlns:sodipodi="http://sodipodi.sourceforge.net/DTD/sodipodi-0.dtd"
   xmlns:inkscape="http://www.inkscape.org/namespaces/inkscape"
   width="500mm"
   height="250mm"
   viewBox="0 0 500 250"
   version="1.1"
   id="svg4044"
   inkscape:version="0.92.1 r15371"
   sodipodi:docname="Rogue trader title3 with colour and grey.svg">
  <defs
     id="defs4038">
    <linearGradient
       osb:paint="gradient"
       id="linearGradient3006">
      <stop
         id="stop3002"
         offset="0"
         style="stop-color:#ffbb00;stop-opacity:1;" />
      <stop
         id="stop3004"
         offset="1"
         style="stop-color:#ffbb00;stop-opacity:0;" />
    </linearGradient>
    <linearGradient
       osb:paint="solid"
       id="linearGradient2982">
      <stop
         id="stop2980"
         offset="0"
         style="stop-color:#000000;stop-opacity:1;" />
    </linearGradient>
    <linearGradient
       osb:paint="solid"
       id="linearGradient2948">
      <stop
         id="stop2946"
         offset="0"
         style="stop-color:#ffcc00;stop-opacity:1;" />
    </linearGradient>
    <linearGradient
       osb:paint="solid"
       id="linearGradient2826">
      <stop
         id="stop2824"
         offset="0"
         style="stop-color:#ffd42a;stop-opacity:1;" />
    </linearGradient>
    <linearGradient
       id="linearGradient1242"
       inkscape:collect="always">
      <stop
         id="stop1238"
         offset="0"
         style="stop-color:#000000;stop-opacity:1;" />
      <stop
         id="stop1240"
         offset="1"
         style="stop-color:#000000;stop-opacity:0;" />
    </linearGradient>
    <radialGradient
       gradientUnits="userSpaceOnUse"
       gradientTransform="matrix(1,0,0,0.50347647,0,66.37561)"
       r="17.358424"
       fy="133.68069"
       fx="125"
       cy="133.68069"
       cx="125"
       id="radialGradient1244"
       xlink:href="#linearGradient1242"
       inkscape:collect="always" />
    <meshgradient
       y="127.58542"
       x="112.81027"
       gradientUnits="userSpaceOnUse"
       id="meshgradient2952"
       inkscape:collect="always">
      <meshrow
         id="meshrow2954">
        <meshpatch
           id="meshpatch2956">
          <stop
             id="stop2958"
             style="stop-color:#ffffff;stop-opacity:1"
             path="c 6.7322,-3.36633  17.6473,-3.36633  24.3795,0" />
          <stop
             id="stop2960"
             style="stop-color:#ffcc00;stop-opacity:1"
             path="c 6.7322,3.36633  6.7322,8.82422  0,12.1905" />
          <stop
             id="stop2962"
             style="stop-color:#ffffff;stop-opacity:1"
             path="c -6.7322,3.36633  -17.6473,3.36633  -24.3795,0" />
          <stop
             id="stop2964"
             style="stop-color:#ffcc00;stop-opacity:1"
             path="c -6.7322,-3.36633  -6.7322,-8.82422  0,-12.1905" />
        </meshpatch>
      </meshrow>
    </meshgradient>
    <meshgradient
       y="-112.55665"
       x="-114.99272"
       gradientUnits="userSpaceOnUse"
       id="meshgradient3811"
       inkscape:collect="always">
      <meshrow
         id="meshrow3813">
        <meshpatch
           id="meshpatch3815">
          <stop
             id="stop3817"
             style="stop-color:#ffffff;stop-opacity:1"
             path="l -7.39279,-3.36477" />
          <stop
             id="stop3819"
             style="stop-color:#ffcc00;stop-opacity:1"
             path="l -2.83026,-6.52421" />
          <stop
             id="stop3821"
             style="stop-color:#ffffff;stop-opacity:1"
             path="l 0,0" />
          <stop
             id="stop3823"
             style="stop-color:#ffcc00;stop-opacity:1"
             path="l 10.2231,9.88897" />
        </meshpatch>
        <meshpatch
           id="meshpatch3825">
          <stop
             id="stop3827"
             path="l -2.59403,7.69715" />
          <stop
             id="stop3829"
             style="stop-color:#ffffff;stop-opacity:1"
             path="l -0.236235,-14.2214" />
          <stop
             id="stop3831"
             style="stop-color:#ffcc00;stop-opacity:1"
             path="l 0,0" />
        </meshpatch>
        <meshpatch
           id="meshpatch3833">
          <stop
             id="stop3835"
             path="l -2.84825,-7.60674" />
          <stop
             id="stop3837"
             style="stop-color:#ffcc00;stop-opacity:1"
             path="l 2.61201,-6.61461" />
          <stop
             id="stop3839"
             style="stop-color:#ffffff;stop-opacity:1"
             path="l 0,0" />
        </meshpatch>
        <meshpatch
           id="meshpatch3841">
          <stop
             id="stop3843"
             path="l -7.27696,3.60845" />
          <stop
             id="stop3845"
             style="stop-color:#ffffff;stop-opacity:1"
             path="l 9.88897,-10.2231" />
          <stop
             id="stop3847"
             style="stop-color:#ffcc00;stop-opacity:1"
             path="l 0,0" />
        </meshpatch>
        <meshpatch
           id="meshpatch3849">
          <stop
             id="stop3851"
             path="l 3.36477,-7.39279" />
          <stop
             id="stop3853"
             style="stop-color:#ffcc00;stop-opacity:1"
             path="l 6.52421,-2.83026" />
          <stop
             id="stop3855"
             style="stop-color:#ffffff;stop-opacity:1"
             path="l 0,0" />
        </meshpatch>
        <meshpatch
           id="meshpatch3857">
          <stop
             id="stop3859"
             path="l -7.69715,-2.59403" />
          <stop
             id="stop3861"
             style="stop-color:#ffffff;stop-opacity:1"
             path="l 14.2214,-0.236235" />
          <stop
             id="stop3863"
             style="stop-color:#ffcc00;stop-opacity:1"
             path="l 0,0" />
        </meshpatch>
        <meshpatch
           id="meshpatch3865">
          <stop
             id="stop3867"
             path="l 7.60674,-2.84825" />
          <stop
             id="stop3869"
             style="stop-color:#ffcc00;stop-opacity:1"
             path="l 6.61461,2.61201" />
          <stop
             id="stop3871"
             style="stop-color:#ffffff;stop-opacity:1"
             path="l 0,0" />
        </meshpatch>
        <meshpatch
           id="meshpatch3873">
          <stop
             id="stop3875"
             path="l -3.60845,-7.27696" />
          <stop
             id="stop3877"
             style="stop-color:#ffffff;stop-opacity:1"
             path="l 10.2231,9.88897" />
          <stop
             id="stop3879"
             style="stop-color:#ffcc00;stop-opacity:1"
             path="l 0,0" />
        </meshpatch>
        <meshpatch
           id="meshpatch3881">
          <stop
             id="stop3883"
             path="l 7.39279,3.36477" />
          <stop
             id="stop3885"
             style="stop-color:#ffcc00;stop-opacity:1"
             path="l 2.83026,6.52421" />
          <stop
             id="stop3887"
             style="stop-color:#ffffff;stop-opacity:1"
             path="l 0,0" />
        </meshpatch>
        <meshpatch
           id="meshpatch3889">
          <stop
             id="stop3891"
             path="l 2.59403,-7.69715" />
          <stop
             id="stop3893"
             style="stop-color:#ffffff;stop-opacity:1"
             path="l 0.236235,14.2214" />
          <stop
             id="stop3895"
             style="stop-color:#ffcc00;stop-opacity:1"
             path="l 0,0" />
        </meshpatch>
        <meshpatch
           id="meshpatch3897">
          <stop
             id="stop3899"
             path="l 2.84825,7.60674" />
          <stop
             id="stop3901"
             style="stop-color:#ffcc00;stop-opacity:1"
             path="l -2.61201,6.61461" />
          <stop
             id="stop3903"
             style="stop-color:#ffffff;stop-opacity:1"
             path="l 0,0" />
        </meshpatch>
        <meshpatch
           id="meshpatch3905">
          <stop
             id="stop3907"
             path="l 7.27696,-3.60845" />
          <stop
             id="stop3909"
             style="stop-color:#ffffff;stop-opacity:1"
             path="l -9.88897,10.2231" />
          <stop
             id="stop3911"
             style="stop-color:#ffcc00;stop-opacity:1"
             path="l 0,0" />
        </meshpatch>
        <meshpatch
           id="meshpatch3913">
          <stop
             id="stop3915"
             path="l -3.36477,7.39279" />
          <stop
             id="stop3917"
             style="stop-color:#ffcc00;stop-opacity:1"
             path="l -6.52421,2.83026" />
          <stop
             id="stop3919"
             style="stop-color:#ffffff;stop-opacity:1"
             path="l 0,0" />
        </meshpatch>
        <meshpatch
           id="meshpatch3921">
          <stop
             id="stop3923"
             path="l 7.69715,2.59403" />
          <stop
             id="stop3925"
             style="stop-color:#ffffff;stop-opacity:1"
             path="l -14.2214,0.236235" />
          <stop
             id="stop3927"
             style="stop-color:#ffcc00;stop-opacity:1"
             path="l 0,0" />
        </meshpatch>
        <meshpatch
           id="meshpatch3929">
          <stop
             id="stop3931"
             path="l -7.60674,2.84825" />
          <stop
             id="stop3933"
             style="stop-color:#ffcc00;stop-opacity:1"
             path="l -6.61461,-2.61201" />
          <stop
             id="stop3935"
             style="stop-color:#ffffff;stop-opacity:1"
             path="l 0,0" />
        </meshpatch>
        <meshpatch
           id="meshpatch3937">
          <stop
             id="stop3939"
             path="l 3.60845,7.27696" />
          <stop
             id="stop3941"
             style="stop-color:#ffffff;stop-opacity:1"
             path="l -10.2231,-9.88897" />
          <stop
             id="stop3943"
             style="stop-color:#ffcc00;stop-opacity:1"
             path="l 0,0" />
        </meshpatch>
      </meshrow>
    </meshgradient>
    <meshgradient
       inkscape:collect="always"
       id="meshgradient2683"
       gradientUnits="userSpaceOnUse"
       x="11.759865"
       y="57.298676">
      <meshrow
         id="meshrow2685">
        <meshpatch
           id="meshpatch2687">
          <stop
             path="c 75.2809,0  150.562,0  225.843,0"
             style="stop-color:#ffffff;stop-opacity:1"
             id="stop2689" />
          <stop
             path="c 0,46.1485  0,92.2971  0,138.446"
             style="stop-color:#666666;stop-opacity:1"
             id="stop2691" />
          <stop
             path="c -75.2809,0  -150.562,0  -225.843,0"
             style="stop-color:#ffffff;stop-opacity:1"
             id="stop2693" />
          <stop
             path="c 0,-46.1485  0,-92.2971  0,-138.446"
             style="stop-color:#666666;stop-opacity:1"
             id="stop2695" />
        </meshpatch>
      </meshrow>
    </meshgradient>
  </defs>
  <sodipodi:namedview
     id="base"
     pagecolor="#ffffff"
     bordercolor="#666666"
     borderopacity="1.0"
     inkscape:pageopacity="0.0"
     inkscape:pageshadow="2"
     inkscape:zoom="0.35000001"
     inkscape:cx="799.77142"
     inkscape:cy="274.90062"
     inkscape:document-units="mm"
     inkscape:current-layer="layer5"
     showgrid="false"
     showborder="true"
     inkscape:showpageshadow="false"
     inkscape:window-width="1920"
     inkscape:window-height="1018"
     inkscape:window-x="-8"
     inkscape:window-y="-8"
     inkscape:window-maximized="1" />
  <metadata
     id="metadata4041">
    <rdf:RDF>
      <cc:Work
         rdf:about="">
        <dc:format>image/svg+xml</dc:format>
        <dc:type
           rdf:resource="http://purl.org/dc/dcmitype/StillImage" />
        <dc:title></dc:title>
      </cc:Work>
    </rdf:RDF>
  </metadata>
  <g
     inkscape:label="Layer 1"
     inkscape:groupmode="layer"
     id="layer1"
     transform="translate(0,-47)"
     style="display:inline"
     sodipodi:insensitive="true">
    <g
       id="g154">
      <rect
         y="46.511902"
         x="0.15774536"
         height="250.9762"
         width="499.68451"
         id="rect4729"
         style="fill:#280b0b;stroke-width:0.32805774" />
      <rect
         y="54.401405"
         x="8.3883514"
         height="235.19719"
         width="483.2233"
         id="rect4735"
         style="fill:#501616;stroke-width:0.31751734" />
      <g
         transform="matrix(1.0687358,0,0,1.0687358,236.41936,34.545084)"
         id="g4725">
        <g
           inkscape:label="Layer 1"
           id="layer1-4"
           transform="translate(0,-47)"
           style="display:inline" />
        <g
           id="layer2"
           inkscape:label="Layer 2">
          <g
             id="g4391"
             transform="matrix(7.0143682,0,0,7.7510999,-751.79602,-843.88749)">
            <g
               transform="translate(0,-9.8425209)"
               id="g3031"
               style="display:inline">
              <g
                 id="g2978"
                 style="fill:#d99c08;fill-opacity:0.92964825"
                 transform="translate(6.8664551e-4)">
                <g
                   id="g2972"
                   style="fill:#d99c08;fill-opacity:0.92964825">
                  <ellipse
                     style="fill:#d99c08;fill-opacity:0.92964825;stroke-width:0.23908003"
                     id="path317-64-9"
                     cx="125"
                     cy="136.12389"
                     rx="17.238884"
                     ry="8.620019" />
                  <rect
                     style="fill:#d99c08;fill-opacity:0.92964825;stroke-width:0.26458332"
                     id="rect385"
                     width="6.2223687"
                     height="2.2550867"
                     x="107.75974"
                     y="133.74843" />
                </g>
                <rect
                   y="133.76154"
                   x="140.30005"
                   height="2.415504"
                   width="1.9312221"
                   id="rect387"
                   style="fill:#d99c08;fill-opacity:0.92964825;stroke-width:0.26458332" />
              </g>
              <ellipse
                 style="opacity:1;fill:url(#meshgradient2952);fill-opacity:1;stroke:url(#radialGradient1244);stroke-width:0.23908003"
                 id="path317-64"
                 cx="125"
                 cy="133.68069"
                 rx="17.238884"
                 ry="8.620018" />
            </g>
            <path
               transform="matrix(-1.016463,0,0,-0.50598228,-2.2772096,61.432418)"
               d="m -114.99272,-112.55665 -7.3928,-3.36476 -2.59403,7.69715 -2.84824,-7.60675 -7.27696,3.60845 3.36476,-7.39279 -7.69715,-2.59403 7.60675,-2.84825 -3.60845,-7.27696 7.39279,3.36476 2.59403,-7.69714 2.84825,7.60674 7.27696,-3.60845 -3.36476,7.3928 7.69714,2.59403 -7.60674,2.84824 z"
               inkscape:randomized="0"
               inkscape:rounded="0"
               inkscape:flatsided="false"
               sodipodi:arg2="1.1614875"
               sodipodi:arg1="0.7687884"
               sodipodi:r2="7.1116581"
               sodipodi:r1="14.223316"
               sodipodi:cy="-122.44562"
               sodipodi:cx="-125.21578"
               sodipodi:sides="8"
               id="path3037"
               style="opacity:1;fill:url(#meshgradient3811);fill-opacity:1;fill-rule:nonzero;stroke:#ffcc00;stroke-width:0.11155179;stroke-miterlimit:4;stroke-dasharray:none;stroke-dashoffset:0;stroke-opacity:1"
               sodipodi:type="star" />
          </g>
        </g>
        <g
           id="layer3"
           inkscape:label="Layer 3" />
      </g>
    </g>
  </g>
  <g
     inkscape:groupmode="layer"
     id="layer5"
     inkscape:label="layer2"
     style="display:inline">
    <g
       id="g248" />
    <path
       id="path266"
       style="fill:url(#meshgradient2683);stroke-width:0.26458332;fill-opacity:1"
       d="m 186.01959,151.11029 a 8.8198938,4.2763119 0 0 1 -8.8199,4.27631 8.8198938,4.2763119 0 0 1 -8.81989,-4.27631 8.8198938,4.2763119 0 0 1 8.81989,-4.27631 8.8198938,4.2763119 0 0 1 8.8199,4.27631 z m 33.40869,-3.07361 a 15.501632,10.557146 0 0 1 -15.50163,10.55715 15.501632,10.557146 0 0 1 -15.50163,-10.55715 15.501632,10.557146 0 0 1 15.50163,-10.55714 15.501632,10.557146 0 0 1 15.50163,10.55714 z m -38.48682,12.42803 a 17.105249,15.768902 0 0 1 -17.10525,15.7689 17.105249,15.768902 0 0 1 -17.10525,-15.7689 17.105249,15.768902 0 0 1 17.10525,-15.76891 17.105249,15.768902 0 0 1 17.10525,15.76891 z m -41.69404,-16.03617 a 10.95805,12.294397 0 0 1 -10.95805,12.2944 10.95805,12.294397 0 0 1 -10.95805,-12.2944 10.95805,12.294397 0 0 1 10.95805,-12.29439 10.95805,12.294397 0 0 1 10.95805,12.29439 z m 98.35519,-20.04522 a 12.294398,11.49259 0 0 1 -12.2944,11.49259 12.294398,11.49259 0 0 1 -12.2944,-11.49259 12.294398,11.49259 0 0 1 12.2944,-11.49259 12.294398,11.49259 0 0 1 12.2944,11.49259 z m -51.58302,0.93545 a 15.768903,13.229841 0 0 1 -15.7689,13.22984 15.768903,13.229841 0 0 1 -15.76891,-13.22984 15.768903,13.229841 0 0 1 15.76891,-13.22984 15.768903,13.229841 0 0 1 15.7689,13.22984 z m 27.52874,0.66818 a 19.510675,12.294398 0 0 1 -19.51067,12.2944 19.510675,12.294398 0 0 1 -19.51068,-12.2944 19.510675,12.294398 0 0 1 19.51068,-12.29439 19.510675,12.294398 0 0 1 19.51067,12.29439 z M 197.77945,150.843 a 9.4880676,10.423511 0 0 1 -9.48807,10.42351 9.4880676,10.423511 0 0 1 -9.48807,-10.42351 9.4880676,10.423511 0 0 1 9.48807,-10.42351 9.4880676,10.423511 0 0 1 9.48807,10.42351 z m 36.34865,-0.93542 a 11.358954,8.4189901 0 0 1 -11.35895,8.41899 11.358954,8.4189901 0 0 1 -11.35895,-8.41899 11.358954,8.4189901 0 0 1 11.35895,-8.41899 11.358954,8.4189901 0 0 1 11.35895,8.41899 z m -90.87163,-26.86062 a 10.690781,10.423512 0 0 1 -10.69078,10.42351 10.690781,10.423512 0 0 1 -10.69078,-10.42351 10.690781,10.423512 0 0 1 10.69078,-10.42351 10.690781,10.423512 0 0 1 10.69078,10.42351 z m -22.31702,30.736 A 35.145943,28.998743 0 0 1 85.79351,182.7817 35.145943,28.998743 0 0 1 50.647568,153.78296 35.145943,28.998743 0 0 1 85.79351,124.78422 a 35.145943,28.998743 0 0 1 35.14594,28.99874 z m -41.827677,24.45515 a 16.83798,17.506155 0 0 1 -16.837981,17.50616 16.83798,17.506155 0 0 1 -16.83798,-17.50616 16.83798,17.506155 0 0 1 16.83798,-17.50615 16.83798,17.506155 0 0 1 16.837981,17.50615 z m 2.93997,-26.45967 A 35.145939,28.998743 0 0 1 46.905804,180.77719 35.145939,28.998743 0 0 1 11.759865,151.77844 35.145939,28.998743 0 0 1 46.905804,122.7797 35.145939,28.998743 0 0 1 82.051743,151.77844 Z M 231.45541,135.74228 a 59.601101,15.367998 0 0 1 -59.6011,15.368 59.601101,15.367998 0 0 1 -59.6011,-15.368 59.601101,15.367998 0 0 1 59.6011,-15.368 59.601101,15.367998 0 0 1 59.6011,15.368 z M 74.835468,108.34715 A 30.60236,23.252449 0 0 1 44.233109,131.5996 30.60236,23.252449 0 0 1 13.630749,108.34715 30.60236,23.252449 0 0 1 44.233109,85.094704 30.60236,23.252449 0 0 1 74.835468,108.34715 Z m 35.347182,-2.9075 A 42.529655,48.140976 0 0 1 67.652992,153.58063 42.529655,48.140976 0 0 1 25.123337,105.43965 42.529655,48.140976 0 0 1 67.652992,57.298676 42.529655,48.140976 0 0 1 110.18265,105.43965 Z" />
  </g>
  <g
     inkscape:groupmode="layer"
     id="layer7"
     inkscape:label="layer3"
     style="display:inline"
     sodipodi:insensitive="true">
    <g
       aria-label="Rogue Trader"
       style="font-style:normal;font-variant:normal;font-weight:normal;font-stretch:extra-condensed;font-size:58.64912796px;line-height:1.25;font-family:Algerian;-inkscape-font-specification:'Algerian, Extra-Condensed';font-variant-ligatures:normal;font-variant-caps:normal;font-variant-numeric:normal;font-feature-settings:normal;text-align:start;letter-spacing:0px;word-spacing:0px;writing-mode:lr-tb;text-anchor:start;display:inline;fill:#000000;fill-opacity:1;stroke:none;stroke-width:4.32160664"
       id="text4048"
       transform="translate(2.1381562,-54.483548)">
      <g
         inkscape:groupmode="layer"
         id="layer6"
         inkscape:label="Layer 3" />
      <g
         aria-label="Rogue Trader"
         style="font-style:normal;font-variant:normal;font-weight:normal;font-stretch:normal;font-size:144.56097412px;line-height:1.25;font-family:Parchment;-inkscape-font-specification:'Parchment, Normal';font-variant-ligatures:normal;font-variant-caps:normal;font-variant-numeric:normal;font-feature-settings:normal;text-align:start;letter-spacing:0px;word-spacing:0px;writing-mode:lr-tb;text-anchor:start;fill:#000000;fill-opacity:1;stroke:none;stroke-width:26.030653"
         id="text12">
        <path
           id="path272"
           transform="matrix(0.26458333,0,0,0.26458333,-2.1381562,54.483547)"
           style="font-style:normal;font-variant:normal;font-weight:normal;font-stretch:normal;font-size:144.56097412px;font-family:Parchment;-inkscape-font-specification:'Parchment, Normal';font-variant-ligatures:normal;font-variant-caps:normal;font-variant-numeric:normal;font-feature-settings:normal;text-align:start;writing-mode:lr-tb;text-anchor:start;fill:#000000;stroke-width:98.38356781"
           d="m 240.4375,188.74414 c -17.21796,4.9e-4 -35.1601,7.03916 -47.73633,18.89648 -8.63615,8.04189 -14.49212,18.56453 -18.06445,29.6836 -33.3403,18.68179 -59.21304,44.88403 -72.37891,77.72461 -15.570778,6.42108 -29.636685,16.07415 -40.792966,28.66992 a 32.391208,32.391208 0 0 0 -0.02148,0.0234 c -14.292181,16.16659 -24.396484,35.98293 -24.396484,57.73437 0,20.47911 7.673098,41.24146 21.472656,56.44922 5.364643,5.91201 11.959471,10.46503 18.957031,14.33399 -4.107828,2.48776 -8.368952,4.70352 -12.238281,7.59765 -28.144063,21.05087 -45.798828,53.28891 -45.798828,87.5625 0,37.13583 17.348572,72.05735 47.097656,93.86133 0.0045,0.003 0.0091,0.004 0.01367,0.008 28.373911,20.83242 62.828686,31.35156 99.457026,31.35156 0.21789,0 0.43828,-0.0391 0.65625,-0.0391 3.48973,13.6611 9.58889,26.57208 19.00196,37.05078 15.10602,16.81614 38.11211,26.48633 60.64257,26.48633 19.72984,0 39.87254,-8.16978 54.01172,-21.95508 11.42938,-11.02257 19.2344,-26.25532 21.93164,-42.15039 9.90551,1.97908 20.10674,3.01172 30.50196,3.01172 36.64325,0 70.21241,-9.51411 96.23828,-30.28711 13.93311,-11.12092 24.47427,-25.5421 31.54297,-41.53906 a 32.391208,32.391208 0 0 0 26.3164,-12.02344 c 5.32691,-6.6226 13.95372,-16.00818 25.4961,-27.38086 4.0275,-3.96824 7.22858,-7.85178 10.71875,-11.75195 1.71696,2.83502 3.46462,5.63753 5.45507,8.2832 l 11.07422,-15.92968 a 32.391208,32.391208 0 0 0 -5.78711,18.47656 c 0,0.17008 0.11341,0.47129 0.11719,0.64844 -0.755,0.51703 -1.44381,1.09206 -2.16211,1.64648 0.85478,1.00414 2.02571,1.70532 2.92188,2.67383 0.0952,0.67117 0.21222,1.30919 0.35547,2.02148 l -4.59961,-3.68359 c -0.73932,0.61466 -1.61328,1.10282 -2.30274,1.75781 a 32.391208,32.391208 0 0 0 -0.58984,0.58203 c -9.61777,9.61777 -14.55078,24.12694 -14.55078,36.23828 7e-5,17.84474 11.10266,36.68512 25.0625,46.21875 a 32.391208,32.391208 0 0 0 0.29492,0.20703 c 13.29165,8.86107 29.29205,12.90235 44.91015,12.90235 25.56628,0 50.56324,-10.69761 69.00586,-28.64844 9.82421,-9.5622 17.40425,-21.18436 22.53711,-33.77344 2.09602,0.36511 4.49763,1.06446 6.09766,1.06446 a 32.391208,32.391208 0 0 0 25.12109,-11.94532 c 1.86679,-2.29462 3.46358,-3.29229 5.28516,-5.31445 a 32.391208,32.391208 0 0 0 1.0332,1.71289 l 1.0625,1.60156 a 32.391208,32.391208 0 0 0 53.03321,1.34375 c 2.17141,-2.93782 5.90725,-6.66815 8.74609,-9.95898 2.15652,7.79441 6.36135,16.32459 12.91992,20.70703 8.69348,5.80898 15.38221,5.85352 19.78906,5.85352 a 32.391208,32.391208 0 0 0 30.70899,-22.21875 c 1.65528,-1.37942 3.86312,-3.28352 7.2207,-5.28516 a 32.391208,32.391208 0 0 0 0.57422,-0.35547 c 9.9123,-6.19517 17.66731,-11.43909 24.28711,-16.91211 3.30988,-2.73649 6.35611,-5.42366 9.69922,-9.53711 3.34314,-4.11348 8.98437,-9.65629 8.98437,-23.96093 0,-4.40682 -0.0475,-11.0669 -5.8164,-19.74024 -2.70648,-4.06915 -7.21966,-7.54781 -12.08399,-10.18555 3.39107,-3.80356 6.66649,-7.65601 9.4336,-12.40234 5.5237,-9.35119 9.52929,-20.46845 9.52929,-32.64258 0,-16.61276 -8.58013,-30.66551 -19.73828,-41.3164 -0.44511,-4.53366 -1.57598,-9.91325 -6.36328,-16.28516 -6.49406,-8.64359 -19.36996,-13.46289 -27.0918,-13.46289 a 32.391208,32.391208 0 0 0 -28.96679,17.90039 c -1.53294,3.0658 -4.39524,7.10757 -9.34571,11.81055 a 32.391208,32.391208 0 0 0 -0.41211,0.40625 c -2.66339,2.62242 -4.78891,5.43033 -7.26367,8.12109 l -1.01172,-1.01172 a 32.391208,32.391208 0 0 0 -10.46093,-6.99219 c -0.70965,-5.89545 -2.67717,-13.30669 -9.06446,-19.73828 -7.8907,-7.94536 -18.23255,-9.96484 -24.17578,-9.96484 a 32.391208,32.391208 0 0 0 -27.77148,15.72266 c -3.17828,5.29712 -5.80212,7.66048 -6.45117,8.12109 a 32.391208,32.391208 0 0 0 -0.0293,0.0137 c -0.62037,0.44115 -0.92752,0.77894 -1.5293,1.21094 a 32.391208,32.391208 0 0 0 -1.85156,-3.21094 l -1.07031,-1.60156 a 32.391208,32.391208 0 0 0 -26.92969,-14.38672 c -9.62642,0 -12.13561,2.18046 -14.46875,3.26953 -2.33314,1.08907 -3.68479,1.93594 -4.92383,2.72461 -2.47816,1.57735 -4.30412,2.95871 -6.36328,4.56055 -2.29799,1.7876 -5.46572,4.56665 -8.24609,6.91797 a 32.391208,32.391208 0 0 0 -5.17383,-14.46875 l -1.0625,-1.60157 a 32.391208,32.391208 0 0 0 -51.19336,-3.60937 c -2.21072,2.48704 -12.28345,11.45979 -27.49805,22.61719 -8.52765,6.17089 -16.02586,12.39138 -22.72851,18.9707 -2.93575,-4.80854 -6.20567,-9.36215 -9.94336,-13.51563 0.28989,-1.80744 0.70898,-3.06218 0.70898,-6.01562 a 32.391208,32.391208 0 0 0 -5.45703,-17.99805 l -1.07031,-1.60156 a 32.391208,32.391208 0 0 0 -54.35938,0.77539 c -1.66015,2.64397 -8.82761,11.09686 -20.5957,21.41406 l 0.18555,-0.16992 c -15.43601,13.32151 -27.80093,27.91775 -35.81836,44.72852 -0.0896,0.18784 -0.11821,0.39373 -0.20703,0.58203 -6.70492,-4.75797 -13.72015,-8.81887 -21.0293,-12.30469 1.46665,-1.8621 3.18314,-3.51384 4.56055,-5.44922 17.88257,-25.12618 27.07812,-55.26303 27.07812,-86.80273 0,-37.85503 -16.85335,-73.57775 -45.47266,-101.56836 -25.78691,-25.37412 -59.35647,-41.55034 -97.49218,-49.7461 -14.74885,-18.55375 -36.40081,-31.80785 -59.89649,-31.80859 z m 913.998,14.14258 c -24.8745,0 -49.4479,5.62797 -72.5644,16.33008 a 32.391208,32.391208 0 0 0 -0.1035,0.0508 c -18.7403,8.75709 -34.9378,20.88307 -47.4571,35.94336 -31.6262,6.67903 -60.36249,18.9783 -84.42769,37.77929 a 32.391208,32.391208 0 0 0 -0.0957,0.0742 c -28.15574,22.16984 -46.22461,53.97933 -46.22461,88.14063 0,30.75273 12.54729,60.81448 36.28125,79.21484 3.93041,3.04721 8.29383,5.37494 12.58594,7.82422 -3.13338,2.74825 -6.43599,5.29358 -9.31641,8.33398 -20.72954,21.88124 -32.88476,50.34898 -32.88476,79.90235 0,30.46756 11.78771,59.98292 33.9707,79.87109 16.41978,14.72119 37.00229,23.80649 59.10738,27.34375 6.7819,19.92586 19.2183,37.92771 36.6133,50.53516 a 32.391208,32.391208 0 0 0 0.1192,0.082 c 25.4587,18.28399 56.6472,27.15039 89.8593,27.15039 29.2396,0 57.2443,-8.4014 80.2481,-25.03125 23.1465,-16.56321 39.6406,-42.7114 39.6406,-70.84375 0,-2.31005 -0.7971,-4.53148 -1.0195,-6.83008 16.9589,-9.57479 31.9128,-21.06781 43.9082,-35.0625 5.9345,-6.9236 10.7402,-14.52009 14.9785,-22.36719 a 32.391208,32.391208 0 0 0 9.2187,9.34571 l 1.6036,1.0625 a 32.391208,32.391208 0 0 0 5.0117,2.6875 32.391208,32.391208 0 0 0 5.2109,13.98828 l 1.0703,1.59375 a 32.391208,32.391208 0 0 0 52.7285,1.48437 c 4.9673,-6.56961 8.918,-10.94935 9.7735,-11.75976 0.8639,-0.8185 6.0086,-5.00082 13.5683,-10.25977 a 32.391208,32.391208 0 0 0 0.3848,-0.27343 c 1.4323,-1.02754 2.3083,-1.7758 3.5566,-2.69532 -0.4358,2.36678 -1.2031,3.59399 -1.2031,7.32227 0,5.05436 0.8398,13.54763 7.8555,21.95508 7.0157,8.40748 18.9282,12.03125 25.8652,12.03125 a 32.391208,32.391208 0 0 0 26.3907,-13.60352 l 1.3281,-1.86914 a 32.391208,32.391208 0 0 0 0.8359,-1.23242 c 0.8424,-1.30715 2.4249,-3.05553 4.0371,-4.79688 l 0.066,0.13282 a 32.391208,32.391208 0 0 0 52.9141,7.32226 c 8.2245,-9.03352 14.5756,-14.43748 18.543,-17.33203 2.2297,5.9348 5.4974,11.84251 10.623,15.69336 8.6438,6.49387 16.284,6.88672 21.0527,6.88672 a 32.391208,32.391208 0 0 0 26.959,-14.4375 l 1.6016,-2.4082 a 32.391208,32.391208 0 0 0 3.3574,-6.56446 c 0.066,-0.0615 1.0402,-1.45408 4.9473,-3.88672 a 32.391208,32.391208 0 0 0 0.2793,-0.17773 c 8.1433,-5.18653 15.3923,-11.26591 22.125,-17.70899 1.5058,2.34414 2.9533,4.71151 4.664,6.90235 -0.9182,3.65949 -1.6093,7.53225 -1.6093,12.03125 0,8.61097 6.2987,22.32383 14.9921,28.13281 8.6935,5.80898 15.3842,5.85352 19.7911,5.85352 a 32.391208,32.391208 0 0 0 30.7089,-22.21875 c 1.6553,-1.37942 3.8632,-3.28352 7.2208,-5.28516 a 32.391208,32.391208 0 0 0 0.5742,-0.35547 c 4.4081,-2.75508 7.1571,-5.03943 10.8008,-7.52148 l 0.5527,0.36914 a 32.391208,32.391208 0 0 0 5.0137,2.6875 32.391208,32.391208 0 0 0 5.1523,13.90625 l 1.0625,1.5957 a 32.391208,32.391208 0 0 0 52.7871,1.56445 c 4.9672,-6.56949 8.9178,-10.9492 9.7735,-11.75976 0.8468,-0.80224 6.0089,-4.9956 13.5761,-10.25977 a 32.391208,32.391208 0 0 0 0.3848,-0.27343 c 4.4054,-3.16041 7.8267,-5.70519 10.9473,-8.28321 1.5603,-1.28897 2.99,-2.47208 5.0566,-4.6289 1.0332,-1.07838 2.2423,-2.3142 4.0215,-4.94532 1.7792,-2.63111 5.7441,-6.07942 5.7441,-18.5957 a 32.391208,32.391208 0 0 0 -5.4551,-17.99609 l -1.0703,-1.60157 a 32.391208,32.391208 0 0 0 -21.2226,-13.8789 v -10.75586 c 0.1746,0.001 0.2589,0.0527 0.4355,0.0527 8.9598,0 17.5832,-2.72125 24.4121,-6.5625 a 32.391208,32.391208 0 0 0 0.545,-0.31054 c 8.355,-4.91483 14.2743,-11.45267 18.8769,-18.20313 l -0.1699,0.25 c 2.7507,-3.9541 5.873,-8.38742 9.3672,-13.2793 a 32.391208,32.391208 0 0 0 6.0312,-18.82421 c 0,-5.94324 -1.992,-16.20882 -9.8847,-24.10157 -4.2527,-4.25261 -9.0729,-6.62198 -13.6563,-8.06054 a 32.391208,32.391208 0 0 0 -0.3242,-0.50977 l -1.0703,-1.60156 a 32.391208,32.391208 0 0 0 -51.1133,-3.5 c -0.5964,-0.70798 -1.0027,-1.47029 -1.6836,-2.14649 -7.9454,-7.8907 -18.1507,-9.80468 -24.0195,-9.80468 a 32.391208,32.391208 0 0 0 -29.3067,18.5957 c -1.0049,2.13543 -2.2194,2.8198 -3.2773,4.25976 -1.0122,-2.79832 -1.9083,-5.59687 -4.2813,-8.77734 -6.4741,-8.67708 -19.4366,-13.54687 -27.1582,-13.54687 a 32.391208,32.391208 0 0 0 -28.9668,17.90234 c -1.5247,3.04959 -4.3949,7.09986 -9.3535,11.81055 a 32.391208,32.391208 0 0 0 -0.4121,0.40625 c -2.0027,1.97185 -3.5657,4.09495 -5.4629,6.10547 -7.4179,-13.22476 -17.101,-25.31307 -29.9922,-37.36719 -9.2508,-8.65013 -14.3563,-14.66945 -16.4922,-16.88281 3.3242,-4.17627 6.4747,-9.73495 6.4747,-20.28516 0,-5.9438 -1.9924,-16.20923 -9.8848,-24.10156 -7.8924,-7.89237 -18.1578,-9.88477 -24.1016,-9.88477 -11.227,0 -16.3489,3.88388 -19.8203,6.23633 -3.4714,2.35242 -5.4675,4.32108 -7.3008,6.20117 -3.6666,3.76018 -6.402,7.33245 -9.5,11.60547 a 32.391208,32.391208 0 0 0 -0.09,0.11719 c -8.8068,12.26661 -13.5449,27.69884 -13.5449,42.63867 0,11.91636 1.3653,23.4525 6.7695,35.0332 a 32.391208,32.391208 0 0 0 0.582,1.18946 c 1.4789,2.85906 3.7728,5.35967 5.5215,8.08203 -0.1466,0.15004 -0.2583,0.32985 -0.4043,0.48047 -2.2778,-2.19893 -4.5142,-3.97294 -6.416,-4.92383 -3.7826,-1.89128 -6.5904,-2.72005 -8.9688,-3.18164 0.093,-1.44798 0.4571,-1.44788 0.4571,-3.33594 a 32.391208,32.391208 0 0 0 -9.5586,-22.98047 l -1.0703,-1.0625 a 32.391208,32.391208 0 0 0 -48.1602,2.79688 c -6.8807,8.6375 -13.4528,15.2198 -19.5762,20.30859 -0.5123,-0.59547 -0.8449,-1.24339 -1.4179,-1.81641 -4.2526,-4.25261 -9.0729,-6.62198 -13.6563,-8.06054 a 32.391208,32.391208 0 0 0 -0.2656,-0.42188 l -1.0625,-1.60156 a 32.391208,32.391208 0 0 0 -51.1641,-3.59375 c -0.5735,-0.68017 -0.957,-1.41601 -1.6093,-2.06836 -7.9439,-7.94419 -18.2329,-9.87695 -24.1016,-9.87695 a 32.391208,32.391208 0 0 0 -16.5352,4.57812 c -0.784,-1.32026 -1.3957,-2.73522 -2.2441,-4.01758 -3.9987,-6.20398 -8.8896,-11.7196 -14.1738,-16.85156 4.8288,-11.59506 7.4414,-24.09047 7.4414,-36.69531 0,-25.03404 -8.9725,-49.38996 -23.8887,-71.65625 -15.761,-23.52722 -38.3561,-42.00062 -65.4336,-54.92188 l -0.029,-0.0156 c -27.609,-13.25469 -58.9165,-19.44336 -92.7012,-19.44336 z m -913.99409,18.24414 c 17.25198,0 30.85649,9.42661 40.8164,28.2793 38.95037,6.04706 70.25343,20.72045 93.90821,44.01953 23.83264,23.29907 35.75,49.44313 35.75,78.43359 0,25.61119 -7.02558,48.28731 -21.07618,68.0293 -14.05057,19.74196 -33.88293,34.77227 -59.49414,45.08789 6.75852,-1.42284 14.67353,-2.13477 23.74414,-2.13477 27.03406,0 51.04429,9.78161 72.03125,29.34571 21.1648,19.56412 31.74805,41.79553 31.74805,66.69531 0,24.89975 -9.69382,45.08711 -29.08008,60.56055 -19.38625,15.47343 -44.73062,23.21093 -76.0332,23.21093 -17.25198,0 -32.90254,-3.20267 -46.95313,-9.60547 -13.87273,-6.40279 -24.54373,-13.60587 -32.01367,-21.60937 -7.29207,-8.0035 -10.93945,-12.53833 -10.93945,-13.60547 l 1.06836,-1.06641 1.33398,1.59961 c 21.34267,27.2119 49.97749,40.81836 85.9043,40.81836 28.8126,0 52.55562,-7.47029 71.23047,-22.41015 18.85269,-14.76201 28.2793,-34.76991 28.2793,-60.02539 0,-23.65481 -9.69383,-44.73156 -29.08008,-63.22852 -19.38626,-18.67485 -42.86207,-28.01172 -70.42969,-28.01172 -8.98793,0 -19.02787,1.22514 -30.11133,3.66992 l 0.23047,0.86524 c 1.24499,4.62425 2.66883,11.82733 4.26953,21.60937 1.77856,9.60421 3.64515,16.98479 5.60156,22.14258 1.95642,5.15782 5.42435,9.42739 10.4043,12.80664 5.15782,3.20141 10.67179,4.80078 16.54102,4.80078 5.86923,0 11.20572,-3.02322 16.00781,-9.07031 l 1.59961,-1.59961 0.80078,1.06641 c 0,1.95641 -3.02322,6.04655 -9.07031,12.27148 -5.86923,6.04709 -13.78423,12.09549 -23.74414,18.14258 -9.9599,6.04707 -19.47429,12.626 -28.54493,19.74023 10e-6,-0.88927 1.77883,-2.93335 5.33594,-6.13476 3.55711,-3.20139 8.00223,-6.93653 13.33789,-11.20508 l -3.20117,-2.40039 c -10.49347,-6.4028 -17.96377,-14.23001 -22.41016,-23.47852 -4.26853,-9.42634 -7.46924,-19.65263 -9.60351,-30.67968 -1.95641,-11.02703 -3.20081,-17.5182 -3.73438,-19.47461 -6.93636,3.20138 -14.76359,7.73624 -23.47851,13.60547 v 20.27539 c 4.44639,4.44638 6.66992,7.20434 6.66992,8.27148 l -0.5332,1.06641 c -2.66783,-3.02355 -4.71388,-5.24708 -6.13672,-6.66992 v 31.74804 c 0,2.84568 -0.44471,4.26758 -1.33399,4.26758 -0.88927,0 -1.33398,-1.4219 -1.33398,-4.26758 V 532.4668 c -1.77856,-2.13428 -5.24649,-5.60221 -10.4043,-10.4043 -1.77855,1.77854 -3.37793,3.29015 -4.80078,4.53516 l -1.06836,-0.53321 c 1.06714,-1.6007 2.49098,-3.28981 4.26953,-5.06836 -7.46993,-7.46993 -16.89654,-14.22829 -28.27929,-20.27539 -3.2014,7.46994 -6.49184,13.69388 -9.8711,18.67383 17.42984,9.24848 26.14453,20.89862 26.14453,34.94922 0,12.09416 -3.37821,21.16384 -10.13671,27.21094 -6.58066,6.22495 -11.56216,9.33789 -14.94141,9.33789 l -1.59961,-0.5332 1.59961,-1.86719 c 5.86923,-4.26855 8.80469,-10.49444 8.80469,-18.67578 0,-11.91633 -8.0925,-22.14262 -24.27735,-30.67969 -21.16481,24.36621 -42.59655,36.54883 -64.29492,36.54883 -13.87273,0 -25.16594,-3.29044 -33.88086,-9.8711 -8.714921,-6.58063 -13.072264,-14.58342 -13.072264,-24.00976 0,-6.93637 2.221579,-12.71755 6.667969,-17.3418 4.624245,-4.80209 10.405425,-7.20312 17.341795,-7.20312 5.15781,0 9.60488,1.60134 13.33985,4.80273 3.73496,3.02355 5.60156,6.8484 5.60156,11.47266 0,5.15779 -1.60134,9.42543 -4.80274,12.80468 -3.20139,3.20141 -7.02431,4.80274 -11.4707,4.80274 -6.04709,0 -11.73855,-2.93546 -17.07422,-8.80469 l -1.86719,-1.59961 -0.800777,2.66797 c 0,9.60421 3.557657,16.98476 10.671877,22.14258 7.11422,4.97995 17.07331,7.46875 29.8789,7.46875 9.24849,0 19.47479,-3.11098 30.67969,-9.33594 11.2049,-6.4028 21.34343,-15.11943 30.41406,-26.14648 -10.84918,-6.4028 -18.22975,-12.35953 -22.14257,-17.87305 -3.73497,-5.51353 -5.60352,-11.8272 -5.60352,-18.94141 0,-5.15782 1.24635,-10.58402 3.73633,-16.27539 -2.31212,-0.35573 -6.13699,-0.5332 -11.47266,-0.5332 -30.94686,0 -56.29124,7.47029 -76.033201,22.41016 -19.564109,14.762 -29.345703,35.12683 -29.345703,61.09375 0,26.67832 10.581286,48.19783 31.746094,64.56054 21.16481,16.36271 46.95389,24.54492 77.36719,24.54492 8.53706,0 17.69841,-0.88942 27.48047,-2.66796 3.02354,-11.73846 8.35807,-21.43228 16.00586,-29.08008 7.64778,-7.6478 15.2078,-11.47071 22.67773,-11.47071 7.29208,0 10.9375,3.29044 10.9375,9.8711 0,6.93636 -3.91264,13.25002 -11.73828,18.9414 -7.82565,5.69137 -18.6761,10.13844 -32.54883,13.33985 -0.71142,5.69136 -1.06641,10.04872 -1.06641,13.07226 0,15.11774 4.17986,27.56757 12.53907,37.34961 8.35921,9.78205 19.47492,14.67188 33.34765,14.67188 11.73847,0 21.60979,-4.00041 29.61328,-12.00391 8.0035,-8.0035 12.00586,-17.51985 12.00586,-28.54687 0,-6.75853 -1.95827,-12.71721 -5.87109,-17.875 -3.91282,-5.15782 -8.18044,-7.73633 -12.80469,-7.73633 -2.84569,0 -4.62451,0.80164 -5.33593,2.40234 -0.71143,1.60071 -1.06641,4.0895 -1.06641,7.46875 0,2.84568 -1.15663,4.26953 -3.46875,4.26953 -2.84569,0 -4.26758,-1.42385 -4.26758,-4.26953 0,-2.84568 1.42189,-5.60169 4.26758,-8.26953 3.02354,-2.48998 6.31398,-3.73633 9.87109,-3.73633 5.69138,0 10.58315,2.84572 14.67383,8.53711 4.09068,5.86923 6.13477,12.45012 6.13477,19.74219 0,11.73846 -4.44512,21.87699 -13.33789,30.41406 -8.71493,8.53707 -19.20844,12.80469 -31.48047,12.80469 -14.93987,0 -27.12444,-5.24675 -36.55078,-15.74023 -9.42635,-10.49348 -14.13868,-23.83274 -14.13868,-40.01758 0,-2.13428 0.35499,-5.77971 1.06641,-10.9375 -10.49348,2.13425 -20.71978,3.20117 -30.67969,3.20117 -30.76901,0 -57.53527,-8.35776 -80.300779,-25.07617 -22.587651,-16.54058 -33.882812,-39.12894 -33.882812,-67.76367 0,-24.72192 10.938222,-45.26425 32.814453,-61.62696 21.876228,-16.36271 48.110018,-24.54492 78.701168,-24.54492 3.91283,0 8.98209,0.35693 15.20704,1.06836 3.5571,-6.40282 7.55946,-11.56179 12.00585,-15.47461 4.62425,-3.91282 7.38026,-5.86914 8.26954,-5.86914 l 1.60156,1.06836 -1.86914,1.86719 c -7.11422,5.15782 -10.66992,11.29397 -10.66992,18.4082 v 1.59961 c 11.91632,2.13427 23.03203,5.78163 33.34765,10.93945 1.06714,-6.04709 1.59961,-11.91798 1.59961,-17.60937 0,-20.45337 -4.1779,-40.37156 -12.53711,-59.75781 -8.18135,-19.38626 -19.65401,-34.23712 -34.41601,-44.55274 v 1.59961 c 0,20.27555 7.55806,36.46053 22.67578,48.55469 l 1.86914,1.86718 -1.06836,1.06836 c -2.31212,0 -7.38139,-4.80206 -15.20703,-14.40625 -7.64779,-9.6042 -11.47071,-22.32125 -11.47071,-38.15039 v -2.13476 c -11.38275,-6.58066 -23.30011,-9.8711 -35.75,-9.8711 -4.09067,0 -7.1139,0.1775 -9.07031,0.53321 0,30.94687 6.84809,55.93624 20.54297,74.96679 1.77856,-1.42286 4.17958,-3.82387 7.20313,-7.20312 l 1.0664,1.06641 c 0,1.06713 -2.13381,3.82509 -6.40234,8.27148 4.62424,5.69136 10.58292,11.11562 17.875,16.27344 l -0.5332,1.33398 c -8.35921,-5.33566 -14.7626,-10.67213 -19.20899,-16.00781 -8.71492,6.58066 -19.03094,9.87109 -30.94727,9.87109 -14.58415,0 -26.23234,-4.80206 -34.947261,-14.40625 -8.71492,-9.6042 -13.074218,-21.16461 -13.074218,-34.68164 0,-11.91632 5.426203,-24.01118 16.27539,-36.2832 11.027044,-12.44989 25.076259,-20.63015 42.150389,-24.54297 9.24849,-36.46037 34.32761,-63.93856 75.23438,-82.43555 0.71142,-11.38275 4.62406,-20.36465 11.73828,-26.94531 7.11422,-6.7585 15.65142,-10.13867 25.61133,-10.13867 z m -0.53516,2.66797 c -8.53707,0 -16.0054,3.11293 -22.4082,9.33789 -6.22495,6.04707 -9.33789,13.69485 -9.33789,22.94336 15.65128,-5.86923 30.41242,-8.80469 44.28515,-8.80469 9.07063,0 17.78532,0.53445 26.14453,1.60156 -9.24849,-16.71841 -22.14303,-25.07812 -38.68359,-25.07812 z m 914.53325,11.47265 c 29.8797,0 56.1135,5.42426 78.7011,16.27344 22.7655,10.84919 40.2846,25.43284 52.5567,43.75196 12.272,18.31911 18.4082,36.1932 18.4082,53.62304 0,17.42985 -6.3137,32.54792 -18.9414,45.35352 13.3391,5.86923 23.6552,14.49615 30.9472,25.8789 7.47,11.20492 11.2051,23.92001 11.2051,38.14844 0,5.77324 -0.9339,11.28051 -2.7969,16.52149 2.9419,-4.37927 9.64,-10.58975 20.1367,-18.6543 7.2921,-5.51353 13.0733,-12.80632 17.3418,-21.87695 1.0672,0 1.5997,0.53442 1.5997,1.60156 0,1.24497 -2.3113,5.60233 -6.9356,13.07226 10.1378,9.07064 15.207,16.18398 15.207,21.3418 v 7.4707 c 8.0035,-9.07064 15.6513,-16.54092 22.9434,-22.41015 7.4699,-5.86923 13.1614,-12.53983 17.0742,-20.00977 l 1.0664,1.60156 -4.0019,8.80274 c 0,1.06714 1.6013,2.66848 4.8027,4.80273 3.3793,2.13428 6.3128,3.20117 8.8027,3.20117 2.3122,10e-6 4.7132,-1.24439 7.2032,-3.73437 1.0671,0 1.6015,0.53443 1.6015,1.60156 -3.5571,4.97996 -6.7578,9.51481 -9.6035,13.60547 -2.6678,3.91285 -5.5136,6.75857 -8.5371,8.53711 -2.8457,1.60071 -5.6914,2.40039 -8.5371,2.40039 -3.5571,0 -9.0711,-3.29043 -16.541,-9.87109 -0.8893,0 -3.0231,1.77882 -6.4024,5.33593 -3.3792,3.37926 -6.6697,7.82632 -9.8711,13.33985 v 58.42578 c 0,3.20141 2.1339,6.48989 6.4024,9.86914 4.2685,3.37925 7.3815,5.07031 9.3379,5.07031 1.245,0 4.8904,-2.40103 10.9375,-7.20312 l 1.0664,1.59961 c 0,0.88927 -4.0901,4.26944 -12.2715,10.13867 -8.1813,5.69139 -13.9606,10.1365 -17.3398,13.33789 -3.3793,3.20141 -7.8264,8.44817 -13.3399,15.74023 l -1.0664,-1.5996 c 0,-0.88928 1.1547,-2.93534 3.4668,-6.13672 2.3121,-3.02355 3.4688,-5.15735 3.4687,-6.40235 0,-1.24497 -2.046,-4.26819 -6.1367,-9.07031 -3.9128,-4.80209 -7.6479,-7.20312 -11.205,-7.20312 -1.6008,0 -4.5343,1.06689 -8.8028,3.20117 l -1.6015,-1.06641 c 0,-0.88927 2.7579,-2.66809 8.2714,-5.33594 5.6914,-2.84568 8.5372,-7.29275 8.5372,-13.33984 v -61.62695 c 0,-3.91282 -1.7789,-7.64797 -5.336,-11.20508 -3.3792,-3.55712 -5.9578,-5.33594 -7.7363,-5.33594 -2.8457,0 -7.56,4.80204 -14.1406,14.40625 -1.0672,0 -1.5996,-0.70997 -1.5997,-2.13281 0,-0.0229 0.01,-0.0492 0.01,-0.0723 -1.7309,3.72231 -3.953,7.30384 -6.6778,10.74219 -7.4699,9.42634 -17.7859,16.54163 -30.9472,21.34375 2.4899,5.69136 3.7343,12.27225 3.7343,19.74219 0,18.31912 -6.9358,35.57099 -20.8086,51.75586 -13.8727,16.18484 -33.1706,29.16717 -57.8925,38.94922 4.8021,7.64779 7.2031,15.65251 7.2031,24.01171 0,17.25199 -8.7147,32.10285 -26.1445,44.55274 -17.4299,12.62775 -37.8825,18.9414 -61.3594,18.9414 -27.7455,0 -51.4007,-7.02557 -70.9649,-21.07617 -19.3862,-14.05059 -29.08,-32.54689 -29.08,-55.49023 -0.8893,0.3557 -2.6662,0.5332 -5.334,0.5332 -23.6548,0 -43.21995,-6.93586 -58.69338,-20.80859 -15.47344,-13.87273 -23.21094,-32.45874 -23.21094,-55.75781 0,-21.52053 8.00472,-40.73068 24.01172,-57.62696 16.007,-16.89627 36.7268,-27.92228 62.1602,-33.08008 0.7114,-5.69138 1.4233,-9.87124 2.1347,-12.53906 h -5.8691 c -27.74548,0 -49.53416,-6.13615 -65.3633,-18.4082 -15.82917,-12.27203 -23.74219,-30.14611 -23.74219,-53.62305 0,-24.01048 11.2932,-44.90781 33.88086,-62.69336 22.76551,-17.78555 50.42123,-29.16848 82.96873,-34.14843 9.4264,-14.93987 23.655,-26.85723 42.6856,-35.75 19.2084,-8.89278 38.8613,-13.3379 58.959,-13.3379 z m 3.4687,8.80274 c -19.9198,0 -38.9505,3.55767 -57.0918,10.67187 -17.9634,6.93637 -31.7473,16.62824 -41.3516,29.07813 h 7.2032 c 0.3557,-1.42284 1.602,-2.13281 3.7363,-2.13281 1.6007,0 2.6676,0.88939 3.2012,2.66797 l 5.6015,0.79882 c 0.5336,-1.245 1.6005,-1.86718 3.2012,-1.86718 2.1343,0 3.2012,0.97913 3.2012,2.93554 l 4.5351,1.06641 c 0.8893,-1.95641 2.7578,-2.93359 5.6035,-2.93359 1.7786,0 3.8247,0.44471 6.1368,1.33398 2.3121,0.71141 4.3562,1.06641 6.1347,1.06641 1.0672,0 2.7563,-0.26724 5.0684,-0.80079 l 1.0683,1.86719 c 0,1.06714 -1.0668,1.60156 -3.2011,1.60156 l -5.8692,-0.26757 c -2.3121,0 -3.8237,0.44471 -4.5351,1.33398 4.2685,1.42287 7.2917,2.66922 9.0703,3.73633 0.8893,-0.71141 1.8665,-1.06836 2.9336,-1.06836 2.1343,0 3.2012,1.33414 3.2012,4.00195 l 5.8691,2.66797 c 15.1177,-12.80559 34.0607,-19.20898 56.8262,-19.20898 17.6077,0 34.5026,6.04841 50.6875,18.14257 16.1848,12.09419 24.2773,25.6987 24.2773,40.81641 0,11.73848 -5.6915,21.60978 -17.0742,29.61328 -11.2049,8.00348 -24.2769,12.00586 -39.2168,12.00586 -21.6984,0 -47.0428,-6.22591 -76.0332,-18.67578 -35.3933,16.54055 -55.9356,43.66377 -61.627,81.36914 9.96,-3.73495 20.1863,-9.51418 30.6797,-17.33984 l 1.0684,1.0664 c -12.2721,8.89278 -23.0328,15.29617 -32.2813,19.20899 -0.7114,6.40279 -1.0664,12.00452 -1.0664,16.80664 22.232,1.77854 39.1269,6.49283 50.6875,14.14062 11.7385,7.64778 17.6075,12.44984 17.6075,14.40625 l -1.0664,1.06641 -2.1348,-1.60156 c -16.8963,-14.93987 -38.5933,-23.20984 -65.0938,-24.81055 0.5336,28.8126 8.8036,51.31123 24.8106,67.49609 16.1849,16.00698 37.7941,24.01172 64.8281,24.01172 15.4734,0 30.414,-4.09209 44.8203,-12.27343 v -55.49024 c -2.8457,-2.48998 -4.6245,-4.17909 -5.3359,-5.06836 -0.7115,-1.06714 -2.0456,-2.66848 -4.002,-4.80273 -3.2014,1.95641 -7.3812,5.06937 -12.539,9.33789 l -1.0664,-0.80078 c 4.2685,-4.44639 8.2689,-7.82461 12.0039,-10.13672 -4.8021,-6.4028 -8.7148,-12.62869 -11.7383,-18.67578 -2.8457,-6.0471 -4.2676,-9.51503 -4.2676,-10.4043 l 1.0664,-1.60156 1.0664,2.13476 c 4.2686,10.13778 9.605,19.20939 16.0078,27.21289 0.8893,-0.71143 3.4678,-1.95778 7.7364,-3.73632 -0.8893,-2.13428 -1.334,-3.9131 -1.334,-5.33594 0,-2.31214 0.8016,-4.00125 2.4023,-5.06836 v -2.66797 c -4.0907,-0.88927 -6.1367,-3.11281 -6.1367,-6.66992 0,-3.91282 2.046,-5.86914 6.1367,-5.86914 v -2.66797 c -1.6007,-1.06714 -2.4023,-2.75622 -2.4023,-5.06836 0,-1.42284 0.3569,-3.28945 1.0683,-5.60156 0.8893,-2.48998 1.334,-5.15823 1.334,-8.00391 v -7.73633 c -4.4464,-0.71141 -7.3818,-1.60083 -8.8047,-2.66797 -1.4228,-1.245 -1.69,-1.86718 -0.8007,-1.86718 l 9.6054,1.86718 V 389.4707 c 0,-2.84568 0.5325,-4.26757 1.5996,-4.26758 1.0671,10e-6 1.6016,1.4219 1.6016,4.26758 v 27.7461 c 4.6242,1.42284 12.8045,2.13476 24.543,2.13476 9.782,0 20.098,-2.04603 30.9472,-6.13672 11.0271,-4.26852 20.7209,-10.2272 29.0801,-17.875 -9.2485,-3.91282 -19.742,-5.86914 -31.4805,-5.86914 -10.1377,0 -23.2995,3.02322 -39.4843,9.07032 l -1.0664,-0.53321 c 0,-1.06713 4.8898,-3.20093 14.6718,-6.40234 9.7821,-3.37925 18.409,-5.06836 25.8789,-5.06836 12.0942,0 23.3874,2.22353 33.8809,6.66992 12.272,-12.98343 18.4082,-27.38958 18.4082,-43.21875 0,-27.38973 -12.5395,-51.84666 -37.6172,-73.36719 -24.8997,-21.69836 -60.0257,-32.54687 -105.3789,-32.54687 z m -904.92968,11.47266 c -14.76201,0 -29.52315,2.5785 -44.28516,7.73632 2.13427,11.91632 7.38102,18.76247 15.74023,20.54102 2.31212,-3.91282 5.06813,-6.93606 8.26953,-9.07031 3.2014,-2.31214 5.95937,-3.4668 8.27149,-3.4668 5.33566,0 8.00391,1.51161 8.00391,4.53516 0,2.66784 -2.31326,5.15663 -6.9375,7.46875 -4.62425,2.31211 -9.4263,3.46875 -14.40625,3.46875 -0.71143,1.77857 -1.42335,5.2465 -2.13477,10.40429 11.02704,-4.44638 23.21162,-6.66992 36.55078,-6.66992 6.93637,0 15.02886,0.8894 24.27734,2.66797 l 0.53321,-10.4043 c 0.35571,-6.93636 -1.1559,-15.29608 -4.53516,-25.07812 -8.71492,-1.42287 -18.49847,-2.13282 -29.34765,-2.13281 z m 32.01562,2.66796 c 4.09068,10.31562 6.13477,21.78631 6.13477,34.41407 v 1.60156 c 22.23194,6.4028 39.84076,17.34102 52.82421,32.81445 13.1613,15.29557 19.74219,32.99216 19.74219,53.08985 0,14.58413 -4.89178,27.56644 -14.67383,38.94921 -9.78205,11.20489 -22.32161,17.34107 -37.61718,18.40821 l -21.3418,12.00586 c 14.05059,2.31211 24.0994,14.49473 30.14648,36.54883 26.50047,-8.53708 47.13251,-22.32102 61.89454,-41.35157 14.762,-19.20839 22.14257,-41.79675 22.14257,-67.76367 0,-29.52401 -10.76072,-55.13366 -32.28125,-76.83203 -21.5205,-21.87623 -50.51031,-35.83767 -86.9707,-41.88477 z m -81.36914,6.66797 c -38.23894,16.00701 -62.60613,41.08612 -73.09961,75.23438 4.97995,-0.71144 8.98232,-1.06836 12.00586,-1.06836 12.62774,0 24.09844,2.22353 34.41406,6.66992 8.35921,-21.69837 22.76732,-37.17144 43.22071,-46.41992 0.53356,-4.97996 1.60047,-9.33729 3.20117,-13.07227 -10.13777,-2.48998 -16.71865,-9.60529 -19.74219,-21.34375 z m 36.81641,9.33789 c -1.06714,0 -2.84597,0.8894 -5.33594,2.66797 -2.31212,1.77855 -4.35817,4.26929 -6.13672,7.47071 4.8021,0 8.80446,-0.97914 12.00586,-2.93555 3.2014,-2.13428 4.80078,-3.82336 4.80078,-5.06836 0,-1.42284 -1.77687,-2.13477 -5.33398,-2.13477 z m 936.94139,9.07032 c -21.5205,0 -39.3049,5.86896 -53.3555,17.60742 3.735,1.95641 11.8275,6.67069 24.2774,14.14062 12.6277,7.46994 23.6537,12.53919 33.0801,15.20703 9.4263,2.66785 18.3204,4.00196 26.6797,4.00196 4.4463,0 11.2047,-0.8894 20.2753,-2.66797 0,1.42284 -2.3132,2.84474 -6.9375,4.26758 -4.6242,1.42286 -9.4263,2.13476 -14.4062,2.13476 -7.6478,0 -16.0075,-1.33411 -25.0781,-4.00195 -9.0707,-2.66784 -20.2742,-8.00431 -33.6133,-16.00781 -13.1613,-8.18135 -21.7883,-13.33839 -25.8789,-15.47266 -3.3793,2.84571 -6.8472,6.66861 -10.4043,11.4707 l -0.5332,-1.0664 c 0,-1.77855 2.8457,-5.60148 8.5371,-11.47071 -2.1343,-1.42284 -3.7356,-2.31224 -4.8027,-2.66797 l -3.2012,1.06641 c -2.3122,0 -3.4688,-1.33411 -3.4688,-4.00195 -1.7785,-1.06714 -4.8895,-2.31154 -9.3359,-3.73438 -0.3557,1.42284 0.6215,3.20167 2.9336,5.33594 2.49,1.95641 3.7344,3.55578 3.7344,4.80078 l -1.0664,2.66797 c -2.8457,-3.91282 -5.4243,-6.1344 -7.7364,-6.66797 -5.8692,-1.6007 -8.3599,-4.53616 -7.4707,-8.80469 l -4.5351,-1.0664 c -0.5336,1.06714 -1.6005,1.59961 -3.2012,1.59961 -2.1342,0 -3.2012,-0.88943 -3.2012,-2.66797 l -5.6035,-0.5332 c -0.5336,1.06713 -1.6005,1.60156 -3.2012,1.60156 -1.7785,0 -2.8454,-0.71193 -3.2011,-2.13477 h -2.9336 c -3.0236,0 -5.1593,0.1775 -6.4043,0.53321 -6.9364,9.78207 -10.4043,20.45308 -10.4043,32.01367 v 8.27148 c 10.4935,-2.13425 21.0767,-3.20312 31.748,-3.20312 8.7149,0 18.2293,1.15663 28.545,3.46875 10.4934,2.31211 25.1668,7.73636 44.0195,16.27343 18.8527,8.53708 32.7263,13.87354 41.6191,16.00782 8.8928,1.95641 17.0731,2.93359 24.543,2.93359 10.8492,0 19.1191,-2.1338 24.8105,-6.40234 5.6914,-4.26853 8.5371,-9.95999 8.5371,-17.07422 0,-14.22844 -7.8252,-27.03326 -23.4765,-38.41602 -15.6513,-11.56061 -32.281,-17.34179 -49.8887,-17.34179 z m -126.1875,4.00195 c -31.8361,5.33566 -58.60433,16.63083 -80.30272,33.88281 -21.52051,17.25198 -32.2793,37.61486 -32.2793,61.0918 0,22.23194 7.64779,39.21855 22.94336,50.95703 15.29557,11.56059 36.46009,17.33984 63.49416,17.33984 h 6.6699 c 5.3357,-19.91982 15.8292,-37.70419 31.4805,-53.35547 15.6513,-15.65127 33.7028,-27.74613 54.1562,-36.2832 -29.524,-13.87273 -51.9349,-20.98802 -67.2304,-21.34375 3.9128,12.27205 11.6503,22.41056 23.2109,30.41406 l 1.8672,1.33399 -1.5996,0.5332 c -1.4229,0 -5.4253,-2.75601 -12.0059,-8.26953 -6.4028,-5.51352 -11.4721,-13.51824 -15.207,-24.01172 -20.6313,0 -37.3487,4.26957 -50.15432,12.80664 -12.80559,8.35921 -19.20898,19.20771 -19.20898,32.54688 0,10.13777 3.46793,17.78554 10.40429,22.94336 6.93637,5.15779 15.65101,7.73632 26.14451,7.73632 5.5135,0 12.6289,-2.756 21.3438,-8.26953 l 1.0664,1.06641 c 0,1.24498 -2.9355,3.38075 -8.8047,6.4043 -5.8692,3.02354 -12.2707,4.53515 -19.207,4.53515 -8.00354,0 -15.6513,-3.11296 -22.9434,-9.33789 -7.1142,-6.22496 -10.67187,-14.40717 -10.67187,-24.54492 0,-12.98346 6.13618,-24.63165 18.4082,-34.94727 12.27207,-10.31561 29.25667,-17.9634 50.95507,-22.94336 -0.3557,-1.6007 -0.5332,-4.71363 -0.5332,-9.33789 0,-10.31561 2.6682,-20.63165 8.0039,-30.94726 z m -790.21288,5.86914 c -13.16131,0 -24.98894,2.22353 -35.48242,6.66992 0,8.53707 1.51161,15.11796 4.53516,19.74219 3.20139,4.62425 7.02627,6.93555 11.47265,6.93555 3.91283,0 6.04664,-0.88943 6.40235,-2.66797 l -1.59961,-2.66602 c 0,-2.31211 0.88941,-3.46875 2.66797,-3.46875 2.31212,0 3.46679,1.33414 3.46679,4.00195 0,1.42287 -1.0669,2.93448 -3.20117,4.53516 -2.13427,1.60071 -4.71278,2.40039 -7.73633,2.40039 -6.04709,0 -11.11635,-2.57853 -15.20703,-7.73633 -4.09068,-5.33568 -6.13476,-11.64933 -6.13476,-18.9414 -19.38626,9.78204 -32.72551,24.90012 -40.01758,45.35351 23.29907,10.31562 40.81622,28.1897 52.55468,53.62305 3.91283,-7.29207 11.20563,-14.40739 21.87696,-21.34375 0.17786,-6.22496 1.157,-12.62637 2.93554,-19.20703 1.77856,-6.58064 6.58061,-16.3642 14.40626,-29.34766 7.82564,-13.16132 12.44825,-24.63201 13.87109,-34.41406 -8.89278,-2.31211 -17.16276,-3.46875 -24.81055,-3.46875 z m 29.61328,4.53516 c -0.71142,8.71491 -6.49065,22.49887 -17.33984,41.35156 -10.84919,18.85268 -16.18567,31.65947 -16.00781,38.41797 6.75851,-4.62423 17.42952,-10.85015 32.01367,-18.67578 14.58415,-8.00351 23.92104,-14.67213 28.01172,-20.00782 4.26853,-5.5135 7.02649,-11.38246 8.27148,-17.60742 1.06713,0 1.59961,0.53247 1.59961,1.59961 0,6.22493 -2.40102,12.00611 -7.20312,17.3418 -4.62425,5.15779 -6.93555,8.44825 -6.93555,9.87109 0,3.37928 4.00236,8.44658 12.00586,15.20508 8.18135,6.58066 13.51588,12.27213 16.00586,17.07422 2.48998,4.62425 3.73437,9.16103 3.73437,13.60742 0,13.33916 -10.0488,26.49896 -30.14648,39.48242 13.33916,-1.77857 24.27739,-7.91472 32.81445,-18.4082 8.71494,-10.67132 13.07227,-22.58673 13.07227,-35.74805 0,-20.09766 -6.22394,-37.43927 -18.67383,-52.02344 -12.44989,-14.762 -29.52428,-25.25553 -51.22266,-31.48046 z m -165.67187,64.82812 c -14.93987,1.95641 -26.67778,7.20319 -35.214846,15.74023 -8.537063,8.53708 -12.80664,18.94282 -12.80664,31.21485 0,11.38275 3.82487,20.71962 11.472656,28.01172 7.647788,7.29207 17.51715,10.9375 29.61133,10.9375 11.2049,0 20.809,-3.29043 28.8125,-9.8711 -14.58416,-19.20839 -21.875,-44.55278 -21.875,-76.0332 z m 1461.43947,0 c 1.0671,0 1.5996,0.53445 1.5996,1.60156 0,0.8893 -0.6222,1.9562 -1.8672,3.20117 -4.0907,3.91282 -6.1367,9.78179 -6.1367,17.60743 0,4.26854 1.2463,8.80337 3.7363,13.60547 2.6678,4.80209 10.8481,13.60649 24.543,26.4121 13.6948,12.8056 22.8542,24.45574 27.4785,34.94922 4.6242,10.49346 6.9375,20.89725 6.9375,31.21289 0,29.70188 -14.9406,54.06909 -44.8203,73.09961 -9.4264,5.86926 -15.4728,12.53788 -18.1406,20.00782 l -1.6016,2.40234 c -1.4228,0 -2.1348,-0.53443 -2.1348,-1.60156 0,-0.88927 1.3341,-4.00223 4.002,-9.33789 l -2.9336,-2.13282 c -19.2084,-12.98345 -28.8125,-31.56946 -28.8125,-55.75781 0,-14.762 4.1798,-28.36847 12.5391,-40.81836 8.3592,-12.62775 19.2974,-22.67655 32.8144,-30.14648 -1.7785,-2.48998 -5.1587,-6.58012 -10.1387,-12.27149 -4.8021,-5.69139 -8.5372,-11.11759 -11.205,-16.27539 -2.49,-5.33568 -3.7344,-12.44902 -3.7344,-21.34179 0,-8.89278 2.4888,-16.80778 7.4687,-23.74414 5.1579,-7.11421 8.6277,-10.67188 10.4063,-10.67188 z m -1299.50197,1.60156 c -1.77856,0 -6.93755,2.57851 -15.47461,7.73633 v 45.35352 c 9.78205,10.84918 21.60969,16.89562 35.48242,18.14062 7.64779,-7.11423 11.47266,-15.73917 11.47266,-25.87695 0,-4.62423 -0.97914,-9.15908 -2.93555,-13.60547 -1.95641,-4.44639 -6.49125,-9.16067 -13.60547,-14.14062 -7.11422,-5.15783 -12.09376,-11.02677 -14.93945,-17.60743 z m -18.14258,9.33789 -11.4707,7.20313 c 0.53356,12.62775 4.35648,23.74347 11.4707,33.34765 z m 871.04885,8.80274 2.6679,1.06836 -2.4023,1.86718 c -10.6713,6.75851 -16.0059,15.29569 -16.0059,25.61133 0,4.26853 1.067,8.62588 3.2012,13.07227 2.1343,4.26852 7.736,10.2272 16.8067,17.875 9.2484,7.46993 15.1174,14.04884 17.6074,19.74023 2.49,5.5135 3.7363,11.20497 3.7363,17.07422 0,12.98343 -5.6037,24.27861 -16.8086,33.88281 -11.027,9.42635 -21.0758,14.13868 -30.1465,14.13868 -6.9363,0 -12.9828,-1.86661 -18.1406,-5.60157 -4.98,-3.91284 -7.4707,-8.44962 -7.4707,-13.60742 0,-10.49348 5.2468,-15.74023 15.7402,-15.74023 3.5571,0 6.4029,1.42385 8.5371,4.26953 2.3122,2.84568 3.4688,6.13611 3.4688,9.87109 0,5.15782 -2.9355,8.98073 -8.8047,11.47071 l -1.5996,1.06835 c 0,1.06714 1.3341,2.04433 4.0019,2.9336 2.6679,0.88927 5.1567,1.33398 7.4688,1.33398 5.3357,0 10.8496,-2.84574 16.541,-8.53711 5.8692,-5.69139 8.8047,-11.56035 8.8047,-17.60742 0,-5.33568 -1.2463,-10.58244 -3.7363,-15.74023 -2.3122,-5.33569 -8.1811,-11.73908 -17.6074,-19.20899 -9.4264,-7.46993 -15.3831,-13.69387 -17.8731,-18.67383 -2.3121,-5.15782 -3.4687,-10.40457 -3.4687,-15.74023 0,-11.73848 5.157,-22.14228 15.4726,-31.21289 10.3157,-9.07064 16.9863,-13.60742 20.0098,-13.60742 z m -885.18752,0.5332 c -8.18136,5.51353 -15.11722,12.62882 -20.8086,21.34375 5.15781,11.91632 7.73633,23.92147 7.73633,36.01563 0,14.58416 -2.40102,29.87971 -7.20312,45.88672 11.91632,4.62422 23.38702,7.20275 34.41406,7.73632 v -26.94531 c -4.44639,0 -8.80373,2.58046 -13.07227,7.73828 l -1.0664,-1.06836 c 0,-2.84568 4.71233,-7.73551 14.13867,-14.67187 V 417.75 C 260.00383,407.07868 255.2915,395.42854 254.58008,382.80078 Z M 1283.0293,396.4082 c -8.7149,8.18137 -18.9412,14.58281 -30.6797,19.20703 -11.5606,4.44639 -22.4988,6.66993 -32.8144,6.66993 -9.0707,0 -17.0734,-0.79969 -24.0098,-2.40039 v 7.20312 c 0,2.84568 0.355,5.51393 1.0664,8.00391 0.7114,2.31211 1.0664,4.17872 1.0664,5.60156 0,2.31214 -0.7099,4.00122 -2.1328,5.06836 v 2.66797 c 3.5571,0 5.3359,1.95632 5.3359,5.86914 0,3.73498 -1.7788,5.95851 -5.3359,6.66992 v 2.66797 c 1.4229,1.06711 2.1328,2.75622 2.1328,5.06836 0,1.42284 -0.1775,2.49169 -0.5332,3.20312 6.7585,-2.48997 14.9407,-3.73632 24.5449,-3.73632 14.2285,0 26.9455,3.55767 38.1504,10.67187 11.2049,6.93637 19.2974,16.45074 24.2774,28.54492 10.6713,-4.97995 19.1188,-12.44829 25.3437,-22.4082 6.4028,-10.13778 9.6035,-20.8985 9.6035,-32.28125 0,-11.56059 -3.111,-22.4091 -9.3359,-32.54688 -6.225,-10.31561 -15.1191,-18.23061 -26.6797,-23.74414 z M 271.38672,420.95117 v 36.28321 c 4.62424,-3.37926 10.13822,-6.57997 16.54101,-9.60352 6.58066,-3.20139 12.18436,-6.58156 16.8086,-10.13867 -12.8056,-1.245 -23.92327,-6.75897 -33.34961,-16.54102 z m 245.17383,6.13672 1.06836,1.60156 c 0,1.60068 -2.84572,6.49051 -8.53711,14.67188 l 2.66797,1.86719 c 20.27552,10.67134 30.41211,29.61427 30.41211,56.82617 0,8.18134 -2.40101,17.07352 -7.20313,26.67773 -4.80209,9.42635 -13.24956,20.09735 -25.34375,32.01367 -12.09416,11.91633 -21.43106,21.96512 -28.01172,30.14649 l -1.06836,-1.59961 c 4.09066,-6.04709 6.13672,-9.69445 6.13672,-10.93945 l -3.20117,-2.13477 c -19.74199,-11.73846 -29.61328,-28.99035 -29.61328,-51.75586 0,-11.56062 2.756,-23.12102 8.26953,-34.68164 5.51352,-11.56059 14.76263,-22.94352 27.74609,-34.14844 12.98346,-11.38275 21.87565,-20.89715 26.67774,-28.54492 z m 117.11914,1.06641 1.0664,1.60156 c -7.29209,7.82564 -10.9375,12.18297 -10.9375,13.07226 0,0.88928 3.82291,4.00224 11.47071,9.3379 7.82563,5.33566 16.27506,9.33606 25.3457,12.0039 0,0.88927 -1.42385,1.86841 -4.26953,2.93555 -7.82566,2.84568 -11.73828,7.55801 -11.73828,14.13867 v 51.22266 c 0,6.7585 3.38014,13.78407 10.13867,21.07617 6.7585,7.1142 10.9364,13.16067 12.53711,18.14062 1.6007,4.80212 2.40234,9.60416 2.40234,14.40625 0,17.78555 -6.6706,33.17084 -20.00976,46.1543 -13.33917,12.98346 -28.81221,19.47461 -46.41993,19.47461 -10.49348,0 -19.47537,-2.48879 -26.94531,-7.46875 -7.29207,-4.97996 -10.9375,-11.47306 -10.9375,-19.47656 0,-5.51353 1.68911,-9.95864 5.06836,-13.33789 3.55712,-3.37925 7.91445,-5.07032 13.07227,-5.07032 5.15779,0 9.42739,1.60135 12.80664,4.80274 3.37927,3.20141 5.06836,7.20377 5.06836,12.00586 0,3.73498 -1.33411,6.84791 -4.00196,9.33789 -2.48997,2.48998 -5.51319,3.73437 -9.07031,3.73437 -3.73495,0 -7.91481,-0.88939 -12.53906,-2.66797 0,9.07064 8.9819,13.60547 26.94531,13.60547 14.22844,0 26.58855,-4.26761 37.08203,-12.80468 10.49348,-8.53707 15.74024,-19.38753 15.74024,-32.54883 0,-5.33566 -0.97719,-10.67018 -2.9336,-16.00586 -1.95641,-5.1578 -6.31374,-10.67179 -13.07226,-16.54102 -6.58064,-5.86925 -10.583,-10.31632 -12.00586,-13.33984 -1.24498,-3.02355 -1.86719,-6.04677 -1.86719,-9.07031 0,1.60068 -2.75601,4.89113 -8.26953,9.87109 -5.51352,4.97996 -15.38485,14.22907 -29.61328,27.74609 -1.06714,0 -1.60156,-0.53442 -1.60156,-1.60156 l 4.26953,-6.13476 -2.66797,-2.13477 c -18.49698,-12.98343 -27.74609,-31.56944 -27.74609,-55.75781 0,-10.31562 2.84572,-20.54194 8.5371,-30.67969 5.69137,-10.31564 16.53987,-21.25386 32.54688,-32.81445 16.007,-11.73848 26.85746,-20.8101 32.54883,-27.21289 z m 866.51171,1.06836 1.0664,1.0664 c 0,1.245 -3.4679,6.22455 -10.4043,14.93946 17.0741,13.16132 28.5468,19.83192 34.416,20.00976 2.1343,0.17789 3.2012,0.71036 3.2012,1.59961 -9.4263,5.15782 -14.1406,9.42739 -14.1406,12.80664 v 58.95899 c 0,6.93636 2.1357,12.62783 6.4043,17.07421 4.2685,4.26853 7.9139,6.40235 10.9375,6.40235 1.7785,0 5.424,-1.95632 10.9375,-5.86914 0.8892,0 1.334,0.53442 1.334,1.60156 0,1.06714 -4.0005,4.09036 -12.0039,9.07031 -7.8257,4.80209 -17.1645,13.15985 -28.0137,25.07617 l -0.5332,-1.0664 c 0,-1.42287 2.9354,-5.7802 8.8047,-13.07227 0,-0.88927 -1.3342,-2.49062 -4.002,-4.80273 -9.0706,-8.18137 -13.6074,-17.51824 -13.6074,-28.01172 -5.3357,7.6478 -14.4951,16.09527 -27.4785,25.34375 -10.4935,7.46993 -18.3188,15.20743 -23.4766,23.21094 l -1.334,1.86718 c -0.8892,0 -1.334,-0.53249 -1.334,-1.59961 0,-1.42286 1.8686,-4.3583 5.6036,-8.80468 3.9128,-4.26853 5.8691,-7.38148 5.8691,-9.33789 l -2.668,-4.00196 c -11.2049,-11.38275 -16.8086,-26.41111 -16.8086,-45.08593 0,-24.89978 13.9635,-48.64283 41.8868,-71.23047 8.537,-6.93637 16.9845,-15.65105 25.3437,-26.14453 z m 268.3848,5.06836 c 1.0671,0 1.5996,0.53442 1.5996,1.60156 0,1.24497 -2.3113,5.60233 -6.9356,13.07226 10.1378,9.07064 15.2051,16.18398 15.2051,21.3418 v 7.4707 c 8.0035,-9.07064 15.6513,-16.54092 22.9434,-22.41015 7.4699,-5.86923 13.1614,-12.53983 17.0742,-20.00977 l 1.0683,1.60156 -4.0019,8.80274 c 0,1.06714 1.6013,2.66848 4.8027,4.80273 3.3793,2.13428 6.3128,3.20117 8.8028,3.20117 2.3121,10e-6 4.7131,-1.24439 7.2031,-3.73437 1.0671,0 1.6016,0.53443 1.6016,1.60156 -3.5572,4.97996 -6.7598,9.51481 -9.6055,13.60547 -2.6679,3.91285 -5.5136,6.75857 -8.5371,8.53711 -2.8457,1.60071 -5.6915,2.40039 -8.5371,2.40039 -3.5571,0 -9.0692,-3.29043 -16.5391,-9.87109 -0.8893,0 -3.025,1.77882 -6.4043,5.33593 -3.3793,3.37926 -6.6697,7.82632 -9.8711,13.33985 v 58.42578 c 0,3.20141 2.1358,6.48989 6.4043,9.86914 4.2686,3.37925 7.3795,5.07031 9.3359,5.07031 1.245,0 4.8924,-2.40103 10.9395,-7.20312 l 1.0664,1.59961 c 0,0.88927 -4.0901,4.26944 -12.2715,10.13867 -8.1813,5.69139 -13.9625,10.1365 -17.3418,13.33789 -3.3792,3.20141 -7.8243,8.44817 -13.3379,15.74023 l -1.0683,-1.5996 c 0,-0.88928 1.1566,-2.93534 3.4687,-6.13672 2.3121,-3.02355 3.4688,-5.15735 3.4688,-6.40235 0,-1.24497 -2.0461,-4.26819 -6.1367,-9.07031 -3.9129,-4.80209 -7.648,-7.20312 -11.2051,-7.20312 -1.6007,0 -4.5342,1.06689 -8.8028,3.20117 l -1.6015,-1.06641 c 0,-0.88927 2.756,-2.66809 8.2695,-5.33594 5.6914,-2.84568 8.5371,-7.29275 8.5371,-13.33984 v -61.62695 c 0,-3.91282 -1.7768,-7.64797 -5.334,-11.20508 -3.3792,-3.55712 -5.9597,-5.33594 -7.7382,-5.33594 -2.8458,0 -7.5581,4.80204 -14.1387,14.40625 -1.0672,0 -1.6016,-0.70997 -1.6016,-2.13281 0,-4.09069 7.2928,-11.73847 21.877,-22.94336 7.2921,-5.51353 13.0732,-12.80632 17.3418,-21.87695 z m -911.33206,0.5332 c 1.06714,0 1.59961,0.7119 1.59961,2.13476 -2.84568,4.62423 -4.26758,7.38026 -4.26758,8.26954 l 4.26758,2.93554 c 12.80559,7.2921 19.20898,15.73957 19.20898,25.34375 0,5.15782 -1.6891,10.58208 -5.06835,16.27344 -3.20139,5.51352 -9.51507,12.09439 -18.94141,19.74219 -9.24851,7.46993 -15.65187,13.69582 -19.20899,18.67578 l -1.0664,-1.06836 c 0,-3.02355 3.02322,-7.3809 9.07031,-13.07227 6.22493,-5.86922 10.22536,-11.02627 12.00391,-15.47265 1.95643,-4.44639 2.93554,-8.80372 2.93554,-13.07227 0,-5.51352 -2.04603,-10.2278 -6.13672,-14.14062 -4.09068,-4.09069 -6.9364,-6.13477 -8.5371,-6.13477 -4.09066,0 -8.00331,3.73515 -11.73829,11.20508 -3.55711,7.46993 -5.33593,18.85284 -5.33593,34.14844 0,14.93984 3.91264,26.14334 11.73828,33.61328 8.0035,7.46993 16.72014,11.20508 26.14648,11.20508 2.31214,0 6.13505,-3.11296 11.47071,-9.33789 1.06713,0 1.60156,0.80163 1.60156,2.40234 0,3.73495 -9.24911,11.38274 -27.7461,22.94336 -9.24847,5.51352 -15.02965,9.87088 -17.34179,13.07226 -2.31212,3.20142 -3.64625,6.49185 -4.00196,9.8711 -1.6007,0 -2.40039,-0.53443 -2.40039,-1.60156 0,-4.8021 3.46794,-10.49356 10.4043,-17.07422 l -3.4668,-2.9336 c -17.252,-11.20489 -25.8789,-28.27928 -25.8789,-51.22265 0,-21.16483 11.5604,-43.13098 34.68164,-65.89649 7.1142,-6.7585 12.4507,-13.69436 16.00781,-20.80859 z m 847.30276,0 c 1.0671,0 1.6015,0.7119 1.6015,2.13476 -2.8456,4.62423 -4.2695,7.38026 -4.2695,8.26954 l 4.2695,2.93554 c 12.8056,7.2921 19.2071,15.73957 19.2071,25.34375 0,5.15782 -1.6891,10.58208 -5.0684,16.27344 -3.2014,5.51352 -9.5151,12.09439 -18.9414,19.74219 -9.2485,7.46993 -15.6519,13.69582 -19.209,18.67578 l -1.0664,-1.06836 c 0,-3.02355 3.0232,-7.3809 9.0703,-13.07227 6.225,-5.86922 10.2273,-11.02627 12.0059,-15.47265 1.9564,-4.44639 2.9336,-8.80372 2.9336,-13.07227 0,-5.51352 -2.0441,-10.2278 -6.1348,-14.14062 -4.0907,-4.09069 -6.9364,-6.13477 -8.5371,-6.13477 -4.0907,0 -8.0033,3.73515 -11.7383,11.20508 -3.5571,7.46993 -5.3359,18.85284 -5.3359,34.14844 0,14.93984 3.9126,26.14334 11.7383,33.61328 8.0035,7.46993 16.7182,11.20508 26.1445,11.20508 2.3121,0 6.137,-3.11296 11.4727,-9.33789 1.0671,0 1.5996,0.80163 1.5996,2.40234 0,3.73495 -9.2491,11.38274 -27.7461,22.94336 -9.2485,5.51352 -15.0277,9.87088 -17.3399,13.07226 -2.3121,3.20142 -3.6462,6.49185 -4.0019,9.8711 -1.6007,0 -2.4004,-0.53443 -2.4004,-1.60156 0,-4.8021 3.4679,-10.49356 10.4043,-17.07422 l -3.4688,-2.9336 c -17.252,-11.20489 -25.8769,-28.27928 -25.8769,-51.22265 0,-21.16483 11.5604,-43.13098 34.6816,-65.89649 7.1142,-6.7585 12.4488,-13.69436 16.0059,-20.80859 z m -938.00979,0.5332 c 1.06714,0 1.60156,0.53443 1.60156,1.60156 0,1.24498 -2.58046,5.60234 -7.73828,13.07227 0,1.42284 2.49075,4.3583 7.4707,8.80469 4.97996,4.26852 8.8926,6.40234 11.73829,6.40234 l 7.73632,-2.66797 1.06836,1.06641 c -12.09416,6.93636 -18.14258,11.47122 -18.14258,13.60547 v 65.0957 c 0,3.20139 1.86857,6.40211 5.60352,9.60352 3.73498,3.02354 6.5807,4.53711 8.53711,4.53711 2.13425,0 5.95718,-3.02518 11.4707,-9.07227 l 1.06836,1.60156 c 0,1.42284 -4.62457,6.75934 -13.87305,16.00781 -9.07063,9.07064 -16.63064,17.69559 -22.67773,25.87696 l -1.06641,-1.59961 c 0,-1.245 0.97912,-3.02383 2.93555,-5.33594 1.95641,-2.13427 2.93359,-4.00281 2.93359,-5.60351 l -3.20117,-4.00196 c -8.0035,-7.46993 -12.00586,-14.67301 -12.00586,-21.60937 v -14.67188 c -6.58066,10.67132 -14.31621,19.47379 -23.20898,26.41016 -8.71491,6.7585 -17.34184,15.38542 -25.87891,25.87891 -1.06713,0 -1.59961,-0.53443 -1.59961,-1.60157 0,-0.88927 1.0669,-2.66812 3.20118,-5.33593 2.13427,-2.48998 3.20117,-4.35657 3.20117,-5.60157 0,-3.55711 -3.38015,-7.38004 -10.13867,-11.4707 -6.58067,-4.26855 -11.20523,-6.4043 -13.87305,-6.4043 -1.60071,0 -3.912,0.8894 -6.93555,2.66797 l -1.33398,-1.0664 c 0,-1.42285 1.77882,-3.02417 5.33593,-4.80274 8.53708,-4.26852 12.80469,-10.49249 12.80469,-18.67383 v -58.95898 c 0,-2.84568 -1.42187,-5.87086 -4.26758,-9.07227 -2.84568,-3.20141 -5.06921,-4.80078 -6.66992,-4.80078 -2.84568,0 -7.73746,4.00041 -14.67383,12.00391 l -1.0664,-1.59961 c 0,-3.20139 5.60173,-9.69256 16.80664,-19.47461 11.38275,-9.95991 17.78614,-14.94141 19.20898,-14.94141 l 1.06836,1.60156 -4.26953,5.60157 2.13477,1.60156 c 8.0035,4.44639 12.0039,10.04814 12.0039,16.80664 v 73.90039 c 0,3.20141 1.77883,6.7571 5.33594,10.66992 3.55712,3.73496 7.02505,5.60352 10.4043,5.60352 4.26855,0 11.73883,-8.00472 22.41015,-24.01172 v -51.2207 c 0,-1.60071 -1.68911,-4.00174 -5.06836,-7.20313 -3.37925,-3.20141 -5.86999,-4.80273 -7.4707,-4.80273 -1.77857,0 -4.88955,2.31129 -9.33594,6.93554 l -1.06836,-1.0664 c 0,-3.55709 8.00472,-11.02741 24.01172,-22.41016 5.5135,-3.91282 10.67054,-9.8715 15.47266,-17.875 z m 828.62889,13.07227 c -17.4298,10.84918 -26.1445,30.68154 -26.1445,59.49414 0,14.762 3.1129,26.32243 9.3379,34.68164 6.4028,8.18137 13.6058,12.27148 21.6094,12.27148 5.5135,0 10.0483,-4.17985 13.6054,-12.53906 3.735,-8.53707 5.6016,-18.58587 5.6016,-30.14648 0,-8.89278 -1.2444,-17.96246 -3.7344,-27.21094 -2.3121,-9.42634 -6.135,-17.60856 -11.4707,-24.54492 -5.1578,-6.93637 -8.0933,-10.93873 -8.8047,-12.00586 z m -989.23241,10.93945 c -2.31211,0 -6.75918,4.97954 -13.33984,14.93945 -6.4028,9.78208 -9.60352,22.85409 -9.60352,39.2168 0,13.33916 2.75601,23.56548 8.26954,30.67969 5.69138,7.11423 12.00699,10.67187 18.94335,10.67187 3.37926,0 6.49026,-1.42189 9.33594,-4.26757 2.84568,-3.02355 4.26953,-5.78151 4.26953,-8.27149 v -69.89648 c 0,-1.06714 -2.75798,-3.46815 -8.27148,-7.20313 -5.51353,-3.91282 -8.71422,-5.86914 -9.60352,-5.86914 z m -114.98437,2.66797 c -4.26855,0 -8.00174,5.06733 -11.20313,15.20508 -3.02354,9.95991 -4.53711,20.18816 -4.53711,30.68164 0,13.87273 2.93546,25.16592 8.80469,33.88086 5.86923,8.71491 12.89481,13.07226 21.07617,13.07226 5.69137,0 10.13844,-4.17985 13.33985,-12.53906 3.20138,-8.53707 4.80078,-18.76337 4.80078,-30.67969 0,-12.98346 -3.82293,-24.4561 -11.4707,-34.41601 -7.46994,-10.13775 -14.40775,-15.20508 -20.81055,-15.20508 z m 983.36328,0 c -2.1343,0 -5.8694,5.24675 -11.2051,15.74023 -5.1578,10.31562 -7.7363,22.94295 -7.7363,37.88282 0,12.09416 2.1358,21.87577 6.4043,29.3457 4.2685,7.29209 9.2481,10.9375 14.9394,10.9375 5.8693,0 11.6485,-5.42423 17.3399,-16.27344 v -61.89258 c 0,-2.48997 -2.8457,-5.69265 -8.5371,-9.60546 -5.5135,-4.09069 -9.2487,-6.13477 -11.2051,-6.13477 z m -1202.92578,4.80078 v 26.94531 c 7.46993,0 14.76273,-0.53247 21.87695,-1.59961 -4.09068,-16.00698 -11.38348,-24.4564 -21.87695,-25.3457 z m 757.39848,2.40234 c -23.6548,4.62426 -42.50807,14.85055 -56.55864,30.67969 -14.05059,15.82914 -21.07617,34.85986 -21.07617,57.0918 0,21.1648 7.20308,38.59417 21.60938,52.28906 14.40629,13.69487 32.01513,20.54297 52.82423,20.54297 h 4.2676 c 0.7114,-10.84918 4.3588,-20.00858 10.9394,-27.47852 -8.8928,-6.40279 -15.8306,-12.53897 -20.8105,-18.4082 -4.98,-5.86923 -7.4688,-9.33716 -7.4688,-10.4043 l 0.5332,-1.60156 1.0664,1.33399 c 7.6478,10.67134 17.1642,19.83074 28.5469,27.47851 6.4028,-6.93636 13.7834,-10.4043 22.1426,-10.40429 6.9363,0 10.4043,3.11293 10.4043,9.33789 0,5.15779 -2.4888,10.31483 -7.4688,15.47265 8.1814,3.20139 16.8961,5.86963 26.1446,8.00391 4.2685,-9.60418 11.9163,-17.34169 22.9433,-23.21094 11.0271,-5.69136 22.8547,-8.53711 35.4824,-8.53711 11.0271,0 21.5206,2.22354 31.4805,6.66992 9.9599,4.62426 17.873,11.02765 23.7422,19.20899 24.8998,-8.35921 44.1977,-20.36433 57.8926,-36.01563 13.8727,-15.65127 20.8086,-33.34788 20.8086,-53.08984 0,-4.97996 -0.8894,-10.49392 -2.668,-16.54102 -7.1142,2.66785 -15.117,4.00196 -24.0098,4.00196 -10.8491,0 -21.4324,-1.86854 -31.748,-5.60352 -3.0236,16.18487 -13.9618,31.30295 -32.8145,45.35352 -18.6748,13.87273 -40.7287,20.80859 -66.1621,20.80859 -28.6347,0 -52.5553,-8.44747 -71.7636,-25.34375 -19.2085,-17.07412 -28.8125,-40.99466 -28.8125,-71.76367 0,-4.62425 0.1774,-7.91469 0.5332,-9.8711 z m 192.3515,1.59961 c -8.0035,0 -16.1857,1.24635 -24.5449,3.73633 -0.7114,2.13428 -1.0664,4.71278 -1.0664,7.73633 v 7.73633 c 19.742,15.29557 41.6184,22.94336 65.6289,22.94336 7.1142,0 14.2276,-1.51161 21.3418,-4.53516 -4.98,-11.56059 -12.8949,-20.71999 -23.7441,-27.47851 -10.8492,-6.75851 -23.3868,-10.13868 -37.6153,-10.13868 z m -29.3476,5.33594 c -3.9129,1.60071 -6.1344,2.75734 -6.668,3.46875 l 2.666,3.20117 4.5371,4.26758 v -4.80078 c 0,-3.20141 -0.1794,-5.24745 -0.5351,-6.13672 z m -1003.90433,9.8711 c 0.71142,11.20488 9.42611,21.60868 26.14453,31.21289 3.73496,-8.71494 5.9585,-15.4733 6.66992,-20.27539 -10.49348,-5.15783 -21.4317,-8.80326 -32.81445,-10.9375 z m 45.88671,2.13476 c -1.06713,2.31211 -2.49097,5.95754 -4.26953,10.9375 10.67134,6.22493 20.27544,12.9833 28.8125,20.27539 4.97996,-4.26855 8.44789,-7.02455 10.4043,-8.26953 v -15.20703 c -8.53707,-0.17789 -20.18525,-2.75642 -34.94727,-7.73633 z m 961.75392,4.53516 v 51.22265 c 15.6513,-9.2485 25.8776,-20.72115 30.6797,-34.41601 -10.8492,-3.73498 -21.0755,-9.33673 -30.6797,-16.80664 z m -901.72852,1.59961 c -7.11422,1.06713 -14.58452,1.60156 -22.41016,1.60156 v 13.07226 c 6.58065,-4.26854 14.22844,-8.62587 22.94336,-13.07226 z m -25.07813,19.74218 c -3.91282,2.66782 -6.84632,4.98107 -8.80273,6.9375 l 8.80273,8.80274 z m 90.17383,4.26953 c 11.38275,0 21.52129,3.55765 30.41406,10.67188 8.89278,7.1142 14.93921,16.4511 18.14063,28.01172 2.31211,0 3.46875,1.33411 3.46875,4.00195 0,1.60068 -0.80164,2.66761 -2.40235,3.20117 l 0.53321,2.66797 c 1.9564,0.71141 2.93554,2.22302 2.93554,4.53516 0,1.77854 -0.97914,3.02294 -2.93554,3.73437 l -0.53321,3.73438 h 2.40235 c 1.95641,0 2.93359,0.97914 2.93359,2.93555 0,5.86922 -1.15664,8.80273 -3.46875,8.80273 -2.66784,0 -4.00195,-0.62219 -4.00195,-1.86719 -0.53357,2.31214 -1.24354,4.18068 -2.13282,5.60352 1.06714,1.06714 1.59961,2.13403 1.59961,3.20117 0,2.48998 -1.59937,3.73438 -4.80078,3.73438 l -1.60156,2.13476 0.5332,2.40039 c 0,2.13428 -1.68911,3.20117 -5.06836,3.20117 -10.67134,10.49348 -25.07749,15.74024 -43.21875,15.74024 -21.52053,0 -37.88299,-5.24676 -49.08789,-15.74024 -11.2049,-10.31561 -16.80859,-20.36443 -16.80859,-30.14648 l 0.80078,-4.26758 0.80078,4.80274 c 0,8.71491 5.51398,17.96206 16.54102,27.74414 11.2049,9.95991 27.12265,14.93945 47.7539,14.93945 18.31912,0 32.19085,-4.8898 41.61719,-14.67188 l -0.5332,-1.60156 c 0,-2.66782 1.60132,-4.00195 4.80273,-4.00195 l 1.06641,-1.59961 c -0.71143,-0.71143 -1.06641,-1.60086 -1.06641,-2.66797 0,-2.84571 1.68911,-4.26953 5.06836,-4.26953 0.71143,-1.42284 0.88893,-2.57753 0.5332,-3.4668 -2.48995,-0.71143 -3.73437,-2.04554 -3.73437,-4.00195 0,-5.51353 1.15664,-8.27149 3.46875,-8.27149 l 1.86719,0.26758 h 1.59961 l 0.53515,-2.66797 c -2.13425,-0.53356 -3.20117,-1.77796 -3.20117,-3.73437 0,-2.13428 1.06692,-3.64589 3.20117,-4.53516 0,-1.06713 -0.17945,-1.95653 -0.53515,-2.66797 -1.77855,0 -2.66602,-1.06692 -2.66602,-3.20117 0,-1.6007 0.53247,-2.75732 1.59961,-3.46875 -3.37928,-11.02702 -9.33795,-19.91921 -17.875,-26.67773 -8.53707,-6.93637 -18.05144,-10.4043 -28.54492,-10.4043 l -10.13867,-1.06836 z m -268.917971,52.55665 1.333985,1.86718 c 7.825643,16.36271 20.187706,27.74564 37.083986,34.14844 l 3.20117,-1.06836 c 2.13427,0 3.20117,1.0669 3.20117,3.20117 l 1.59961,0.53516 c 0.88928,-3.02352 1.77869,-4.53516 2.66797,-4.53516 2.31212,0 3.46875,0.70997 3.46875,2.13282 l -0.5332,3.46875 1.59961,0.5332 c 0.71142,-3.02355 1.60083,-4.53516 2.66796,-4.53516 2.31213,0 3.46876,0.7119 3.46876,2.13477 l -0.53321,2.93359 h 2.13477 c 1.06713,-1.06714 2.31153,-1.59961 3.73437,-1.59961 1.77856,0 2.84546,0.71193 3.20117,2.13477 h 4.53516 c 12.98345,0 24.6336,-3.02517 34.94922,-9.07227 l 2.13281,-1.33398 1.06836,1.06836 c 0,1.42286 -4.17985,3.6464 -12.53906,6.66992 -8.18136,3.20141 -16.89605,4.80078 -26.14453,4.80078 h -4.00196 c -0.35571,1.60071 -1.6001,2.40234 -3.73437,2.40234 -1.6007,0 -2.66761,-0.97913 -3.20117,-2.93554 h -2.13477 c -0.88928,3.37925 -2.0459,5.06836 -3.46875,5.06836 -1.77855,-0.53357 -2.66797,-1.33326 -2.66797,-2.40039 l 0.53321,-3.73438 -2.13282,-0.5332 c -0.35571,3.37925 -1.24512,5.06836 -2.66796,5.06836 -1.95641,0 -2.93555,-0.71193 -2.93555,-2.13477 l 0.5332,-4.00195 -2.13281,-0.5332 c -0.53357,1.06713 -1.60243,1.60156 -3.20313,1.60156 -2.13426,0 -3.20117,-1.24635 -3.20117,-3.73633 -13.16131,-5.15782 -22.9429,-11.82647 -29.345701,-20.00781 -6.4028,-8.0035 -9.603516,-13.33997 -9.603516,-16.00781 z m 973.226591,22.94335 c -6.4028,10e-6 -12.539,2.84575 -18.4082,8.53711 6.9363,4.62426 13.4275,8.26969 19.4746,10.9375 5.1578,-4.44638 7.7363,-8.80374 7.7363,-13.07226 0,-4.26852 -2.9335,-6.40235 -8.8027,-6.40235 z m 89.1054,0 c -11.7384,0 -22.8561,2.6663 -33.3496,8.00196 -10.3156,5.51352 -17.6064,12.80634 -21.875,21.87695 12.8056,3.02355 26.4999,4.53516 41.084,4.53516 23.4769,0 45.7084,-3.29046 66.6953,-9.8711 -6.0471,-7.64779 -13.9601,-13.69423 -23.7422,-18.14062 -9.782,-4.26852 -19.3861,-6.40235 -28.8125,-6.40235 z m -109.1152,10.4043 c -5.6914,6.93637 -8.9818,15.29413 -9.8711,25.07617 10.8492,-1.77857 20.6308,-6.3134 29.3457,-13.60547 -7.1142,-3.91281 -13.6054,-7.73574 -19.4746,-11.4707 z m 22.4102,12.53906 c -8.0035,7.64778 -18.7643,12.7151 -32.2813,15.20508 v 2.66797 c 0,20.8091 9.6041,37.79573 28.8125,50.95703 19.3863,13.33916 42.1521,20.00782 68.2969,20.00782 23.2991,0 43.1295,-5.95868 59.4922,-17.875 16.5405,-11.91633 24.8105,-26.145 24.8105,-42.68555 0,-7.46994 -2.2216,-14.93827 -6.6679,-22.40821 -20.2756,7.29207 -40.9974,10.9375 -62.1622,10.9375 -18.3191,0 -34.9488,-1.95632 -49.8886,-5.86914 -1.0672,2.66785 -1.5996,5.86857 -1.5996,9.60352 0,8.53707 2.9354,15.20767 8.8047,20.00977 5.8692,4.97995 12.9825,7.46875 21.3417,7.46875 5.6914,0 10.4037,-1.15469 14.1387,-3.4668 3.9128,-2.13428 5.8692,-4.80252 5.8692,-8.00391 0,-3.37927 -1.5994,-5.06836 -4.8008,-5.06836 0.7114,0.8893 1.0664,2.22146 1.0664,4 0,1.42284 -1.1567,2.13477 -3.4688,2.13477 -3.2014,0 -4.8007,-1.2444 -4.8007,-3.73438 0,-3.91282 2.3112,-5.86914 6.9355,-5.86914 5.3357,0 8.0039,2.66825 8.0039,8.00391 0,3.91282 -2.1338,7.29101 -6.4023,10.13672 -4.0907,3.02354 -9.6047,4.53515 -16.5411,4.53515 -8.8927,0 -16.718,-2.756 -23.4765,-8.26953 -6.5807,-5.51352 -9.8711,-12.80631 -9.8711,-21.87695 0,-3.91282 0.5325,-7.46851 1.5996,-10.66992 -8.0035,-1.77855 -17.0732,-5.069 -27.2109,-9.8711 z m -835.03129,1.06641 c -4.8021,0 -10.04886,3.11293 -15.74023,9.33789 -5.51352,6.4028 -9.42616,14.76056 -11.73828,25.07617 25.25548,-6.22493 37.88281,-15.20487 37.88281,-26.94336 0,-4.97995 -3.46793,-7.4707 -10.4043,-7.4707 z"
           inkscape:connector-curvature="0" />
      </g>
      <g
         inkscape:groupmode="layer"
         id="layer4"
         inkscape:label="Layer 2" />
    </g>
  </g>
</svg>
