<?xml version="1.0" encoding="UTF-8" standalone="no"?>
<!-- Created with Inkscape (http://www.inkscape.org/) -->

<svg
   xmlns:dc="http://purl.org/dc/elements/1.1/"
   xmlns:cc="http://creativecommons.org/ns#"
   xmlns:rdf="http://www.w3.org/1999/02/22-rdf-syntax-ns#"
   xmlns:svg="http://www.w3.org/2000/svg"
   xmlns="http://www.w3.org/2000/svg"
   xmlns:sodipodi="http://sodipodi.sourceforge.net/DTD/sodipodi-0.dtd"
   xmlns:inkscape="http://www.inkscape.org/namespaces/inkscape"
   width="500mm"
   height="250mm"
   viewBox="0 0 500 250"
   version="1.1"
   id="svg4044"
   sodipodi:docname="Rogue trader title 1.svg"
   inkscape:version="0.92.1 r15371">
  <defs
     id="defs4038" />
  <sodipodi:namedview
     id="base"
     pagecolor="#ffffff"
     bordercolor="#666666"
     borderopacity="1.0"
     inkscape:pageopacity="0.0"
     inkscape:pageshadow="2"
     inkscape:zoom="0.49497475"
     inkscape:cx="616.69981"
     inkscape:cy="577.20836"
     inkscape:document-units="mm"
     inkscape:current-layer="text4048"
     showgrid="false"
     showborder="true"
     inkscape:showpageshadow="false"
     inkscape:window-width="1920"
     inkscape:window-height="1018"
     inkscape:window-x="-8"
     inkscape:window-y="-8"
     inkscape:window-maximized="1" />
  <metadata
     id="metadata4041">
    <rdf:RDF>
      <cc:Work
         rdf:about="">
        <dc:format>image/svg+xml</dc:format>
        <dc:type
           rdf:resource="http://purl.org/dc/dcmitype/StillImage" />
        <dc:title></dc:title>
      </cc:Work>
    </rdf:RDF>
  </metadata>
  <g
     inkscape:label="Layer 1"
     inkscape:groupmode="layer"
     id="layer1"
     transform="translate(0,-47)">
    <g
       aria-label="Rogue Trader"
       style="font-style:normal;font-variant:normal;font-weight:normal;font-stretch:extra-condensed;font-size:58.64912796px;line-height:1.25;font-family:Algerian;-inkscape-font-specification:'Algerian, Extra-Condensed';font-variant-ligatures:normal;font-variant-caps:normal;font-variant-numeric:normal;font-feature-settings:normal;text-align:start;letter-spacing:0px;word-spacing:0px;writing-mode:lr-tb;text-anchor:start;fill:#000000;fill-opacity:1;stroke:none;stroke-width:4.32160664"
       id="text4048"
       transform="translate(2.1381562,-7.4835468)">
      <path
         style="font-style:normal;font-variant:normal;font-weight:normal;font-stretch:extra-condensed;font-size:58.64912796px;font-family:Algerian;-inkscape-font-specification:'Algerian, Extra-Condensed';font-variant-ligatures:normal;font-variant-caps:normal;font-variant-numeric:normal;font-feature-settings:normal;text-align:start;writing-mode:lr-tb;text-anchor:start;fill:#241c1c;stroke-width:4.32160664"
         d="m 51.196227,153.1767 c -5.955128,0 -11.663704,1.53647 -16.827913,4.52169 a 4.4413085,4.4413085 0 0 0 0.660427,8.00003 l 0.07028,0.0274 v 7.01352 a 4.4413085,4.4413085 0 0 0 -3.207039,2.91972 c -0.03816,0.1145 -0.06726,0.20077 -0.0863,0.25787 a 4.4413085,4.4413085 0 0 0 -0.04858,0.15658 c -0.10935,0.37362 -0.195313,0.65638 -0.248563,0.82682 0.04279,-0.0876 0.06426,-0.13371 0.135392,-0.27595 a 4.4413085,4.4413085 0 0 0 -0.214974,0.50746 c -0.369318,1.04639 -0.586877,1.34953 -0.781349,2.71095 a 4.4413085,4.4413085 0 0 0 0.874882,3.33416 4.4413085,4.4413085 0 0 0 0.275437,0.83767 l 0.257865,0.57258 a 4.4413085,4.4413085 0 0 0 3.072165,2.50372 v 2.39469 l -2.278931,2.08566 a 4.4413085,4.4413085 0 0 0 0.611331,7.01404 4.4413085,4.4413085 0 0 0 0.05633,0.10335 l 0.458888,0.7736 a 4.4413085,4.4413085 0 0 0 3.818371,2.17558 h 14.804782 a 4.4413085,4.4413085 0 0 0 1.761648,-0.36742 4.4413085,4.4413085 0 0 0 1.316715,1.7756 4.4413085,4.4413085 0 0 0 1.101225,1.30845 l 0.572574,0.45888 a 4.4413085,4.4413085 0 0 0 5.242058,0.23048 l 0.154514,-0.10335 c 3.46693,-2.15425 7.148372,-3.74879 11.097513,-4.80074 a 4.4413085,4.4413085 0 0 0 3.126942,-3.0918 4.4413085,4.4413085 0 0 0 0.738454,0.73225 c 3.476533,2.70135 7.5852,4.22868 11.831835,4.22868 6.17815,0 11.843924,-2.59283 15.709124,-7.28534 1.30814,-1.58036 2.29968,-3.37405 3.15019,-5.25549 1.02637,1.67323 2.19946,3.25201 3.67575,4.6054 1.14258,1.06039 2.34791,1.92927 3.59564,2.68149 a 4.4413085,4.4413085 0 0 0 1.61747,2.39055 c 1.69935,1.27451 3.66647,2.19728 5.8105,2.43551 0.65357,0.0727 1.24495,0.0842 1.97818,0.0842 a 4.4413085,4.4413085 0 0 0 0.0491,0 l 10.26966,-0.11317 11.32799,0.0858 a 4.4413085,4.4413085 0 0 0 3.3848,-7.35356 l -3.66437,-4.21886 v -9.9317 l 1.64847,-1.65003 a 4.4413085,4.4413085 0 0 0 0.26562,-0.29093 v 2.42155 c 0,5.84129 0.50358,10.305 3.33055,13.80846 a 4.4413085,4.4413085 0 0 0 1.30431,3.0608 c 3.40929,3.38181 8.28537,4.81262 13.72268,4.81262 5.96666,0 11.29206,-2.36065 14.1857,-6.82025 a 4.4413085,4.4413085 0 0 0 2.55281,3.04271 4.4413085,4.4413085 0 0 0 0.0915,0.17001 l 0.4594,0.7736 a 4.4413085,4.4413085 0 0 0 3.81837,2.17558 h 31.27148 a 4.4413085,4.4413085 0 0 0 3.84524,-2.22054 l 1.48828,-2.57814 a 4.4413085,4.4413085 0 0 0 -0.69918,-5.35368 l -0.45682,-0.45888 a 4.4413085,4.4413085 0 0 0 -0.0429,-0.0429 c -2.19507,-2.14481 -3.59538,-4.14806 -4.35167,-5.90817 a 4.4413085,4.4413085 0 0 0 -2.51975,-2.4045 l -0.9157,-0.34365 a 4.4413085,4.4413085 0 0 0 -0.1018,-0.0331 4.4413085,4.4413085 0 0 0 -2.17197,-1.52342 v -8.17779 a 4.4413085,4.4413085 0 0 0 3.27577,-2.81068 c 0.53072,-1.43679 1.87361,-3.80985 4.04265,-6.73034 l 0.16227,-0.20929 a 4.4413085,4.4413085 0 0 0 0.18965,-5.20123 l -0.40256,-0.60152 a 4.4413085,4.4413085 0 0 0 -0.60151,-0.71675 4.4413085,4.4413085 0 0 0 -4.06229,-2.65823 h -30.55679 a 4.4413085,4.4413085 0 0 0 -1.61334,0.31057 4.4413085,4.4413085 0 0 0 -1.62315,-0.31057 h -12.19929 a 4.4413085,4.4413085 0 0 0 -3.67936,1.96318 4.4413085,4.4413085 0 0 0 -3.67988,-1.96318 h -13.51752 a 4.4413085,4.4413085 0 0 0 -4.01578,2.5585 4.4413085,4.4413085 0 0 0 -5.33197,-1.09916 c -0.69979,0.34452 -1.20785,0.44714 -1.64693,0.45527 0.14396,-0.0286 -1.68065,-0.26786 -3.98218,-0.89866 a 4.4413085,4.4413085 0 0 0 -0.006,-0.002 c -2.80195,-0.76416 -5.402,-1.18545 -7.86929,-1.18545 -5.36945,0 -10.4225,2.01389 -14.32832,5.70508 l -0.004,0.004 c -6.8e-4,6.4e-4 -0.001,0.001 -0.002,0.002 -1.47034,1.38638 -2.61272,3.02311 -3.60546,4.75991 -1.92817,-3.87354 -4.82401,-6.99091 -8.510074,-8.76949 a 4.4413085,4.4413085 0 0 0 -3.29283,-0.22066 c -2.39814,-1.07719 -5.02846,-1.68155 -7.77316,-1.68155 -5.88675,0 -11.305727,2.33531 -14.96498,6.67763 -0.953299,1.13125 -1.757326,2.3678 -2.447396,3.67936 -0.716381,-2.14179 -1.890324,-4.1217 -3.566189,-5.64823 a 4.4413085,4.4413085 0 0 0 -3.519063,-1.11718 c -0.137033,-0.0987 -0.244354,-0.2323 -0.384988,-0.32608 h -0.0016 c -3.493024,-2.34114 -7.773038,-3.38067 -12.457073,-3.38067 z m -19.687685,23.72362 c -0.279308,0.57185 -0.04765,0.15264 -0.0016,0.005 3.31e-4,-10e-4 0.0012,-0.004 0.0016,-0.005 z M 285.67854,153.1767 c -4.75993,8e-5 -9.3477,1.02541 -13.64049,2.94349 a 4.4413085,4.4413085 0 0 0 -0.59946,-0.48214 4.4413085,4.4413085 0 0 0 -3.68763,-1.973 h -34.47851 a 4.4413085,4.4413085 0 0 0 -3.80235,6.73447 l 0.0661,0.10955 c 1.60737,3.06036 2.76449,5.77806 3.47473,8.07393 a 4.4413085,4.4413085 0 0 0 3.14451,2.98638 4.4413085,4.4413085 0 0 0 2.9006,1.08624 h 0.74569 a 4.4413085,4.4413085 0 0 0 3.26181,-1.43403 V 189.421 l -2.41587,2.01745 a 4.4413085,4.4413085 0 0 0 0.0997,6.89105 4.4413085,4.4413085 0 0 0 0.62477,0.97255 l 0.65835,0.77308 a 4.4413085,4.4413085 0 0 0 3.38274,1.5627 H 260.048 a 4.4413085,4.4413085 0 0 0 3.39049,-7.3086 l -3.50987,-4.15014 -0.0816,-20.61372 a 4.4413085,4.4413085 0 0 0 0.85937,0.79685 l 0.28681,0.20154 a 4.4413085,4.4413085 0 0 0 0.0625,0.0388 4.4413085,4.4413085 0 0 0 0.70538,0.77773 l 0.63045,0.5426 a 4.4413085,4.4413085 0 0 0 7.01403,-1.70119 l 0.11526,-0.28474 a 4.4413085,4.4413085 0 0 0 0.0449,-0.11368 c 0.006,-0.0148 0.01,-0.0219 0.0155,-0.0367 v 2.95279 a 4.4413085,4.4413085 0 0 0 -3.20704,2.92023 c -0.0382,0.11468 -0.0662,0.20053 -0.0858,0.25942 a 4.4413085,4.4413085 0 0 0 -0.0491,0.15451 c -0.11001,0.37595 -0.19693,0.66196 -0.25011,0.83199 -10e-4,0.004 -0.005,0.011 -0.006,0.015 0.044,-0.0901 0.0689,-0.14356 0.1452,-0.2961 a 4.4413085,4.4413085 0 0 0 -0.21704,0.50746 c -0.36928,1.04635 -0.58684,1.35002 -0.78134,2.71095 a 4.4413085,4.4413085 0 0 0 0.8754,3.33416 4.4413085,4.4413085 0 0 0 0.2749,0.83767 l 0.25789,0.57258 a 4.4413085,4.4413085 0 0 0 3.07266,2.50372 v 2.39469 l -2.27944,2.08566 a 4.4413085,4.4413085 0 0 0 0.61132,7.01404 4.4413085,4.4413085 0 0 0 0.0563,0.10335 l 0.45943,0.7736 a 4.4413085,4.4413085 0 0 0 3.81836,2.17558 h 14.80425 a 4.4413085,4.4413085 0 0 0 1.76012,-0.36691 4.4413085,4.4413085 0 0 0 1.31826,1.77509 4.4413085,4.4413085 0 0 0 1.10175,1.30845 l 0.57206,0.4594 a 4.4413085,4.4413085 0 0 0 5.24205,0.23048 l 0.15452,-0.10387 c 2.66192,-1.65404 5.49791,-2.87521 8.43719,-3.87677 a 4.4413085,4.4413085 0 0 0 2.17609,0.57413 h 15.46469 a 4.4413085,4.4413085 0 0 0 4.43539,-4.51549 4.4413085,4.4413085 0 0 0 1.73273,1.64073 4.4413085,4.4413085 0 0 0 0.13486,0.21084 l 0.54261,0.77359 a 4.4413085,4.4413085 0 0 0 3.63492,1.89033 h 16.58194 a 4.4413085,4.4413085 0 0 0 1.40611,-0.23255 4.4413085,4.4413085 0 0 0 1.40044,0.23255 h 10.05107 c 7.54866,0 13.69986,-1.39454 18.01542,-5.24981 l 0.002,-0.002 c 0.6178,-0.55029 1.06592,-1.24311 1.60353,-1.86138 a 4.4413085,4.4413085 0 0 0 2.67166,3.99407 4.4413085,4.4413085 0 0 0 0.092,0.17001 l 0.45887,0.7736 a 4.4413085,4.4413085 0 0 0 3.81839,2.17558 h 31.27147 a 4.4413085,4.4413085 0 0 0 2.30116,-0.65009 4.4413085,4.4413085 0 0 0 2.30838,0.65009 h 14.80685 a 4.4413085,4.4413085 0 0 0 1.75956,-0.36691 4.4413085,4.4413085 0 0 0 1.31829,1.77509 4.4413085,4.4413085 0 0 0 1.10172,1.30845 l 0.57206,0.4594 a 4.4413085,4.4413085 0 0 0 5.24206,0.23048 l 0.15451,-0.10387 c 3.46692,-2.15424 7.14838,-3.74879 11.09753,-4.80074 a 4.4413085,4.4413085 0 0 0 1.25211,-8.03104 c -2.58032,-1.65276 -4.62036,-3.45238 -6.19342,-5.38675 l -0.002,-0.002 c -1.83446,-2.25901 -3.11433,-4.48846 -4.15634,-6.70502 1.52458,-0.96355 2.90502,-2.05372 4.01992,-3.38119 2.01673,-2.40129 3.1383,-5.50902 3.1383,-8.64805 0,-3.7641 -1.57437,-7.46212 -4.3434,-9.98441 a 4.4413085,4.4413085 0 0 0 -3.5197,-1.11724 c -0.13702,-0.0987 -0.24434,-0.2323 -0.38497,-0.32608 h -0.002 c -3.49393,-2.34172 -7.77465,-3.38119 -12.45867,-3.38119 -5.78726,0 -11.33113,1.47766 -16.37885,4.29896 l -0.29093,-0.43563 a 4.4413085,4.4413085 0 0 0 -0.60212,-0.71689 4.4413085,4.4413085 0 0 0 -4.06228,-2.65823 h -30.55681 a 4.4413085,4.4413085 0 0 0 -3.34139,7.36337 c -0.97105,-1.12691 -2.05568,-2.15024 -3.34812,-2.96106 a 4.4413085,4.4413085 0 0 0 -2.67528,-0.66198 c -3.75362,-2.70183 -8.61028,-3.74033 -14.37534,-3.74033 h -11.28305 a 4.4413085,4.4413085 0 0 0 -3.24993,7.46672 l 1.87275,2.01383 v 26.50381 l -1.25781,0.96325 -1.87481,-1.65623 -1.99625,-5.2989 a 4.4413085,4.4413085 0 0 0 3.22098,-6.56084 c -1.5802,-2.81924 -2.47229,-4.98679 -2.70938,-5.95674 a 4.4413085,4.4413085 0 0 0 -1.99988,-2.73472 l -0.88832,-0.5426 a 4.4413085,4.4413085 0 0 0 -1.16633,-0.49816 4.4413085,4.4413085 0 0 0 -2.91767,-0.97669 l -1.2211,-3.252 1.16996,-1.35547 a 4.4413085,4.4413085 0 0 0 -1.63661,-6.99389 l -0.7462,-0.31471 a 4.4413085,4.4413085 0 0 0 -1.40198,-0.33383 4.4413085,4.4413085 0 0 0 -1.98284,-0.47283 h -13.20075 a 4.4413085,4.4413085 0 0 0 -3.25199,7.46517 l 1.18546,1.27538 -1.07849,2.96674 a 4.4413085,4.4413085 0 0 0 -4.2323,1.78284 l -0.36328,0.50229 a 4.4413085,4.4413085 0 0 0 -1.5663,2.14612 c -0.44146,1.30966 -1.06879,2.57978 -1.9141,3.84008 a 4.4413085,4.4413085 0 0 0 2.4045,6.72052 c -1.04322,2.76536 -2.05898,5.07396 -2.88872,6.30866 a 4.4413085,4.4413085 0 0 0 -0.0139,0.0196 c -0.64259,0.96773 -1.44124,1.79771 -2.35543,2.55281 -0.97261,-0.84095 -2.11897,-1.67017 -2.81429,-2.52542 -1.83502,-2.25972 -3.11462,-4.48924 -4.15634,-6.70709 1.52511,-0.96385 2.90446,-2.05267 4.01939,-3.38067 2.01626,-2.40155 3.13883,-5.50812 3.13883,-8.6465 0,-3.7641 -1.57485,-7.46212 -4.34393,-9.98441 a 4.4413085,4.4413085 0 0 0 -3.51914,-1.11724 c -0.13706,-0.0987 -0.24437,-0.2323 -0.385,-0.32608 h -0.002 c -3.49295,-2.34105 -7.77277,-3.38111 -12.45661,-3.38119 0,0 -5.3e-4,0 -5.3e-4,0 z m -19.69542,23.74377 c -0.25869,0.52988 -0.0543,0.15724 0,0 z M 51.195711,157.61881 c 4.0474,0 7.378684,0.87856 9.994223,2.63498 2.634628,1.75642 3.952213,3.98989 3.952213,6.70088 0,2.21461 -0.859385,4.18114 -2.577621,5.89938 -1.718236,1.69915 -4.066254,2.93069 -7.044531,3.69435 1.317315,3.62739 3.10243,7.15927 5.35523,10.59574 2.27189,3.43647 4.543713,6.07113 6.815603,7.90391 l -0.429948,0.14314 c -2.844636,0.97367 -5.631677,2.34827 -8.361762,4.12378 l -0.429432,0.28629 -0.143661,-0.91623 c -1.221856,-7.38842 -2.93026,-13.65083 -5.125786,-18.78644 l -0.11472,-0.28629 c -1.317316,0.61093 -3.083253,1.09763 -5.297869,1.46038 l -0.228925,0.0289 v 10.71046 l 5.040003,5.38365 H 37.79343 l -0.458372,-0.77308 h 13.631209 l -4.152201,-4.41058 v -11.54035 l 0.601514,-0.0863 c 2.176433,-0.2291 3.999389,-0.65828 5.469435,-1.2883 -0.114549,-0.22909 -0.181414,-0.37266 -0.200507,-0.42994 l -0.286287,-0.83044 c -0.01909,-0.0573 -0.06678,-0.17183 -0.143142,-0.34365 -1.183674,0.34364 -3.417144,0.71632 -6.700882,1.11724 l -0.315228,0.0569 v 12.77234 l 3.264916,3.40806 h -12.65814 l 3.723286,-3.40806 v -9.62215 l -0.229444,0.0289 c -1.107305,0.24819 -2.109232,0.52498 -3.006535,0.83044 l -0.229441,0.0858 -0.257866,-0.57257 c 0.840026,-0.32456 1.498817,-0.54432 1.976107,-0.65888 l 1.517735,-0.37207 0.229444,-0.0574 v -1.48931 c -1.126398,0 -2.530026,0.24828 -4.210079,0.74466 l -0.314709,0.11472 c 0.03818,-0.26728 0.228925,-0.88824 0.572574,-1.86191 0.03819,-0.0764 0.171916,-0.50553 0.401011,-1.28829 0.01909,-0.0573 0.0476,-0.14331 0.08578,-0.25786 0.859118,0.0573 1.527238,0.0858 2.004528,0.0858 0.515469,0 0.992849,-0.0285 1.431954,-0.0858 v -14.08957 c -0.87821,-0.53456 -1.784763,-0.98344 -2.720247,-1.34617 l -0.229444,-0.0858 c 4.52469,-2.61554 9.393327,-3.92328 14.605309,-3.92328 z m 234.481799,0 c 4.04741,0 7.3787,0.87856 9.99424,2.63498 2.63461,1.75642 3.95221,3.98989 3.95221,6.70088 0,2.21461 -0.85939,4.18114 -2.57762,5.89938 -1.71823,1.69915 -4.06625,2.93069 -7.04453,3.69435 1.3173,3.62739 3.10242,7.15927 5.35522,10.59574 2.27189,3.43647 4.54371,6.07113 6.81561,7.90391 l -0.42945,0.14314 c -2.84464,0.97367 -5.63218,2.34827 -8.36226,4.12378 l -0.42944,0.28629 -0.14314,-0.91623 c -1.22185,-7.38842 -2.93079,-13.65083 -5.1263,-18.78644 l -0.1142,-0.28629 c -1.31733,0.61093 -3.08377,1.09763 -5.29839,1.46038 l -0.22894,0.0289 v 10.71046 l 5.04002,5.38365 h -14.80531 l -0.45837,-0.77308 h 13.63173 l -4.15271,-4.41058 v -11.54035 l 0.6015,-0.0863 c 2.17644,-0.2291 3.99992,-0.65828 5.46997,-1.2883 -0.11456,-0.22909 -0.18142,-0.37266 -0.20053,-0.42994 l -0.28628,-0.83044 c -0.019,-0.0573 -0.0673,-0.17183 -0.14367,-0.34365 -1.18366,0.34364 -3.41712,0.71632 -6.70086,1.11724 l -0.31522,0.0569 v 12.77234 l 3.2649,3.40806 h -12.65761 l 3.72276,-3.40806 v -9.62215 l -0.22894,0.0289 c -1.10728,0.24819 -2.10973,0.52498 -3.00704,0.83044 l -0.22892,0.0858 -0.25786,-0.57257 c 0.84002,-0.32456 1.49881,-0.54432 1.97609,-0.65888 l 1.51773,-0.37207 0.22894,-0.0574 v -1.48931 c -1.12641,0 -2.52952,0.24828 -4.20957,0.74466 l -0.31522,0.11472 c 0.0382,-0.26728 0.22894,-0.88824 0.57258,-1.86191 0.0382,-0.0764 0.17193,-0.50553 0.401,-1.28829 0.0191,-0.0573 0.0481,-0.14331 0.0863,-0.25786 0.8591,0.0573 1.52723,0.0858 2.00454,0.0858 0.51546,0 0.99232,-0.0285 1.43142,-0.0858 v -14.08957 c -0.87821,-0.53456 -1.78477,-0.98344 -2.72023,-1.34617 l -0.22895,-0.0858 c 4.52469,-2.61554 9.39282,-3.92328 14.60479,-3.92328 z m 153.49556,0 c 4.04741,0 7.3792,0.87856 9.99474,2.63498 2.63461,1.75642 3.95168,3.98989 3.95168,6.70088 0,2.21461 -0.85886,4.18114 -2.57709,5.89938 -1.71823,1.69915 -4.06678,2.93069 -7.04506,3.69435 1.31731,3.62739 3.10242,7.15927 5.35522,10.59574 2.2719,3.43647 4.54374,6.07113 6.81561,7.90391 l -0.42942,0.14314 c -2.84464,0.97367 -5.63221,2.34827 -8.36229,4.12378 l -0.42941,0.28629 -0.14317,-0.91623 c -1.22185,-7.38842 -2.93026,-13.65083 -5.12577,-18.78644 l -0.11473,-0.28629 c -1.3173,0.61093 -3.08324,1.09763 -5.29785,1.46038 l -0.22895,0.0289 v 10.71046 l 5.04002,5.38365 h -14.80531 l -0.45837,-0.77308 h 13.6312 l -4.15218,-4.41058 v -11.54035 l 0.601,-0.0863 c 2.17641,-0.2291 3.99989,-0.65828 5.46994,-1.2883 -0.11454,-0.22909 -0.18142,-0.37266 -0.2005,-0.42994 l -0.2863,-0.83044 c -0.019,-0.0573 -0.0667,-0.17183 -0.14314,-0.34365 -1.18367,0.34364 -3.41765,0.71632 -6.7014,1.11724 l -0.31472,0.0569 v 12.77234 l 3.2644,3.40806 h -12.65761 l 3.72277,-3.40806 v -9.62215 l -0.22892,0.0289 c -1.10731,0.24819 -2.10976,0.52498 -3.00707,0.83044 l -0.22892,0.0858 -0.25786,-0.57257 c 0.84003,-0.32456 1.49881,-0.54432 1.97609,-0.65888 l 1.51776,-0.37207 0.22892,-0.0574 v -1.48931 c -1.12641,0 -2.5295,0.24828 -4.20955,0.74466 l -0.31472,0.11472 c 0.0382,-0.26728 0.22894,-0.88824 0.57258,-1.86191 0.0382,-0.0764 0.17193,-0.50553 0.401,-1.28829 0.0191,-0.0573 0.0476,-0.14331 0.0858,-0.25786 0.85913,0.0573 1.52726,0.0858 2.00454,0.0858 0.51546,0 0.99285,-0.0285 1.43195,-0.0858 v -14.08957 c -0.8782,-0.53456 -1.78528,-0.98344 -2.72076,-1.34617 l -0.22895,-0.0858 c 4.5247,-2.61554 9.39282,-3.92328 14.60482,-3.92328 z m -350.634424,0.11472 c 4.63924,0 8.34268,1.75661 11.11095,5.26944 2.787364,3.51285 4.181144,8.20888 4.181144,14.08907 0,5.55563 -1.3746,9.98524 -4.123784,13.28808 -2.73009,3.30283 -6.40502,4.95422 -11.02516,4.95422 -3.64648,0 -6.892238,-1.16468 -9.736874,-3.49385 -4.181041,-3.43647 -6.271453,-8.52436 -6.271453,-15.26367 0,-5.76563 1.432134,-10.34763 4.295863,-13.74593 2.863728,-3.39828 6.720075,-5.09736 11.569314,-5.09736 z m 37.514514,0.2005 c 1.94733,0 4.18132,0.34366 6.7014,1.03095 2.57735,0.70639 4.27643,1.05937 5.09736,1.05937 1.20277,0 2.42446,-0.3053 3.66541,-0.91623 l -5.35523,10.53838 c -0.34365,-2.99737 -1.28856,-5.28837 -2.83497,-6.87297 -1.52732,-1.58459 -3.55087,-2.3766 -6.07095,-2.3766 -3.5892,0 -6.38609,1.39327 -8.3907,4.18063 -1.98552,2.78736 -2.97811,6.69191 -2.97811,11.71298 0,11.05398 4.52447,16.5809 13.57385,16.5809 h 4.61057 v -14.86266 h -7.21662 c -1.5655,0 -2.69182,-0.086 -3.37912,-0.25787 -0.6682,-0.17182 -1.31715,-0.54398 -1.94717,-1.11672 v -0.71624 c 0.6873,0.51546 1.3746,0.85912 2.06189,1.03094 0.6873,0.15274 1.80377,0.22945 3.35019,0.22945 h 7.13083 v -1.54668 h -7.96127 -1.2883 c -2.84463,0 -4.26744,-1.03095 -4.26744,-3.09283 0,-0.80185 0.23895,-1.48915 0.71624,-2.06189 0.47729,-0.57275 1.05003,-0.85886 1.71824,-0.85886 0.49638,0 0.92608,0.18141 1.28881,0.54415 0.38184,0.36273 0.57258,0.79191 0.57258,1.28829 0,0.84003 -0.3053,1.32726 -0.91623,1.46089 l -0.68729,0.14315 c -0.2291,0.0573 -0.34365,0.15264 -0.34365,0.28629 0,0.24819 0.31462,0.37207 0.94464,0.37207 h 0.9741 18.90014 l -3.95169,3.86643 v 14.118 l 3.6654,3.15019 h -14.63373 -2.89233 c -2.42462,0 -4.42898,-0.29596 -6.01358,-0.8878 -1.5846,-0.59184 -3.1883,-1.64197 -4.81108,-3.15019 -3.83739,-3.51284 -5.75624,-8.21872 -5.75624,-14.11801 0,-6.09019 1.81363,-10.84428 5.44101,-14.26166 3.1692,-2.99736 6.93017,-4.49585 11.28304,-4.49585 z m 22.85287,0.17157 h 13.51648 l -3.89433,3.80907 v 18.72857 l 0.0574,4.41007 c 0,2.84463 0.59141,4.8687 1.77508,6.07146 1.18368,1.18368 3.17923,1.77509 5.98569,1.77509 3.09281,0 5.22106,-0.90656 6.38565,-2.72025 0.93548,-1.47004 1.40353,-4.62043 1.40353,-9.45058 l 0.11421,-18.52807 -4.46691,-4.09536 h 12.19925 l -5.1263,4.09536 v 18.49964 c 0,3.39829 -0.11455,5.8422 -0.34365,7.33134 -0.21001,1.48914 -0.63918,2.71084 -1.28829,3.66541 -1.64188,2.44371 -4.83062,3.66541 -9.56531,3.66541 -5.00197,0 -8.49549,-1.2217 -10.48101,-3.66541 -1.5846,-1.92824 -2.37712,-5.62236 -2.37712,-11.08253 v -19.01538 z m 36.31199,0 h 30.55576 l -0.45785,0.54415 c -1.94734,2.38644 -3.49402,5.12631 -4.63952,8.21914 -0.19091,-0.43911 -0.33397,-0.76358 -0.42943,-0.97359 -1.05003,-2.29098 -2.17635,-3.7708 -3.37912,-4.439 -1.20276,-0.66821 -3.36003,-1.00252 -6.47196,-1.00252 -1.43185,0 -3.15011,0.0482 -5.15472,0.14366 v 13.17284 h 1.83245 v -11.6551 c 1.45095,-0.13365 2.8354,-0.20051 4.15271,-0.20051 2.42463,0 4.20975,0.25761 5.35523,0.77308 1.1455,0.51547 2.1666,1.51791 3.0639,3.00705 -0.26728,-0.19091 -0.45802,-0.33449 -0.57258,-0.42995 -1.5464,-1.22185 -2.6634,-1.94699 -3.3507,-2.17609 -0.68729,-0.2291 -2.04271,-0.34365 -4.06641,-0.34365 -0.61093,0 -1.6989,0.0378 -3.2644,0.11421 l -0.60152,0.0289 v 10.88202 h 5.26893 l 3.69435,-5.06894 v 12.34291 l -3.69435,-4.78265 h -7.81761 v 16.06569 h 1.83245 v -14.71952 h 6.2146 l 0.74466,0.74466 h -6.24303 v 13.97486 c 3.89467,0 6.66305,-0.27679 8.30492,-0.83045 1.64187,-0.55365 2.93043,-1.64213 3.86592,-3.26491 l 1.51773,-2.60553 c 0.0573,-0.11455 0.17183,-0.32498 0.34365,-0.63045 0.49638,2.10007 1.10748,3.78048 1.83296,5.04052 0.74457,1.26004 1.96627,2.73001 3.66541,4.41006 h -32.10243 l 4.35271,-3.32227 v -12.77183 c -1.60369,0.19092 -3.05449,0.68695 -4.35271,1.48879 l -0.40101,-0.60099 c 1.16458,-0.84003 2.74911,-1.38427 4.75372,-1.63246 v -1.34617 c -0.32456,-0.0382 -0.55366,-0.0574 -0.6873,-0.0574 -1.94733,0 -3.7226,0.71633 -5.32629,2.14819 0.87821,-3.05464 2.88258,-4.58215 6.01359,-4.58215 V 161.542 Z m 48.0534,0 h 34.47903 c -0.17182,0.32455 -0.28638,0.54433 -0.34364,0.65887 l -1.94717,3.43649 c -0.66821,1.22186 -1.28865,2.74936 -1.8614,4.58215 l -0.0574,0.14314 -0.28628,-0.2005 -0.0858,-0.37259 c -0.55366,-2.17644 -1.34618,-3.68476 -2.37712,-4.52479 -1.01185,-0.84003 -2.56786,-1.25987 -4.66793,-1.25987 -0.85912,0 -1.71798,0.0384 -2.5771,0.11472 h -0.34365 v 31.04255 l 3.37912,3.12177 h -13.08751 l 4.00957,-3.3507 v -28.49387 l -2.03347,-0.0289 c -1.96642,0 -3.36953,0.39134 -4.20956,1.17409 -0.82093,0.76366 -1.30764,2.11909 -1.46038,4.06642 h -0.74465 c 0.21,-2.23371 0.78275,-3.78921 1.71824,-4.66742 0.95457,-0.87821 2.51992,-1.31774 4.69635,-1.31774 l 1.71824,0.0289 h 0.31523 v -1.40353 c -0.97367,-0.11455 -1.89991,-0.17157 -2.77812,-0.17157 -2.4628,0 -4.23808,0.50589 -5.32629,1.51774 -1.08822,0.99276 -1.68947,2.6825 -1.80403,5.06894 h -0.34365 c -0.82094,-2.65372 -2.09083,-5.61285 -3.80907,-8.8775 z m 86.99986,0 h 13.20178 l -2.97812,3.37912 4.69635,12.48606 1.14567,-0.62993 -4.23849,-11.28304 3.03546,-3.49384 0.74467,0.31523 -2.89235,3.35018 4.00907,10.68203 c 0.22911,-0.17182 0.36283,-0.27704 0.40101,-0.31522 l 0.94517,-0.80202 c 0.57274,-0.45819 0.93556,-0.78266 1.08828,-0.97358 0.49639,2.17643 1.2599,4.12378 2.29082,5.84202 -0.55364,-0.0382 -0.9543,-0.0574 -1.20251,-0.0574 -1.81369,0 -3.1406,0.28663 -3.98063,0.85938 l 5.18314,14.06063 4.29588,3.32228 H 331.5543 l 3.95221,-3.32228 -3.17862,-8.36176 c -2.10005,2.11916 -3.71361,4.13337 -4.84,6.04253 l -0.65836,-0.17208 c 1.12641,-1.87098 2.8063,-3.96138 5.04,-6.27146 l 0.22894,-0.28629 -0.54417,-1.26038 c -2.2719,1.89006 -4.15237,4.08569 -5.6415,6.58667 l -0.51522,-0.83043 c -0.99277,-1.5846 -2.26266,-3.38889 -3.80907,-5.41259 l -0.28628,-0.34365 c -1.47006,3.26464 -2.20504,5.91847 -2.20504,7.96127 0,1.20276 0.20058,2.22438 0.6015,3.06441 0.42003,0.82094 1.41261,2.20487 2.97813,4.1522 0.13364,0.17183 0.34356,0.43928 0.62992,0.80202 H 307.84258 L 307.27,196.4226 h 14.57637 l -0.48678,-0.60151 c -1.26005,-1.52732 -2.09042,-2.71118 -2.49132,-3.55121 -0.38185,-0.85912 -0.57311,-1.86155 -0.57311,-3.00705 0,-1.94733 0.79253,-4.84892 2.37712,-8.70541 l -1.25987,-1.31723 c -0.24818,0.61092 -0.56332,1.50815 -0.94517,2.69182 l -0.94514,2.92076 c -0.51549,1.5655 -0.77309,2.86391 -0.77309,3.89485 0,1.06912 0.1814,1.95702 0.54414,2.6634 0.36275,0.70639 1.12623,1.67048 2.29082,2.89233 0.11456,0.11455 0.28665,0.29597 0.51572,0.54415 h -14.31901 c 2.73008,-1.41277 4.88789,-3.31244 6.47248,-5.69887 1.60369,-2.38644 3.1882,-6.07122 4.75371,-11.05411 l 0.1142,-0.40101 c -1.01185,-0.85912 -2.47198,-1.38418 -4.38113,-1.57509 1.05005,-1.56551 1.86124,-3.19771 2.43398,-4.89686 0.26728,0.24819 0.4295,0.40109 0.48678,0.45837 l 1.28881,1.20251 c 0.43911,0.42001 0.96417,0.84971 1.57509,1.28881 l 0.51523,-1.25987 -0.34364,-0.28681 c -0.95459,-0.84003 -1.75644,-1.51748 -2.40554,-2.03295 l -0.25736,-0.2005 0.45786,-0.62994 c 1.01184,0.66821 1.98578,1.44155 2.92126,2.31976 l 3.89433,-10.71046 z m 31.9877,0 h 11.28305 c 5.51743,0 9.60339,1.05998 12.25711,3.17913 3.95195,3.13101 5.92781,8.03749 5.92781,14.71952 0,6.93022 -1.72757,11.9414 -5.18314,15.03422 -1.56551,1.39368 -3.32211,2.37695 -5.26944,2.94969 -1.92826,0.57275 -4.49604,0.85938 -7.70342,0.85938 h -12.17084 l 3.9233,-3.00705 v -30.44155 z m 35.02371,0 h 30.55575 l -0.45836,0.54415 c -1.94733,2.38644 -3.49351,5.12631 -4.63899,8.21914 -0.19093,-0.43911 -0.33399,-0.76358 -0.42945,-0.97359 -1.05002,-2.29098 -2.17635,-3.7708 -3.37912,-4.439 -1.20275,-0.66821 -3.36003,-1.00252 -6.47195,-1.00252 -1.43187,0 -3.1501,0.0482 -5.15472,0.14366 v 13.17284 h 1.83245 v -11.6551 c 1.45095,-0.13365 2.83541,-0.20051 4.15272,-0.20051 2.42461,0 4.2092,0.25761 5.35471,0.77308 1.14549,0.51547 2.1671,1.51791 3.06441,3.00705 -0.26728,-0.19091 -0.45802,-0.33449 -0.57259,-0.42995 -1.54641,-1.22185 -2.6634,-1.94699 -3.35068,-2.17609 -0.68731,-0.2291 -2.04272,-0.34365 -4.06643,-0.34365 -0.61093,0 -1.69942,0.0378 -3.26491,0.11421 l -0.601,0.0289 v 10.88202 h 5.26894 l 3.69435,-5.06894 v 12.34291 l -3.69435,-4.78265 h -7.81762 v 16.06569 h 1.83245 v -14.71952 h 6.21459 l 0.74414,0.74466 h -6.2425 v 13.97486 c 3.89467,0 6.66253,-0.27679 8.3044,-0.83045 1.64187,-0.55365 2.93095,-1.64213 3.86643,-3.26491 l 1.51773,-2.60553 c 0.0573,-0.11455 0.17182,-0.32498 0.34367,-0.63045 0.49636,2.10007 1.10696,3.78048 1.83242,5.04052 0.74459,1.26004 1.96681,2.73001 3.66594,4.41006 h -32.10243 l 4.35269,-3.32227 v -12.77183 c -1.60367,0.19092 -3.05446,0.68695 -4.35269,1.48879 l -0.40102,-0.60099 c 1.16458,-0.84003 2.74912,-1.38427 4.75371,-1.63246 v -1.34617 c -0.32454,-0.0382 -0.55364,-0.0574 -0.68728,-0.0574 -1.94733,-1e-5 -3.72261,0.71632 -5.3263,2.14819 0.87823,-3.05464 2.88258,-4.58215 6.01358,-4.58215 V 161.542 Z m -224.05816,0.94516 0.40101,0.60152 -2.80655,2.83496 v 21.27778 l -0.0284,1.97558 0.8878,3.63699 c 0.43911,0.72548 1.26947,1.60353 2.49132,2.63447 l 0.0574,0.25786 c -1.60368,-0.64911 -2.71134,-1.59402 -3.32227,-2.83497 -0.61093,-1.24094 -0.91623,-3.15979 -0.91623,-5.75623 v -21.47776 z m -65.550524,0.14315 c 2.730094,1.31731 4.887364,3.56995 6.471964,6.75824 1.5846,3.18828 2.3766,6.87307 2.3766,11.0541 0,6.14747 -1.56535,11.11148 -4.69636,14.8916 -3.111924,3.78012 -7.207214,5.66994 -12.285554,5.66994 -3.245556,0 -6.280874,-1.09782 -9.106421,-3.29334 v -0.14314 c 2.367349,1.73733 5.336321,2.60604 8.906431,2.60604 4.79197,0 8.72451,-1.80429 11.798254,-5.41259 3.07373,-3.6083 4.61057,-8.21881 4.61057,-13.83171 0,-4.18105 -0.70648,-7.8368 -2.11925,-10.96781 -1.39368,-3.131 -3.37887,-5.46969 -5.956234,-7.01611 z m 171.307894,0.14314 0.57309,0.57309 c -1.31733,1.68005 -2.70176,4.46709 -4.15271,8.36177 l -0.11473,0.28628 -0.62994,-0.54415 0.0863,-0.25735 c 1.41277,-3.95195 2.77752,-6.70114 4.09485,-8.24756 z m -86.4557,0.11472 0.42943,0.60152 -3.89486,3.23597 v 17.78342 c 0,5.8229 -0.4582,9.62223 -1.37459,11.39775 -1.87097,3.58921 -5.52672,5.38365 -10.9678,5.38365 -4.69652,0 -8.2284,-1.17401 -10.59574,-3.52227 l 0.22892,0.11472 1.00253,0.57258 c 2.34826,1.37459 5.3644,2.06189 9.04906,2.06189 5.26926,0 8.76329,-1.66072 10.48153,-4.98264 0.91639,-1.7946 1.37459,-5.40319 1.37459,-10.82518 v -18.32756 z m 34.22168,0.0574 0.40049,0.601 -0.2005,0.25786 c -2.32916,3.13101 -3.88467,5.75633 -4.66742,7.87549 l -0.48731,-0.60151 c 1.27913,-2.95919 2.93104,-5.67003 4.95474,-8.13284 z m 202.06415,0 0.401,0.601 -0.2005,0.25786 c -2.32915,3.13101 -3.88517,5.75633 -4.66794,7.87549 l -0.48678,-0.60151 c 1.27913,-2.95919 2.93053,-5.67003 4.95422,-8.13284 z m -368.50412,0.17157 c -2.004608,0 -3.694351,0.37216 -5.068941,1.11673 v 5.1e-4 15.43524 c 0.553654,0 1.07872,-0.0477 1.575097,-0.14315 v -14.08958 c 1.050033,-0.28637 2.310085,-0.42943 3.780131,-0.42943 3.722846,0 6.252278,1.22169 7.588686,3.66541 -1.412774,-1.14549 -2.653646,-1.92816 -3.722772,-2.34818 -1.069123,-0.4391 -2.348354,-0.65887 -3.83749,-0.65887 -1.164582,0 -2.185689,0.11455 -3.063896,0.34365 v 13.517 l 0.314708,-0.0574 c 3.761029,-0.6873 6.548589,-1.76593 8.362281,-3.23598 1.832785,-1.48913 2.749187,-3.41731 2.749185,-5.78466 0,-2.11916 -0.821029,-3.86592 -2.462898,-5.2405 -1.641869,-1.39369 -3.713102,-2.09083 -6.214091,-2.09083 z m 234.48182,0 c -2.00462,0 -3.69435,0.37216 -5.06894,1.11673 v 5.1e-4 15.43524 c 0.55364,0 1.0787,-0.0477 1.57509,-0.14315 v -14.08958 c 1.05002,-0.28637 2.31007,-0.42943 3.78013,-0.42943 3.72284,0 6.25279,1.22169 7.5892,3.66541 -1.41277,-1.14549 -2.65364,-1.92816 -3.72277,-2.34818 -1.06913,-0.4391 -2.34836,-0.65887 -3.83749,-0.65887 -1.16459,0 -2.1862,0.11455 -3.06443,0.34365 v 13.517 l 0.31525,-0.0574 c 3.76103,-0.6873 6.54807,-1.76593 8.36176,-3.23598 1.83277,-1.48913 2.74918,-3.41731 2.74918,-5.78466 0,-2.11916 -0.82053,-3.86592 -2.46237,-5.2405 -1.6419,-1.39369 -3.71364,-2.09083 -6.21461,-2.09083 z m 153.49606,0 c -2.00462,0 -3.69435,0.37216 -5.06897,1.11673 v 5.1e-4 15.43524 c 0.55367,0 1.07873,-0.0477 1.57512,-0.14315 v -14.08958 c 1.05002,-0.28637 2.31008,-0.42943 3.78013,-0.42943 3.72284,0 6.25226,1.22169 7.58867,3.66541 -1.41277,-1.14549 -2.65364,-1.92816 -3.72277,-2.34818 -1.06913,-0.4391 -2.34836,-0.65887 -3.83749,-0.65887 -1.16459,0 -2.18567,0.11455 -3.0639,0.34365 v 13.517 l 0.31472,-0.0574 c 3.76103,-0.6873 6.54857,-1.76593 8.36227,-3.23598 1.83279,-1.48913 2.7492,-3.41731 2.7492,-5.78466 0,-2.11916 -0.82103,-3.86592 -2.4629,-5.2405 -1.64187,-1.39369 -3.71311,-2.09083 -6.21408,-2.09083 z m -349.747144,0.51573 c -6.452926,0 -9.679507,5.66998 -9.679507,17.01033 0,10.48125 3.178895,15.72204 9.536367,15.72204 2.95918,0 5.21183,-1.38445 6.75824,-4.15272 1.54642,-2.78736 2.31976,-6.85363 2.31976,-12.19926 0,-6.052 -0.74484,-10.27118 -2.23397,-12.65762 -1.56551,-2.48189 -3.79898,-3.72277 -6.70089,-3.72277 z m 272.397844,0.31471 v 32.13137 h 1.57459 V 162.4015 c 0.99274,-0.15273 1.89981,-0.22944 2.72076,-0.22944 1.56552,0 2.79705,0.16275 3.69435,0.48731 0.91639,0.30547 1.8328,0.87821 2.74918,1.71824 -2.02369,-0.95458 -4.19081,-1.43195 -6.50089,-1.43195 -0.49638,0 -1.14533,0.0378 -1.94717,0.1142 v 29.58269 c 2.13825,0 3.76113,-0.17209 4.86844,-0.51573 1.1073,-0.36274 2.15743,-1.05004 3.15018,-2.06189 2.76828,-2.80645 4.15221,-7.52219 4.15221,-14.14694 0,-6.47203 -1.49849,-10.89128 -4.49585,-13.25862 -1.8137,-1.43186 -4.68728,-2.14819 -8.62015,-2.14819 z m -218.35928,0.0574 0.65836,0.34365 -4.89686,9.62215 -0.68729,-0.31471 z m -78.008156,0.71623 c 1.928244,1.75642 2.89233,3.98989 2.89233,6.70089 0,4.39105 -2.796887,7.72233 -8.390702,9.99422 1.202767,3.93285 3.331533,7.77987 6.386174,11.5409 1.909151,2.34825 4.324551,4.45784 7.245553,6.32881 -4.371956,1.16458 -8.477099,2.94037 -12.314494,5.32681 l -0.257349,0.17156 -0.57309,-0.45785 c 3.646479,-2.38644 7.531851,-4.14305 11.655618,-5.26945 -5.498354,-3.66557 -9.822752,-9.5268 -12.972852,-17.58342 l -0.171566,-0.48679 c 5.842005,-2.21462 8.762775,-5.59359 8.762775,-10.13737 0,-1.87096 -0.754166,-3.91368 -2.262397,-6.12831 z m 234.482326,0 c 1.92825,1.75642 2.89234,3.98989 2.89234,6.70089 0,4.39105 -2.79691,7.72233 -8.3907,9.99422 1.20274,3.93285 3.331,7.77987 6.38564,11.5409 1.90915,2.34825 4.32456,4.45784 7.24556,6.32881 -4.37195,1.16458 -8.47659,2.94037 -12.31397,5.32681 l -0.25787,0.17156 -0.57258,-0.45785 c 3.64649,-2.38644 7.53134,-4.14305 11.65511,-5.26945 -5.49836,-3.66557 -9.82277,-9.5268 -12.97287,-17.58342 l -0.17156,-0.48679 c 5.842,-2.21462 8.76277,-5.59359 8.76277,-10.13737 0,-1.87096 -0.75364,-3.91368 -2.26187,-6.12831 z m 153.49553,0 c 1.92826,1.75642 2.89234,3.98989 2.89234,6.70089 0,4.39105 -2.79688,7.72233 -8.3907,9.99422 1.20277,3.93285 3.33153,7.77987 6.38617,11.5409 1.90915,2.34825 4.32403,4.45784 7.24503,6.32881 -4.37195,1.16458 -8.47659,2.94037 -12.31397,5.32681 l -0.25787,0.17156 -0.57258,-0.45785 c 3.64649,-2.38644 7.53187,-4.14305 11.65564,-5.26945 -5.49836,-3.66557 -9.82277,-9.5268 -12.97287,-17.58342 l -0.17208,-0.48679 c 5.842,-2.21462 8.76329,-5.59359 8.76329,-10.13737 0,-1.87096 -0.75417,-3.91368 -2.2624,-6.12831 z m -325.00444,0.4868 c 2.67281,0 4.84927,1.10714 6.52932,3.32176 v 0.17156 l -0.51521,-0.37207 c -2.17644,-1.54641 -4.16215,-2.31975 -5.95675,-2.31975 -2.17643,0 -4.05692,0.77334 -5.64151,2.31975 -1.1455,1.14549 -1.97585,2.64397 -2.49132,4.49585 -0.49639,1.85188 -0.74466,4.29579 -0.74466,7.33134 0,3.85648 0.38149,6.80628 1.14515,8.84907 0.76367,2.04279 2.16729,3.88492 4.21008,5.5268 v 0.31522 c -2.21462,-1.31731 -3.80899,-3.16929 -4.78266,-5.55573 -0.97366,-2.40554 -1.46037,-5.66062 -1.46037,-9.7653 0,-4.52468 0.84953,-8.03739 2.54868,-10.53837 1.69914,-2.52008 4.08552,-3.78013 7.15925,-3.78013 z m 250.69063,0.0568 c 4.04741,2.53917 6.07097,7.39796 6.07097,14.57637 0,7.54115 -2.00438,13.09709 -6.01361,16.6672 -3.07372,2.74918 -8.09474,4.12378 -15.06315,4.12378 h -10.05158 l -0.42994,-0.77308 h 10.48152 c 5.15472,0 9.06859,-0.71633 11.74141,-2.14819 5.74654,-3.05464 8.61962,-8.96305 8.61962,-17.72605 0,-5.8611 -1.28857,-10.214 -3.8659,-13.05864 l -1.14568,-1.26038 c -0.0382,-0.0382 -0.15274,-0.17194 -0.34366,-0.40101 z m -289.150294,0.11472 c 2.53916,0 4.40048,0.84953 5.58415,2.54868 l -0.48679,-0.28629 c -1.83279,-1.01185 -3.51268,-1.51773 -5.04,-1.51773 -5.021068,0 -7.531842,4.93498 -7.531842,14.8053 0,7.21658 1.556017,11.99918 4.667933,14.34744 l -0.257866,0.28629 c -1.909151,-1.35549 -3.273904,-3.13076 -4.09484,-5.32629 -0.801843,-2.21461 -1.203026,-5.20276 -1.203026,-8.96379 0,-10.5958 2.787558,-15.89361 8.362281,-15.89361 z m 167.098324,0.22944 c 1.85188,0 3.15961,0.1524 3.92327,0.45785 0.78276,0.28638 1.38402,0.86897 1.80403,1.74719 -1.47005,-0.95459 -3.1883,-1.43196 -5.15473,-1.43196 -0.4391,0 -0.8973,0.0285 -1.37459,0.0858 l 0.11472,28.78067 4.55321,5.38365 h -14.63373 l -0.65836,-0.77308 h 13.717 l -3.83698,-4.38164 v -29.84003 z m 68.93017,1.80403 -4.55374,12.02769 c 1.45094,1.48914 2.70168,2.95911 3.75171,4.41006 l 1.31723,1.83245 c 0.0191,0.0191 0.11446,0.14346 0.2863,0.37259 0.17182,-0.17183 0.26718,-0.27705 0.28628,-0.31523 l 0.401,-0.48679 c 0.0573,-0.0764 0.16248,-0.20024 0.31523,-0.37207 -1.33641,-2.06189 -2.89243,-3.9232 -4.66794,-5.58416 l 3.66543,-9.67951 z m 1.28828,3.32176 -3.15021,8.30492 c 0.17182,0.19091 0.26774,0.30547 0.28681,0.34364 l 1.17409,1.31724 c 0.63003,0.68729 1.43187,1.7566 2.40554,3.20756 l 0.28631,0.42943 c 0.82092,-1.03094 1.79435,-2.05256 2.92073,-3.06441 z m -118.38657,1.9761 0.71624,0.37207 v 12.65763 l -0.71624,-0.37207 z m 202.06468,0 0.71622,0.37207 v 12.65763 l -0.71622,-0.37207 z m -69.01543,2.3766 0.88728,0.54415 c 0.42,1.71825 1.47013,4.07611 3.15018,7.07348 -0.42,-0.0573 -0.65844,-0.0858 -0.71569,-0.0858 l -2.31976,-0.20051 c -1.05006,-0.0954 -1.81354,-0.14314 -2.29082,-0.14314 -0.0764,0 -0.26763,0.009 -0.57309,0.0284 l 4.78264,12.68656 6.38617,5.64152 h -16.58089 l -0.54416,-0.77308 h 15.20631 l -5.15471,-4.55373 -5.09739,-13.48806 c 0.64913,-0.17182 1.39343,-0.25787 2.23348,-0.25787 1.03092,0 2.17644,0.0861 3.43646,0.25787 l -0.34364,-0.62994 c -1.22184,-2.2528 -2.04237,-4.2862 -2.46237,-6.09989 z m -196.5663,3.03599 0.45785,0.65836 -2.94969,2.9497 v 13.4307 l 4.75423,5.46995 -11.36933,-0.0858 -10.30945,0.1142 c -0.64911,0 -1.14515,-0.0192 -1.4888,-0.0574 -1.20276,-0.13364 -2.41513,-0.65819 -3.63698,-1.57458 h 0.60099 c 1.29822,0.57275 3.07401,0.85886 5.32681,0.85886 l 1.43195,-0.0284 h 17.84078 l -3.9517,-4.38164 v -14.03222 z m 69.38801,11.79825 0.91622,0.34365 c 1.05004,2.44372 2.82582,4.88762 5.32681,7.33134 l 0.45785,0.45785 -1.48879,2.57762 h -31.272 l -0.45837,-0.77308 h 31.35778 l 0.97358,-1.80454 c -2.74918,-2.53917 -4.68669,-5.25002 -5.81308,-8.13284 z m 202.06466,0 0.91623,0.34365 c 1.05002,2.44372 2.8253,4.88762 5.3263,7.33134 l 0.45836,0.45785 -1.48931,2.57762 h -31.27148 l -0.45836,-0.77308 h 31.35775 l 0.97359,-1.80454 c -2.74918,-2.53917 -4.68667,-5.25002 -5.81308,-8.13284 z"
         id="path4221"
         inkscape:connector-curvature="0" />
    </g>
  </g>
</svg>
