<?xml version="1.0" encoding="UTF-8" standalone="no"?>
<!-- Created with Inkscape (http://www.inkscape.org/) -->

<svg
   xmlns:dc="http://purl.org/dc/elements/1.1/"
   xmlns:cc="http://creativecommons.org/ns#"
   xmlns:rdf="http://www.w3.org/1999/02/22-rdf-syntax-ns#"
   xmlns:svg="http://www.w3.org/2000/svg"
   xmlns="http://www.w3.org/2000/svg"
   xmlns:sodipodi="http://sodipodi.sourceforge.net/DTD/sodipodi-0.dtd"
   xmlns:inkscape="http://www.inkscape.org/namespaces/inkscape"
   width="500mm"
   height="250mm"
   viewBox="0 0 500 250"
   version="1.1"
   id="svg4044"
   inkscape:version="0.92.1 r15371"
   sodipodi:docname="Rogue trader title2.svg">
  <defs
     id="defs4038" />
  <sodipodi:namedview
     id="base"
     pagecolor="#ffffff"
     bordercolor="#666666"
     borderopacity="1.0"
     inkscape:pageopacity="0.0"
     inkscape:pageshadow="2"
     inkscape:zoom="0.35"
     inkscape:cx="555.04166"
     inkscape:cy="348.60557"
     inkscape:document-units="mm"
     inkscape:current-layer="text12"
     showgrid="false"
     showborder="true"
     inkscape:showpageshadow="false"
     inkscape:window-width="1920"
     inkscape:window-height="1018"
     inkscape:window-x="-8"
     inkscape:window-y="-8"
     inkscape:window-maximized="1" />
  <metadata
     id="metadata4041">
    <rdf:RDF>
      <cc:Work
         rdf:about="">
        <dc:format>image/svg+xml</dc:format>
        <dc:type
           rdf:resource="http://purl.org/dc/dcmitype/StillImage" />
        <dc:title></dc:title>
      </cc:Work>
    </rdf:RDF>
  </metadata>
  <g
     inkscape:label="Layer 1"
     inkscape:groupmode="layer"
     id="layer1"
     transform="translate(0,-47)">
    <g
       aria-label="Rogue Trader"
       style="font-style:normal;font-variant:normal;font-weight:normal;font-stretch:extra-condensed;font-size:58.64912796px;line-height:1.25;font-family:Algerian;-inkscape-font-specification:'Algerian, Extra-Condensed';font-variant-ligatures:normal;font-variant-caps:normal;font-variant-numeric:normal;font-feature-settings:normal;text-align:start;letter-spacing:0px;word-spacing:0px;writing-mode:lr-tb;text-anchor:start;fill:#000000;fill-opacity:1;stroke:none;stroke-width:4.32160664"
       id="text4048"
       transform="translate(2.1381562,-7.4835468)">
      <g
         aria-label="Rogue Trader"
         style="font-style:normal;font-variant:normal;font-weight:normal;font-stretch:normal;font-size:76.6115036px;line-height:1.25;font-family:'Old English Text MT';-inkscape-font-specification:'Old English Text MT, Normal';font-variant-ligatures:normal;font-variant-caps:normal;font-variant-numeric:normal;font-feature-settings:normal;text-align:start;letter-spacing:0px;word-spacing:0px;writing-mode:lr-tb;text-anchor:start;fill:#000000;fill-opacity:1;stroke:none;stroke-width:8.27712059"
         id="text12"
         transform="translate(-6.8035714,12.095238)">
        <path
           style="font-style:normal;font-variant:normal;font-weight:normal;font-stretch:normal;font-size:76.6115036px;font-family:'Old English Text MT';-inkscape-font-specification:'Old English Text MT, Normal';font-variant-ligatures:normal;font-variant-caps:normal;font-variant-numeric:normal;font-feature-settings:normal;text-align:start;writing-mode:lr-tb;text-anchor:start;fill:#000000;stroke-width:8.27712059"
           d="m 316.51134,127.5897 a 6.5250125,6.5250125 0 0 0 -5.41208,2.75797 c -0.5138,0.72707 -0.9902,1.22157 -1.28728,1.5291 -0.16137,0.0236 -0.23921,0.0527 -0.53123,0.0527 -1.53601,0 -6.12021,-0.48472 -12.62454,-1.56062 -6.76976,-1.11981 -11.41301,-1.7322 -14.9438,-1.7322 -4.59274,0 -8.99202,0.90555 -12.91755,2.83032 -3.87997,1.87823 -7.21294,4.70486 -9.633,8.23412 a 6.5250125,6.5250125 0 0 0 -0.006,0.008 c -2.01374,2.94602 -3.28543,6.39274 -4.25194,10.42934 a 6.5250125,6.5250125 0 0 0 3.01377,7.12928 l 1.38493,0.82217 a 6.5250125,6.5250125 0 0 0 1.30069,0.58601 c -0.73273,2.67624 -1.23817,5.40711 -1.23817,8.20674 0,4.21119 0.78607,8.25769 2.47427,11.90418 a 6.5250125,6.5250125 0 0 0 0.0196,0.045 c 1.57466,3.33458 3.66183,6.32032 6.24045,8.80101 2.47818,2.38408 5.30308,4.31402 8.39225,5.67976 a 6.5250125,6.5250125 0 0 0 0.016,0.008 c 4.93033,2.16452 10.26944,3.24218 15.79079,3.24218 5.67023,0 11.01468,-1.14241 15.71479,-3.57239 a 6.5250125,6.5250125 0 0 0 0.031,-0.0155 c 3.174,-1.66256 5.86364,-3.9486 8.2853,-6.49624 a 6.5250125,6.5250125 0 0 0 4.40229,4.05712 c 1.14192,0.31141 2.11214,0.71927 2.96312,1.21439 a 6.5250125,6.5250125 0 0 0 0.045,0.0258 c 0.73197,0.41828 2.2125,1.49131 4.06022,3.13624 a 6.5250125,6.5250125 0 0 0 8.41602,0.21911 l 9.57615,-7.66982 a 6.5250125,6.5250125 0 0 0 0.0781,-0.0687 c 1.57745,2.84819 3.86752,5.42842 6.63678,7.69565 a 6.5250125,6.5250125 0 0 0 8.17573,0.0718 l 4.50207,-3.5543 c 1.09636,1.28393 2.30765,2.45169 3.75584,3.58014 a 6.5250125,6.5250125 0 0 0 8.16229,-0.11369 l 5.81049,-4.79454 a 6.5250125,6.5250125 0 0 0 1.13067,0.2496 c 2.13601,0.26445 4.05212,0.74335 5.79139,1.41232 1.65555,0.63675 3.91483,1.81676 6.59339,3.56463 a 6.5250125,6.5250125 0 0 0 7.74425,-0.4532 c 1.56744,-1.3062 2.94597,-2.26573 4.04315,-2.88509 a 6.5250125,6.5250125 0 0 0 0.0682,-0.0388 c 0.96258,-0.55891 3.11065,-1.55112 6.10145,-2.68149 a 6.5250125,6.5250125 0 0 0 0.10387,-0.045 6.5250125,6.5250125 0 0 0 3.79304,2.3828 c 2.78088,0.58917 4.8518,1.15657 5.95313,1.55236 1.10106,0.39569 2.92428,1.22372 5.22449,2.45515 a 6.5250125,6.5250125 0 0 0 6.81249,-0.40049 l 10.29292,-7.17941 a 6.5250125,6.5250125 0 0 0 3.4494,2.32441 c 1.14065,0.31108 2.10725,0.71793 2.96053,1.21439 a 6.5250125,6.5250125 0 0 0 0.045,0.0258 c 0.73197,0.41828 2.213,1.49131 4.06072,3.13624 a 6.5250125,6.5250125 0 0 0 8.41603,0.21911 l 9.57617,-7.66982 a 6.5250125,6.5250125 0 0 0 1.22266,-8.89661 l -0.85939,-1.19734 a 6.5250125,6.5250125 0 0 0 -6.89467,-2.51974 v -6.66006 a 6.5250125,6.5250125 0 0 0 6.22443,-1.36323 l 5.64874,-5.01364 a 6.5250125,6.5250125 0 0 0 0.6775,-9.05836 l -5.64825,-6.76962 a 6.5250125,6.5250125 0 0 0 -9.29502,-0.74052 l -2.42777,2.11563 c -0.86632,-0.80109 -1.7771,-1.57535 -2.82826,-2.37918 a 6.5250125,6.5250125 0 0 0 -8.21087,0.23048 l -7.40005,6.34793 -4.83433,-5.641 a 6.5250125,6.5250125 0 0 0 -7.92562,-1.56063 c -4.102,2.10042 -6.77963,3.43773 -7.6445,3.84215 -1.28278,0.57798 -3.04824,1.27968 -5.19142,2.05827 a 6.5250125,6.5250125 0 0 0 -8.96482,-4.82606 c -0.63609,0.27033 -1.25516,0.57728 -1.87119,0.92759 l -20.83204,-14.32591 a 6.5250125,6.5250125 0 0 0 -10.22109,5.37487 v 7.85327 a 6.5250125,6.5250125 0 0 0 -4.5992,1.55856 c -0.53816,-0.10532 -0.57312,-0.0682 -1.42783,-0.32195 l -0.006,-0.002 c -1.67952,-0.50826 -3.1718,-1.15944 -4.51961,-1.95337 a 6.5250125,6.5250125 0 0 0 -8.0233,1.1095 c -1.25871,1.31467 -1.85717,1.50378 -3.06854,1.50378 -0.009,0 -0.635,-0.0277 -1.50378,-0.11679 a 6.5250125,6.5250125 0 0 0 -5.67357,2.31614 l -2.81273,-3.37085 a 6.5250125,6.5250125 0 0 0 -9.29505,-0.74053 l -2.42776,2.11512 c -0.86569,-0.801 -1.77658,-1.57485 -2.82774,-2.37867 a 6.5250125,6.5250125 0 0 0 -8.2093,0.23048 l -7.89462,6.76961 a 6.5250125,6.5250125 0 0 0 -0.78083,9.11108 l 0.89815,1.08623 a 6.5250125,6.5250125 0 0 0 2.95537,2.01952 v 0.34933 a 6.5250125,6.5250125 0 0 0 -7.83209,2.93988 c -1.05942,1.87117 -2.09709,3.21534 -3.09954,4.33358 v -20.15429 c 2.32095,-0.19813 4.59941,-0.63098 6.70086,-1.59164 a 6.5250125,6.5250125 0 0 0 0.0372,-0.0176 c 2.65888,-1.23583 5.08093,-3.16163 6.7169,-5.69164 1.54807,-2.3569 2.44888,-4.97185 3.08197,-7.89616 a 6.5250125,6.5250125 0 0 0 -2.62308,-6.7169 l -1.38287,-0.97255 a 6.5250125,6.5250125 0 0 0 -3.67022,-1.18752 z m -243.728287,0.3359 a 6.5250125,6.5250125 0 0 0 -3.732588,1.15083 l -8.243941,5.67924 c -1.280276,-1.68661 -2.763528,-3.216 -4.570264,-4.29276 -2.939206,-1.76612 -6.318358,-2.46083 -9.744107,-2.46083 -2.969834,0 -5.841552,0.45298 -8.504391,1.6738 -2.726232,1.2356 -4.927605,3.08431 -7.204728,5.41982 a 6.5250125,6.5250125 0 0 0 0.837676,9.83402 l 1.234549,0.89659 a 6.5250125,6.5250125 0 0 0 7.584032,0.0605 c 0.900515,-0.63228 1.547138,-0.93048 1.4981,-0.91209 -0.0136,0.005 0.06131,-0.0351 0.363286,-0.0351 0.342276,0 0.292968,-0.0119 0.556556,0.17571 0.317638,0.22601 0.174387,0.10788 0.191202,0.16019 a 6.5250125,6.5250125 0 0 0 0.0098,0.0331 c -0.0062,-0.0189 0.06413,1.17594 0.111623,1.53117 l -3.902604,2.61535 a 6.5250125,6.5250125 0 0 0 -0.02946,0.0196 c -2.682017,1.81833 -4.832209,2.9456 -6.048726,3.39617 a 6.5250125,6.5250125 0 0 0 -4.257621,6.11901 v 1.53324 a 6.5250125,6.5250125 0 0 0 4.548559,6.21874 c 1.839394,0.58428 3.116337,1.15226 3.63492,1.44746 1.254794,0.74321 2.519386,1.73497 3.796668,3.05097 a 6.5250125,6.5250125 0 0 0 0.03359,0.0331 c 1.228548,1.24716 1.818299,2.23224 2.001946,2.68769 a 6.5250125,6.5250125 0 0 0 0.01344,0.0351 c 0.0021,0.005 0.004,0.0395 0.0062,0.045 -1.986267,0.64344 -3.864721,1.45957 -5.60586,2.4939 a 6.5250125,6.5250125 0 0 0 -0.02532,0.0155 c -3.420954,2.05258 -6.416301,4.96358 -9.234063,8.57829 a 6.5250125,6.5250125 0 0 0 0.814421,8.89041 l 1.011308,0.89866 a 6.5250125,6.5250125 0 0 0 8.328174,0.2775 c 1.636717,-1.26846 2.951937,-1.97588 3.674194,-2.24431 2.348458,-0.83412 4.748094,-1.25212 7.329784,-1.25212 2.049891,0 4.063484,0.2771 6.103504,0.84594 a 6.5250125,6.5250125 0 0 0 0.0155,0.004 c 2.009034,0.55488 4.74722,1.64643 8.025866,3.30885 a 6.5250125,6.5250125 0 0 0 7.097241,-0.78142 l 6.369121,-5.24413 -0.0253,-0.0388 c 0.008,0.0134 0.0212,0.0217 0.0294,0.0352 l 0.0119,-0.0103 c 0.0139,0.0217 0.0111,0.0328 0.0253,0.0548 1.50422,2.40505 3.57385,4.19496 5.93917,5.68544 a 6.5250125,6.5250125 0 0 0 7.70703,-0.55035 l 5.664248,-4.82245 a 6.5250125,6.5250125 0 0 0 2.61534,0.68368 c 1.723762,0.0758 3.095982,0.35506 4.167712,0.74207 a 6.5250125,6.5250125 0 0 0 0.0176,0.006 c 1.67756,0.6004 4.39568,1.939 7.79125,3.99976 a 6.5250125,6.5250125 0 0 0 7.78919,-0.76378 c 0.84387,-0.77205 1.67009,-1.37202 2.48616,-1.83606 a 6.5250125,6.5250125 0 0 0 0.0568,-0.0331 c 1.12219,-0.65322 3.68865,-1.87219 7.29258,-3.33778 a 6.5250125,6.5250125 0 0 0 2.92592,-2.36317 6.5250125,6.5250125 0 0 0 0.82992,0.71675 l 3.07423,2.21485 -4.22041,4.93562 a 6.5250125,6.5250125 0 0 0 -1.07435,6.72466 l 0.52348,1.27123 a 6.5250125,6.5250125 0 0 0 7.74423,3.81269 c 3.90874,-1.06191 7.18112,-1.53117 9.69914,-1.53117 0.91692,0 1.96281,0.097 3.12126,0.30231 1.14919,0.22825 2.4186,0.5772 3.80649,1.07435 a 6.5250125,6.5250125 0 0 0 4.95887,-0.23048 c 5.08563,-2.375 7.93444,-3.49951 10.82414,-6.31434 1.99301,-1.91701 3.71296,-4.85964 3.71296,-8.12715 0,-0.30689 -0.0746,-0.50153 -0.0899,-0.78497 1.19213,1.33355 2.532,2.57167 4.13308,3.82613 a 6.5250125,6.5250125 0 0 0 8.33954,-0.24237 c 1.45117,-1.27991 2.86793,-2.40738 4.28346,-3.53105 1.26136,1.51618 2.66683,2.78606 4.37855,3.98426 a 6.5250125,6.5250125 0 0 0 7.73079,-0.18139 l 5.32629,-4.11551 a 6.5250125,6.5250125 0 0 0 1.8278,0.69557 c 2.78087,0.58916 4.85179,1.15657 5.95312,1.55236 1.10106,0.39569 2.92429,1.22372 5.22449,2.45514 a 6.5250125,6.5250125 0 0 0 6.8125,-0.39997 l 12.12122,-8.4553 a 6.5250125,6.5250125 0 0 0 1.52343,-9.21701 l -0.82424,-1.12086 a 6.5250125,6.5250125 0 0 0 -8.92969,-1.52756 l -3.0117,2.05311 -0.41393,-0.16433 13.05088,-9.14828 a 6.5250125,6.5250125 0 0 0 1.20871,-9.58805 l -10.54866,-12.30698 a 6.5250125,6.5250125 0 0 0 -7.92561,-1.56011 c -4.102,2.10042 -6.77969,3.43721 -7.64449,3.84162 -1.31703,0.59341 -3.10814,1.30923 -5.33043,2.11305 a 6.5250125,6.5250125 0 0 0 -1.85725,1.04904 6.5250125,6.5250125 0 0 0 -0.70693,-0.69144 l -6.69727,-5.53506 a 6.5250125,6.5250125 0 0 0 -8.36952,0.047 l -4.72064,3.99201 -4.96662,-4.06074 a 6.5250125,6.5250125 0 0 0 -8.4217,0.13694 l -2.82619,2.46859 a 6.5250125,6.5250125 0 0 0 -7.75612,-1.43351 l -4.12274,2.08411 -8.75399,-4.11137 a 6.5250125,6.5250125 0 0 0 -6.25181,0.38654 c -3.45334,2.17665 -7.22605,3.70057 -11.45512,4.59765 a 6.5250125,6.5250125 0 0 0 -3.65455,2.21485 6.5250125,6.5250125 0 0 0 -3.45716,-2.16576 c -4.70585,-1.15974 -8.40141,-2.7381 -11.16366,-4.56665 a 6.5250125,6.5250125 0 0 0 -7.83828,0.47853 c -2.54163,2.17016 -5.65608,3.91297 -9.533272,5.20537 a 6.5250125,6.5250125 0 0 0 -4.46071,6.18928 v 17.88883 a 6.5250125,6.5250125 0 0 0 -1.86138,0.14211 c -1.287488,-4.64267 -3.052258,-8.77226 -5.585708,-12.19874 -0.76,-1.04476 -1.72752,-1.9348 -2.62103,-2.88096 l 4.83382,-3.2675 a 6.5250125,6.5250125 0 0 0 1.47639,-9.43766 L 77.88248,130.41792 a 6.5250125,6.5250125 0 0 0 -5.099427,-2.49235 z m 243.642477,6.18825 1.38444,0.97255 c -0.52372,2.41904 -1.24717,4.32711 -2.16991,5.72368 -0.89778,1.39656 -2.2317,2.50602 -4.00235,3.32899 -1.74569,0.79804 -3.76573,1.19735 -6.06009,1.19735 -1.22198,0 -2.70621,-0.0752 -4.45191,-0.2248 v 37.8194 c 3.79066,-1.14718 6.80871,-2.61862 9.0532,-4.4142 2.24446,-1.82052 4.32636,-4.42647 6.24662,-7.81813 l 1.38444,0.67335 c -1.09731,3.34178 -2.36938,6.02289 -3.8158,8.04292 -2.31928,3.26696 -5.31177,5.86064 -8.97776,7.78092 -3.66596,1.89533 -7.90543,2.84272 -12.7186,2.84272 -4.68844,0 -9.07772,-0.8978 -13.16765,-2.69338 -2.36919,-1.04742 -4.53904,-2.51886 -6.50918,-4.4142 -1.97014,-1.89533 -3.59088,-4.18941 -4.86275,-6.88278 -1.24693,-2.69337 -1.87069,-5.74822 -1.87068,-9.16482 0,-3.44153 0.68612,-6.73361 2.05775,-9.87588 1.37162,-3.14227 3.39166,-6.14753 6.06009,-9.01547 1.69582,-1.79559 4.08961,-3.7783 7.18198,-5.94796 l -4.71339,-0.26148 c -1.7457,-0.0998 -3.67832,0.27398 -5.79811,1.1219 -2.11977,0.82297 -3.77834,1.93295 -4.9754,3.32951 -1.17211,1.39656 -2.19465,3.47897 -3.06751,6.24716 l -1.38389,-0.8232 c 0.84792,-3.54129 1.9451,-6.29705 3.29179,-8.2672 1.79558,-2.61856 4.16481,-4.63859 7.10757,-6.06009 2.94277,-1.44644 6.29721,-2.16938 10.06295,-2.16938 2.61855,0 7.24456,0.54859 13.87822,1.64589 6.63368,1.0973 11.19729,1.6459 13.69115,1.6459 1.6709,0 2.94293,-0.2495 3.8158,-0.74828 0.89778,-0.52371 2.00723,-1.72059 3.32898,-3.59099 z m -243.675032,0.33641 12.905672,16.42225 -12.008052,8.11734 c 3.416592,2.04497 6.147302,4.47658 8.192262,7.29464 2.06991,2.79313 3.67837,6.40936 4.82555,10.84844 0.52371,2.14472 1.06004,3.71586 1.60869,4.7134 0.37407,0.64841 1.07247,1.42146 2.09496,2.31924 l 3.740848,-3.17965 1.27176,1.34669 -9.052678,7.70599 c -1.82052,-1.14718 -3.12988,-2.36911 -3.92792,-3.66593 -0.57359,-0.87285 -1.62119,-3.82801 -3.14244,-8.8656 -0.82298,-2.66844 -1.87006,-4.95024 -3.141932,-6.84558 -1.271871,-1.89533 -2.618563,-3.31718 -4.040063,-4.26486 -1.421503,-0.9726 -3.329572,-1.83256 -5.723684,-2.58072 l -2.543513,1.6459 v 15.52411 c 2.269416,0.74816 4.663188,1.80803 7.18199,3.17965 l 3.890719,-3.44165 1.196827,1.30948 -9.726023,8.0052 c -3.541286,-1.79558 -6.621187,-3.05485 -9.239744,-3.77807 -2.593618,-0.72322 -5.211839,-1.08468 -7.855334,-1.08468 -3.31684,0 -6.509223,0.54859 -9.576678,1.64589 -1.62101,0.59853 -3.428865,1.67067 -5.423958,3.21686 l -1.010275,-0.89762 c 2.468928,-3.16721 4.950127,-5.49912 7.443991,-6.99544 2.518802,-1.49631 5.599221,-2.50608 9.240264,-3.02979 v -1.68362 c 0,-2.41904 -0.311878,-4.38897 -0.935345,-5.91023 -0.623467,-1.54619 -1.758492,-3.15466 -3.404444,-4.82555 -1.645949,-1.69583 -3.37916,-3.08035 -5.199681,-4.15271 -1.172115,-0.67334 -2.817897,-1.34669 -4.937684,-2.02004 v -1.53375 c 2.020031,-0.74816 4.50123,-2.11939 7.443992,-4.11448 l 7.033162,-4.71341 c 0,-3.21708 -0.224449,-5.51167 -0.673344,-6.8833 -0.448897,-1.39656 -1.322154,-2.55612 -2.618962,-3.47886 -1.29681,-0.92272 -2.743197,-1.38389 -4.33927,-1.38389 -0.972608,0 -1.857616,0.14929 -2.655652,0.44855 -0.798036,0.29927 -1.78326,0.86065 -2.955374,1.68362 l -1.234552,-0.89814 c 1.945214,-1.99509 3.690694,-3.34178 5.23689,-4.04006 1.571133,-0.72322 3.504258,-1.08469 5.798611,-1.08469 2.568681,0 4.700683,0.51127 6.396511,1.53376 1.720766,1.02248 3.00508,2.41928 3.852995,4.18992 0.498771,1.07236 0.785596,2.61845 0.860412,4.63848 z m 311.570632,2.95538 25.4,17.46973 c 0.39902,-0.92273 0.83566,-1.62112 1.30948,-2.09496 0.49879,-0.47384 1.24677,-0.92274 2.24433,-1.34669 v 1.53376 c -0.49879,0.67334 -0.82294,1.28431 -0.97256,1.83296 -0.14965,0.54865 -0.22428,1.67089 -0.22428,3.36672 v 25.17572 c -3.1672,1.19706 -5.52416,2.24414 -7.07036,3.14193 -1.5462,0.87285 -3.21704,2.05748 -5.01261,3.55379 -2.94278,-1.92027 -5.54871,-3.31656 -7.81815,-4.18941 -2.26941,-0.87285 -4.71328,-1.47155 -7.33184,-1.79576 v -0.71055 c 0.89779,-0.7731 1.47143,-1.54614 1.72083,-2.31924 0.27432,-0.79803 0.41134,-2.43155 0.41134,-4.90047 v -19.60191 c 3.41659,-0.94766 5.83541,-2.02032 7.25691,-3.21737 l -9.91309,-6.77065 z m -316.546039,2.61844 -3.965133,2.65617 v 20.68659 L 78.43645,153.6031 Z m 215.619379,2.2071 c -3.34176,2.86795 -5.79792,5.73619 -7.36904,8.60413 -2.11979,3.86548 -3.18016,7.84318 -3.18016,11.93312 0,6.98282 2.86822,12.68094 8.60412,17.09508 1.82052,-1.52126 2.9305,-2.75547 3.32952,-3.70313 0.39901,-0.94767 0.5984,-2.88028 0.5984,-5.7981 v -27.94403 z m 9.72603,1.49655 v 22.36969 c 0,2.61856 -0.11197,4.28939 -0.33641,5.01262 -0.1995,0.69828 -0.68572,1.49638 -1.45881,2.39417 -1.39658,1.54619 -4.19018,3.99059 -8.37986,7.33237 2.09484,1.02248 3.79074,1.7081 5.08754,2.05724 2.24449,0.59852 4.40206,0.89762 6.47195,0.89762 1.09731,0 2.73082,-0.13703 4.90048,-0.41135 v -38.60488 c -2.36916,-0.3242 -4.46437,-0.6734 -6.28489,-1.04748 z m -231.031366,0.14935 -4.489132,3.14244 v 32.39544 c 1.496319,0.22445 2.992813,0.56086 4.489132,1.00976 z m 50.687866,6.28488 c 3.54128,2.34424 7.94282,4.16436 13.20487,5.46117 v 27.98124 c -3.74079,1.52126 -6.44644,2.76825 -8.11733,3.74085 -1.27187,0.72322 -2.49432,1.62102 -3.66644,2.69338 -3.6161,-2.1946 -6.60858,-3.71563 -8.97775,-4.56355 -1.79558,-0.6484 -3.82789,-1.02265 -6.097302,-1.12241 l -0.37414,-0.74827 c 0.94767,-0.79804 1.546382,-1.52097 1.795762,-2.16938 0.34914,-0.84791 0.52348,-2.28204 0.52348,-4.30206 v -20.53674 c 4.56377,-1.52125 8.46682,-3.66604 11.70885,-6.43423 z m 36.80912,0 11.63391,5.46117 6.95823,-3.51607 v 8.41654 l -6.73344,-1.30896 v 16.98294 c 0,2.74325 0.16208,4.60122 0.48628,5.57382 0.42396,1.27188 1.30897,2.74332 2.65565,4.4142 2.16966,2.7682 3.25458,4.75091 3.25458,5.94796 0,1.19705 -0.57364,2.34435 -1.72082,3.44165 -1.12223,1.0973 -4.13977,2.79319 -9.05268,5.08755 -1.67089,-0.59853 -3.26708,-1.04743 -4.78834,-1.34669 -1.52126,-0.27433 -2.96765,-0.41186 -4.33927,-0.41186 -3.2919,0 -7.09474,0.58643 -11.40912,1.75855 l -0.524,-1.27228 8.8284,-10.32443 -8.8284,-6.3593 v -27.08362 c 4.93785,-1.04742 9.46414,-2.86755 13.57902,-5.46117 z m 30.52527,0 6.77064,5.5361 -2.7683,2.54403 v 19.86339 c 0,1.47138 0.18712,2.55629 0.5612,3.25458 0.37408,0.67334 1.28414,1.53381 2.73058,2.58124 l 6.8461,-5.05034 v -20.42459 l -2.65617,-2.76831 6.54637,-5.5361 6.69623,5.5361 -3.0303,2.76831 v 19.63911 c 0,2.26942 0.31187,3.89066 0.93534,4.86327 0.39901,0.67334 0.83513,1.00975 1.30896,1.00975 0.34915,0 1.0225,-0.41157 2.02004,-1.23454 l 0.97306,1.19734 -7.89306,6.0973 c -1.99509,-1.39656 -3.30446,-2.64356 -3.92792,-3.74086 -0.59854,-1.12224 -0.92268,-2.89277 -0.97255,-5.31182 -3.8655,2.49386 -7.80587,5.51139 -11.82099,9.05268 -2.41904,-1.89534 -4.00297,-3.5539 -4.75113,-4.97541 -0.74816,-1.44644 -1.12189,-3.34172 -1.12189,-5.68595 v -18.4795 c 0,-1.2968 -0.0997,-2.14449 -0.29921,-2.54351 -0.34914,-0.69828 -0.82309,-1.04748 -1.42162,-1.04748 -0.4489,0 -1.12224,0.38652 -2.02003,1.15962 l -1.01028,-1.04749 z m 47.39555,0 10.54923,12.30726 -16.75867,11.74606 v 6.80836 l 8.67854,3.44114 5.87303,-4.00234 0.82269,1.12189 -12.11968,8.45427 c -2.46892,-1.32175 -4.50174,-2.26914 -6.09782,-2.84272 -1.59607,-0.57359 -3.8656,-1.17229 -6.80837,-1.79576 v -0.93534 c 0.84792,-0.49878 1.4093,-1.10974 1.68362,-1.83296 0.29926,-0.74816 0.44907,-2.34435 0.44907,-4.78834 v -21.39715 c 2.34423,-0.84791 4.28911,-1.62095 5.8353,-2.31923 1.12224,-0.52372 3.75325,-1.84536 7.89306,-3.96514 z m 100.14119,0 c 2.11976,1.62102 3.56616,3.03008 4.33924,4.22714 0.49879,0.74816 0.7483,1.78297 0.7483,3.10471 l 8.41652,-7.33185 5.64875,6.77065 -5.64875,5.01261 -4.71339,-5.94795 -3.70313,3.36672 v 21.809 l 4.26434,3.06751 3.85299,-3.06751 0.8604,1.19683 -9.57614,7.66878 c -2.04499,-1.82052 -3.76592,-3.12989 -5.1625,-3.92793 -1.37163,-0.79804 -2.88039,-1.42127 -4.52633,-1.87017 v -0.8232 c 1.0973,-0.7731 1.80798,-1.54614 2.13217,-2.31924 0.34914,-0.79803 0.52401,-2.3068 0.52401,-4.52634 V 161.3096 c 0,-1.92027 -0.22445,-3.19232 -0.67334,-3.81579 -0.42397,-0.6484 -0.89792,-0.97255 -1.42163,-0.97255 -0.57359,0 -1.35941,0.49849 -2.35697,1.49604 l -0.89762,-1.08469 z m 36.28562,0 c 1.82051,1.07236 3.80325,1.93283 5.94796,2.58124 2.16966,0.6484 3.82823,0.97255 4.97541,0.97255 0.52372,0 0.9225,-0.0874 1.19682,-0.262 0.27432,-0.19951 0.73602,-0.76089 1.3844,-1.68362 l 1.34671,0.524 c -1.34668,2.09485 -2.20716,3.70331 -2.58125,4.82555 -0.34912,1.0973 -0.52398,2.5938 -0.52398,4.48913 v 15.93546 c 0,2.6435 0.19992,4.30207 0.59891,4.97541 0.42397,0.6484 0.92244,0.97255 1.49603,0.97255 0.29927,0 0.61116,-0.0746 0.93536,-0.22428 0.19952,-0.12469 0.78541,-0.57359 1.75802,-1.34669 l 0.82322,1.23456 -8.34212,6.88278 c -1.9203,-1.49631 -3.20461,-2.83022 -3.853,-4.00234 -0.64841,-1.19705 -1.00989,-2.85562 -1.08471,-4.97541 l -11.37243,8.97775 c -4.2645,-3.49141 -6.39651,-6.93278 -6.39651,-10.32444 0,-2.26941 0.46117,-4.40194 1.3839,-6.39702 1.22201,-2.61856 3.32947,-5.6734 6.32209,-9.16482 l -4.48913,-9.57616 0.524,-1.04748 c 0.97261,0.0998 1.69556,0.14935 2.16938,0.14935 2.94277,0 5.53645,-1.17183 7.78092,-3.51607 z m 71.56153,0 10.54923,12.30726 -16.75868,11.74606 v 6.80836 l 8.67854,3.44114 5.87304,-4.00234 0.82269,1.12189 -12.12019,8.45427 c -2.46893,-1.32175 -4.50125,-2.26914 -6.09732,-2.84272 -1.59607,-0.57359 -3.86559,-1.17229 -6.80837,-1.79576 v -0.93534 c 0.84791,-0.49878 1.40931,-1.10974 1.68363,-1.83296 0.29927,-0.74816 0.44855,-2.34435 0.44855,-4.78834 v -21.39715 c 2.34423,-0.84791 4.28961,-1.62095 5.83583,-2.31923 1.12223,-0.52372 3.75322,-1.84536 7.89305,-3.96514 z m 21.43488,0 c 2.11976,1.62102 3.56616,3.03008 4.33924,4.22714 0.49879,0.74816 0.7483,1.78297 0.7483,3.10471 l 8.41652,-7.33185 5.64875,6.77065 -5.64875,5.01261 -4.71339,-5.94795 -3.70313,3.36672 v 21.809 l 4.26434,3.06751 3.85299,-3.06751 0.8604,1.19683 -9.57614,7.66878 c -2.04499,-1.82052 -3.76592,-3.12989 -5.1625,-3.92793 -1.3716,-0.79804 -2.88039,-1.42127 -4.52633,-1.87017 v -0.8232 c 1.0973,-0.7731 1.80798,-1.54614 2.13217,-2.31924 0.34914,-0.79803 0.52348,-2.3068 0.52348,-4.52634 V 161.3096 c 0,-1.92027 -0.22445,-3.19232 -0.67334,-3.81579 -0.42394,-0.6484 -0.89739,-0.97255 -1.4211,-0.97255 -0.57359,0 -1.35941,0.49849 -2.35697,1.49604 l -0.89762,-1.08469 z m -406.998423,2.09445 -8.304919,5.61154 c 1.571133,0.74816 2.868231,1.49615 3.890716,2.24431 1.047425,0.74815 2.518865,1.99515 4.414203,3.74086 z m 171.889243,2.2071 -0.52348,0.262 v 16.94574 l 9.83816,-6.88279 z m 207.98835,0 -0.5235,0.262 v 16.94574 l 9.83816,-6.88279 z m -74.59133,0.524 4.56356,9.65109 8.22997,3.85299 v -9.57616 z m 41.56027,0 c -0.69829,0.57359 -1.40949,1.07208 -2.1327,1.49603 v 23.11849 l 9.80096,4.33927 v -23.64197 z m -253.17732,0.63562 v 24.50238 l 5.57382,4.04006 4.6762,-5.61102 v -19.41484 z m -34.97616,0.93534 v 23.41769 l 9.76323,4.00234 v -23.79131 c -3.06744,-1.4215 -5.23729,-2.35661 -6.50916,-2.80551 -0.8978,-0.3242 -1.9822,-0.59876 -3.25407,-0.82321 z m 250.33407,9.23975 c -1.39657,3.04251 -2.09497,5.71084 -2.09497,8.00519 0,4.04006 1.83293,7.36947 5.49889,9.98803 l 5.64875,-4.56355 v -9.20254 z m -205.10789,15.22542 -11.25978,12.86795 c 3.24203,-0.5237 5.86025,-0.78548 7.85534,-0.78548 1.79558,0 3.60395,0.23672 5.42448,0.71055 1.84546,0.47384 3.70342,1.19729 5.57381,2.1699 l 1.53376,-0.97255 c -3.36672,-3.14227 -5.64904,-5.68585 -6.84609,-7.63106 -1.19706,-1.94522 -1.95731,-4.06495 -2.28152,-6.35931 z"
           id="path65"
           inkscape:connector-curvature="0" />
      </g>
    </g>
  </g>
</svg>
